<?xml version="1.0" encoding="utf-8"?>
<!-- Generator: Adobe Illustrator 25.0.1, SVG Export Plug-In . SVG Version: 6.00 Build 0)  -->
<svg version="1.1" id="Layer_1" xmlns="http://www.w3.org/2000/svg" xmlns:xlink="http://www.w3.org/1999/xlink" x="0px" y="0px"
	 viewBox="0 0 595.28 396.76" style="enable-background:new 0 0 595.28 396.76;" xml:space="preserve">
<style type="text/css">
	.st0{fill:#1D417B;}
	.st1{fill:#FFD056;}
	.st2{fill:#E57025;}
	.st3{fill:#FFFFFF;}
	.st4{fill:#1D427B;}
	.st5{fill:url(#SVGID_1_);}
	.st6{fill:url(#SVGID_2_);}
	.st7{fill:none;stroke:#FFD056;stroke-width:2;stroke-linecap:round;stroke-linejoin:round;stroke-miterlimit:10;}
	.st8{fill:#B8B8D8;}
	.st9{fill:#E2E2E2;}
	.st10{fill:#CBC9E1;}
	.st11{opacity:0.3;fill:#C7E7F9;}
	.st12{opacity:0.3;fill:#C7E0F5;}
	.st13{fill:#9EAAD6;}
	.st14{fill:#0E121F;}
	.st15{fill:#CCCACA;}
	.st16{fill:#909CCF;}
	.st17{fill:#7CD1E9;}
	.st18{fill:#F4867F;}
	.st19{fill:#E4E8F5;}
	.st20{fill:#ABCDDC;}
	.st21{fill:#F1E5F1;}
	.st22{fill:#9EC5D8;}
	.st23{fill:#BBB6DB;}
	.st24{fill:#A49DCD;}
	.st25{fill:#F1647E;}
	.st26{fill:#283368;}
	.st27{clip-path:url(#SVGID_4_);}
	.st28{fill:#271C55;}
	.st29{fill:#F7A8A8;}
	.st30{fill:#F2F0F3;}
	.st31{fill:#C3435A;}
	.st32{fill:#E26D7B;}
	.st33{fill:none;stroke:#FFFFFF;stroke-width:0.6;stroke-linecap:round;stroke-linejoin:round;stroke-miterlimit:10;}
	.st34{clip-path:url(#SVGID_6_);fill:#283368;}
	.st35{clip-path:url(#SVGID_6_);fill:#293469;}
	.st36{clip-path:url(#SVGID_6_);fill:#2C356A;}
	.st37{clip-path:url(#SVGID_6_);fill:#2B366B;}
	.st38{clip-path:url(#SVGID_6_);fill:#2C376C;}
	.st39{clip-path:url(#SVGID_6_);fill:#2D376C;}
	.st40{clip-path:url(#SVGID_6_);fill:#2E386E;}
	.st41{clip-path:url(#SVGID_6_);fill:#2F396F;}
	.st42{clip-path:url(#SVGID_6_);fill:#303A6F;}
	.st43{clip-path:url(#SVGID_6_);fill:#313B71;}
	.st44{clip-path:url(#SVGID_6_);fill:#323C71;}
	.st45{clip-path:url(#SVGID_6_);fill:#333C72;}
	.st46{clip-path:url(#SVGID_6_);fill:#343E74;}
	.st47{clip-path:url(#SVGID_6_);fill:#353F76;}
	.st48{clip-path:url(#SVGID_6_);fill:#354077;}
	.st49{clip-path:url(#SVGID_6_);fill:#364178;}
	.st50{clip-path:url(#SVGID_6_);fill:#374279;}
	.st51{clip-path:url(#SVGID_6_);fill:#38427A;}
	.st52{clip-path:url(#SVGID_6_);fill:#39437B;}
	.st53{clip-path:url(#SVGID_6_);fill:#3A447C;}
	.st54{clip-path:url(#SVGID_6_);fill:#39457D;}
	.st55{clip-path:url(#SVGID_6_);fill:#3A467E;}
	.st56{clip-path:url(#SVGID_6_);fill:#3B477F;}
	.st57{fill:#77A7D9;}
	.st58{fill:#8FA6C9;}
	.st59{fill:none;stroke:#A49DCD;stroke-width:0.6;stroke-linecap:round;stroke-linejoin:round;stroke-miterlimit:10;}
	.st60{fill:#394272;}
</style>
<ellipse class="st0" cx="292.92" cy="340.29" rx="273.52" ry="9.05"/>
<path class="st1" d="M191.51,290.14v-2.06H50.58c-2.74,0-4.95,2.22-4.95,4.95v15.49c0,2.74,2.22,4.95,4.95,4.95h140.93v-2.06h-1.35
	v-21.28H191.51z"/>
<path class="st2" d="M200.63,315.54v-2.06H34.93c-2.74,0-4.95,2.22-4.95,4.95v15.49c0,2.74,2.22,4.95,4.95,4.95h165.7v-2.06h-1.35
	v-21.28H200.63z"/>
<path class="st3" d="M36.01,333.93v-15.49c0-2.74,2.22-4.95,4.95-4.95h-2.45c-2.74,0-4.95,2.22-4.95,4.95v15.49
	c0,2.74,2.22,4.95,4.95,4.95h2.45C38.23,338.88,36.01,336.66,36.01,333.93z"/>
<path class="st3" d="M42.36,333.93v-15.49c0-2.74,2.22-4.95,4.95-4.95h-2.45c-2.74,0-4.95,2.22-4.95,4.95v15.49
	c0,2.74,2.22,4.95,4.95,4.95h2.45C44.57,338.88,42.36,336.66,42.36,333.93z"/>
<path class="st3" d="M190.16,311.42H74.53c-2.89,0-5.23-2.34-5.23-5.23v-10.82c0-2.89,2.34-5.23,5.23-5.23h115.63V311.42z"/>
<path class="st3" d="M199.28,336.82H91.04c-2.89,0-5.23-2.34-5.23-5.23v-10.82c0-2.89,2.34-5.23,5.23-5.23h108.24V336.82z"/>
<path class="st4" d="M29.98,277.13v-2.06h165.7c2.74,0,4.95,2.22,4.95,4.95v3.11c0,2.74-2.22,4.95-4.95,4.95H29.98v-2.06h1.35v-8.89
	H29.98z"/>
<path class="st3" d="M31.33,286.02h109.32c2.29,0,4.15-1.86,4.15-4.15v-0.59c0-2.29-1.86-4.15-4.15-4.15H31.33V286.02z"/>
<rect x="49.71" y="292.55" class="st3" width="5.77" height="16.46"/>
<rect x="57.87" y="292.55" class="st3" width="1.59" height="16.46"/>
<g>
	<linearGradient id="SVGID_1_" gradientUnits="userSpaceOnUse" x1="107.4519" y1="253.4068" x2="107.4519" y2="269.2119">
		<stop  offset="0" style="stop-color:#283368"/>
		<stop  offset="0.999" style="stop-color:#3B477F"/>
	</linearGradient>
	<rect x="71.25" y="230.64" class="st5" width="72.41" height="44.43"/>
	<linearGradient id="SVGID_2_" gradientUnits="userSpaceOnUse" x1="107.0367" y1="213.5629" x2="107.0367" y2="241.7769">
		<stop  offset="0" style="stop-color:#283368"/>
		<stop  offset="0.999" style="stop-color:#3B477F"/>
	</linearGradient>
	<polygon class="st6" points="107.04,208.26 36.9,230.64 107.04,253.02 177.17,230.64 	"/>
</g>
<polyline class="st7" points="107.04,225.82 60.93,238.3 60.93,256.65 "/>
<path class="st1" d="M63.72,269.11h-5.38v-12.23c0-1.3,1.06-2.36,2.36-2.36h0.66c1.3,0,2.36,1.06,2.36,2.36V269.11z"/>
<g>
	<polygon class="st8" points="412.34,74.62 450.49,58.06 414.41,67.09 	"/>
	<g>
		<polygon class="st9" points="412.34,64.19 450.49,58.06 405.6,54.77 		"/>
		<polygon class="st9" points="414.41,67.09 421.86,77.49 450.49,58.06 		"/>
	</g>
	<polygon class="st10" points="412.34,64.19 412.34,74.62 414.41,67.09 450.49,58.06 	"/>
</g>
<path class="st11" d="M544.49,104.89c-0.66,0-1.3,0.07-1.92,0.18c-1.02-6.71-6.79-11.86-13.79-11.86c-7.71,0-13.96,6.25-13.96,13.96
	c0,0.53,0.04,1.06,0.09,1.57c-0.52-0.1-1.06-0.16-1.61-0.16c-4.71,0-8.52,3.82-8.52,8.52s3.82,8.52,8.52,8.52h31.19
	c5.73,0,10.37-4.64,10.37-10.37C554.86,109.54,550.22,104.89,544.49,104.89z"/>
<path class="st12" d="M126.7,71.88c-0.81,0-1.6,0.08-2.37,0.23c-1.26-8.3-8.4-14.67-17.05-14.67C97.74,57.44,90,65.17,90,74.71
	c0,0.66,0.04,1.31,0.12,1.95c-0.65-0.12-1.31-0.19-1.99-0.19c-5.82,0-10.54,4.72-10.54,10.54c0,5.82,4.72,10.54,10.54,10.54h38.57
	c7.09,0,12.83-5.74,12.83-12.83C139.53,77.62,133.79,71.88,126.7,71.88z"/>
<g>
	<g>
		<path class="st13" d="M276.18,99.7c-0.03,0-0.05,0-0.08-0.01c-0.21-0.04-0.35-0.25-0.31-0.47c0.05-0.26,0.11-0.53,0.16-0.79
			c0.05-0.21,0.26-0.35,0.47-0.3c0.21,0.05,0.35,0.26,0.3,0.47c-0.06,0.25-0.11,0.51-0.16,0.77
			C276.53,99.57,276.37,99.7,276.18,99.7z"/>
	</g>
	<g>
		<path class="st14" d="M277.43,95.08c-0.04,0-0.09-0.01-0.13-0.02c-0.21-0.07-0.32-0.3-0.25-0.5c0.18-0.51,0.37-1.01,0.56-1.51
			c0.08-0.2,0.31-0.3,0.52-0.22c0.2,0.08,0.3,0.31,0.22,0.52c-0.2,0.49-0.38,0.98-0.55,1.48C277.75,94.98,277.6,95.08,277.43,95.08z
			 M279.67,89.96c-0.06,0-0.13-0.01-0.19-0.05c-0.19-0.1-0.27-0.34-0.16-0.54c0.25-0.48,0.51-0.94,0.79-1.41
			c0.11-0.19,0.36-0.25,0.54-0.14c0.19,0.11,0.25,0.35,0.14,0.54c-0.27,0.45-0.52,0.91-0.77,1.38
			C279.95,89.89,279.81,89.96,279.67,89.96z M282.64,85.24c-0.08,0-0.16-0.02-0.23-0.08c-0.18-0.13-0.22-0.38-0.09-0.55
			c0.32-0.43,0.64-0.86,0.98-1.28c0.14-0.17,0.39-0.2,0.56-0.06c0.17,0.14,0.2,0.39,0.06,0.56c-0.33,0.41-0.65,0.83-0.96,1.26
			C282.88,85.18,282.76,85.24,282.64,85.24z M382.19,81.28c-0.01,0-0.01,0-0.02,0c-0.53-0.03-1.07-0.07-1.61-0.12
			c-0.22-0.02-0.38-0.22-0.36-0.43c0.02-0.22,0.22-0.37,0.43-0.36c0.53,0.05,1.05,0.09,1.57,0.12c0.22,0.01,0.39,0.2,0.38,0.42
			C382.57,81.11,382.4,81.28,382.19,81.28z M386.18,81.24c-0.21,0-0.38-0.16-0.4-0.37c-0.02-0.22,0.15-0.41,0.37-0.42
			c0.53-0.04,1.05-0.09,1.57-0.16c0.21-0.03,0.42,0.13,0.44,0.34c0.03,0.22-0.13,0.42-0.34,0.44c-0.53,0.07-1.07,0.12-1.61,0.16
			C386.2,81.24,386.19,81.24,386.18,81.24z M286.22,80.96c-0.1,0-0.2-0.04-0.27-0.11c-0.16-0.15-0.16-0.4-0.01-0.56
			c0.37-0.39,0.75-0.77,1.13-1.14c0.16-0.15,0.41-0.15,0.56,0.01c0.15,0.16,0.15,0.41-0.01,0.56c-0.38,0.37-0.75,0.74-1.11,1.12
			C286.43,80.92,286.33,80.96,286.22,80.96z M376.65,80.56c-0.03,0-0.05,0-0.08-0.01c-0.53-0.1-1.05-0.22-1.57-0.34
			c-0.21-0.05-0.35-0.26-0.3-0.48c0.05-0.21,0.27-0.35,0.48-0.3c0.51,0.12,1.03,0.23,1.55,0.33c0.22,0.04,0.35,0.25,0.31,0.47
			C377,80.43,376.84,80.56,376.65,80.56z M391.69,80.32c-0.18,0-0.34-0.12-0.38-0.3c-0.05-0.21,0.07-0.43,0.28-0.48
			c0.51-0.13,1.01-0.28,1.52-0.43c0.21-0.06,0.43,0.05,0.5,0.26c0.07,0.21-0.05,0.43-0.26,0.5c-0.51,0.16-1.03,0.31-1.55,0.44
			C391.75,80.32,391.72,80.32,391.69,80.32z M371.24,79.2c-0.04,0-0.08-0.01-0.11-0.02c-0.51-0.15-1.02-0.31-1.53-0.48
			c-0.21-0.07-0.32-0.29-0.26-0.5c0.07-0.21,0.29-0.32,0.5-0.26c0.5,0.16,1.01,0.32,1.52,0.47c0.21,0.06,0.33,0.28,0.27,0.49
			C371.56,79.08,371.41,79.2,371.24,79.2z M396.95,78.47c-0.15,0-0.3-0.09-0.36-0.24c-0.09-0.2,0-0.43,0.2-0.52
			c0.48-0.21,0.96-0.44,1.43-0.67c0.19-0.1,0.43-0.02,0.53,0.18c0.1,0.2,0.02,0.43-0.18,0.53c-0.48,0.24-0.97,0.47-1.46,0.68
			C397.06,78.46,397.01,78.47,396.95,78.47z M365.94,77.42c-0.05,0-0.09-0.01-0.14-0.02c-0.5-0.18-1-0.37-1.5-0.56
			c-0.21-0.08-0.31-0.31-0.23-0.51c0.08-0.2,0.31-0.31,0.51-0.23c0.5,0.19,1,0.37,1.49,0.56c0.21,0.08,0.31,0.3,0.24,0.51
			C366.25,77.32,366.1,77.42,365.94,77.42z M290.33,77.17c-0.11,0-0.23-0.05-0.31-0.15c-0.14-0.17-0.11-0.42,0.06-0.56
			c0.42-0.34,0.84-0.67,1.26-1c0.17-0.13,0.42-0.1,0.56,0.08c0.13,0.17,0.1,0.42-0.08,0.56c-0.42,0.32-0.83,0.65-1.24,0.98
			C290.5,77.14,290.41,77.17,290.33,77.17z M401.89,75.87c-0.13,0-0.26-0.07-0.34-0.19c-0.11-0.19-0.05-0.43,0.13-0.54
			c0.45-0.27,0.9-0.55,1.34-0.84c0.18-0.12,0.43-0.07,0.55,0.12c0.12,0.18,0.07,0.43-0.12,0.55c-0.45,0.29-0.91,0.58-1.36,0.86
			C402.04,75.85,401.96,75.87,401.89,75.87z M360.72,75.41c-0.05,0-0.1-0.01-0.15-0.03l-1.48-0.59c-0.2-0.08-0.3-0.31-0.22-0.52
			c0.08-0.2,0.31-0.3,0.52-0.22l1.48,0.59c0.2,0.08,0.3,0.31,0.22,0.51C361.03,75.32,360.88,75.41,360.72,75.41z M294.85,73.9
			c-0.13,0-0.26-0.06-0.33-0.18c-0.12-0.18-0.06-0.43,0.12-0.55c0.45-0.29,0.91-0.57,1.37-0.84c0.19-0.11,0.43-0.05,0.54,0.14
			c0.11,0.19,0.05,0.43-0.14,0.54c-0.45,0.27-0.9,0.55-1.35,0.83C295,73.88,294.93,73.9,294.85,73.9z M355.52,73.36
			c-0.05,0-0.1-0.01-0.14-0.03c-0.49-0.19-0.99-0.38-1.49-0.57c-0.2-0.08-0.31-0.31-0.23-0.51c0.08-0.2,0.3-0.31,0.51-0.23
			c0.5,0.19,1,0.38,1.49,0.57c0.2,0.08,0.31,0.31,0.23,0.51C355.83,73.27,355.68,73.36,355.52,73.36z M350.27,71.44
			c-0.04,0-0.09-0.01-0.13-0.02c-0.5-0.17-1.01-0.34-1.51-0.5c-0.21-0.07-0.32-0.29-0.26-0.5c0.07-0.21,0.29-0.32,0.5-0.26
			c0.51,0.16,1.02,0.33,1.52,0.5c0.21,0.07,0.32,0.3,0.25,0.5C350.59,71.34,350.43,71.44,350.27,71.44z M299.73,71.17
			c-0.15,0-0.29-0.08-0.36-0.22c-0.1-0.2-0.01-0.43,0.18-0.53c0.48-0.23,0.97-0.46,1.46-0.68c0.2-0.09,0.43,0,0.52,0.2
			c0.09,0.2,0,0.43-0.2,0.52c-0.48,0.22-0.96,0.44-1.44,0.67C299.84,71.15,299.79,71.17,299.73,71.17z M344.93,69.79
			c-0.04,0-0.07,0-0.11-0.02c-0.51-0.15-1.02-0.29-1.53-0.43c-0.21-0.06-0.34-0.28-0.28-0.49c0.06-0.21,0.27-0.34,0.49-0.28
			c0.51,0.14,1.03,0.28,1.54,0.43c0.21,0.06,0.33,0.28,0.27,0.49C345.26,69.68,345.11,69.79,344.93,69.79z M304.88,69.01
			c-0.16,0-0.32-0.1-0.37-0.27c-0.07-0.21,0.04-0.43,0.24-0.51c0.51-0.18,1.02-0.35,1.53-0.51c0.21-0.06,0.43,0.05,0.5,0.26
			c0.07,0.21-0.05,0.43-0.26,0.5c-0.5,0.16-1.01,0.33-1.5,0.5C304.97,69,304.93,69.01,304.88,69.01z M339.52,68.38
			c-0.03,0-0.06,0-0.09-0.01c-0.52-0.12-1.03-0.24-1.55-0.35c-0.21-0.05-0.35-0.26-0.3-0.47c0.05-0.21,0.26-0.35,0.47-0.3
			c0.52,0.11,1.04,0.23,1.56,0.35c0.21,0.05,0.35,0.26,0.3,0.48C339.87,68.25,339.71,68.38,339.52,68.38z M310.25,67.46
			c-0.18,0-0.34-0.12-0.39-0.31c-0.05-0.21,0.09-0.43,0.3-0.48c0.52-0.12,1.05-0.23,1.58-0.33c0.21-0.04,0.42,0.1,0.46,0.31
			c0.04,0.22-0.1,0.42-0.31,0.46c-0.52,0.1-1.03,0.21-1.55,0.33C310.31,67.46,310.28,67.46,310.25,67.46z M334.05,67.26
			c-0.02,0-0.05,0-0.07-0.01c-0.52-0.09-1.05-0.18-1.57-0.26c-0.22-0.03-0.37-0.24-0.33-0.45c0.03-0.22,0.24-0.37,0.45-0.33
			c0.53,0.08,1.06,0.17,1.58,0.26c0.22,0.04,0.36,0.24,0.32,0.46C334.41,67.12,334.24,67.26,334.05,67.26z M315.76,66.53
			c-0.2,0-0.37-0.15-0.39-0.35c-0.02-0.22,0.13-0.41,0.35-0.44c0.53-0.06,1.07-0.11,1.6-0.16c0.21-0.02,0.41,0.14,0.43,0.36
			c0.02,0.22-0.14,0.41-0.36,0.43c-0.53,0.04-1.05,0.1-1.58,0.16C315.79,66.53,315.77,66.53,315.76,66.53z M328.51,66.5
			c-0.01,0-0.03,0-0.04,0c-0.53-0.05-1.05-0.1-1.58-0.14c-0.22-0.02-0.38-0.21-0.37-0.43s0.21-0.39,0.43-0.37
			c0.53,0.04,1.07,0.09,1.6,0.14c0.22,0.02,0.38,0.22,0.36,0.43C328.89,66.35,328.72,66.5,328.51,66.5z M321.34,66.18
			c-0.22,0-0.39-0.17-0.4-0.39c0-0.22,0.17-0.4,0.39-0.4c0.54-0.01,1.07-0.01,1.61,0c0.22,0,0.39,0.18,0.39,0.4
			c0,0.22-0.18,0.39-0.4,0.39c0,0,0,0-0.01,0C322.4,66.18,321.87,66.18,321.34,66.18C321.34,66.18,321.34,66.18,321.34,66.18z"/>
	</g>
	<g>
		<path class="st13" d="M406.55,72.72c-0.12,0-0.24-0.06-0.32-0.16c-0.13-0.18-0.09-0.42,0.08-0.55c0.21-0.16,0.42-0.31,0.63-0.47
			c0.18-0.13,0.42-0.1,0.56,0.08c0.13,0.17,0.1,0.42-0.08,0.56c-0.21,0.16-0.43,0.32-0.64,0.48
			C406.71,72.69,406.63,72.72,406.55,72.72z"/>
	</g>
</g>
<g>
	<path class="st15" d="M539.62,288.81c0,0,15.66-9.5,23.7,1.46c8.87,12.09-12.17,52.51-26.11,37.41c-13.94-15.09,0-10.1,0-10.1
		s6.22,10.28,13.47,0.72c7.49-9.88,9.19-21.23,3.6-23.45c-5.6-2.22-13.1,3.26-13.1,3.26L539.62,288.81z"/>
	<path class="st15" d="M538.09,340.29h-46.33c-0.83,0-1.53-0.64-1.6-1.47L484.81,274c-0.08-0.93,0.66-1.74,1.6-1.74h57.03
		c0.94,0,1.68,0.8,1.6,1.74l-5.35,64.82C539.62,339.65,538.92,340.29,538.09,340.29z"/>
	<path class="st16" d="M509.62,199.45c4.87,4.07,7.6,10.58,7.09,16.9c-0.69,8.48-6.66,15.69-8.19,24.06
		c-1.16,6.3,0.39,13.06,4.18,18.23c-2.63-4.44-2.21-9.29-1.01-14.31c1.2-5.02,3.53-9.68,5.44-14.48s3.45-9.91,2.94-15.05
		C519.42,208.3,515.46,202.4,509.62,199.45z"/>
	<path class="st16" d="M510.87,209.59c-3.65-2.33-6.26-6.25-7-10.52c-0.74-4.27,0.39-8.84,3.04-12.27
		c-4.38,2.56-6.61,7.43-5.85,12.44C501.83,204.25,505.93,208.45,510.87,209.59z"/>
	<path class="st16" d="M526.8,233.02c-4.36,3.38-8.38,7.49-10.36,12.64c-1.98,5.15-1.56,11.49,2.16,15.57
		C517.67,251.24,520.67,240.96,526.8,233.02z"/>
</g>
<g>
	<g>
		<path class="st17" d="M314.4,188.99c-0.29,0.13-0.62-0.01-0.75-0.3l-1.99-4.59l-4.59,1.99c-0.29,0.13-0.62-0.01-0.75-0.3
			l-1.99-4.59l-4.59,1.99c-0.29,0.13-0.62-0.01-0.75-0.3l-1.99-4.59l-4.59,1.99c-0.29,0.13-0.62-0.01-0.75-0.3
			c-0.13-0.29,0.01-0.62,0.3-0.75l5.11-2.21c0.29-0.13,0.62,0.01,0.75,0.3l1.99,4.59l4.59-1.99c0.29-0.13,0.62,0.01,0.75,0.3
			l1.99,4.59l4.59-1.99c0.29-0.13,0.62,0.01,0.75,0.3l2.21,5.11C314.82,188.53,314.69,188.87,314.4,188.99z"/>
	</g>
	<g>
		<path class="st2" d="M108.47,192.65l-6.54-0.87c-0.31-0.04-0.53-0.33-0.49-0.64l0.87-6.54c0.04-0.31,0.33-0.53,0.64-0.49
			l6.54,0.87c0.31,0.04,0.53,0.33,0.49,0.64l-0.87,6.54C109.07,192.47,108.78,192.69,108.47,192.65z M102.65,190.72l5.41,0.72
			l0.72-5.41l-5.41-0.72L102.65,190.72z"/>
	</g>
	<g>
		<path class="st4" d="M218.91,102.38c-0.08,0.06-0.18,0.09-0.28,0.1c-0.2,0.01-0.4-0.08-0.51-0.25l-3.92-5.8
			c-0.11-0.17-0.13-0.39-0.04-0.57c0.09-0.18,0.27-0.31,0.47-0.32l6.98-0.49c0.2-0.01,0.4,0.08,0.51,0.25
			c0.11,0.17,0.13,0.39,0.04,0.57l-3.06,6.29C219.06,102.25,219,102.33,218.91,102.38z M215.7,96.61l2.81,4.16l2.2-4.51L215.7,96.61
			z"/>
	</g>
	<g>
		<path class="st3" d="M486.64,242.32c-0.1,0.02-0.2,0.01-0.29-0.03c-0.19-0.07-0.33-0.24-0.36-0.44l-1.17-6.9
			c-0.03-0.2,0.04-0.4,0.2-0.53c0.16-0.13,0.37-0.17,0.56-0.1l6.56,2.44c0.19,0.07,0.33,0.24,0.36,0.44c0.03,0.2-0.04,0.4-0.2,0.53
			l-5.39,4.46C486.83,242.27,486.73,242.31,486.64,242.32z M486.1,235.74l0.84,4.95l3.87-3.2L486.1,235.74z"/>
	</g>
	<g>
		<path class="st18" d="M325.85,183.08c-0.04,0.09-0.11,0.17-0.19,0.23c-0.17,0.12-0.38,0.14-0.57,0.05l-6.36-2.92
			c-0.19-0.08-0.31-0.26-0.33-0.46c-0.02-0.2,0.07-0.4,0.24-0.52l5.7-4.05c0.17-0.12,0.38-0.14,0.57-0.05
			c0.19,0.08,0.31,0.26,0.33,0.46l0.65,6.96C325.91,182.89,325.89,182.99,325.85,183.08z M320.11,179.82l4.56,2.09l-0.47-5
			L320.11,179.82z"/>
	</g>
	<path class="st3" d="M330.3,75.79c-0.09-0.3-0.41-0.47-0.71-0.38l-2.31,0.69l-0.69-2.31c-0.09-0.3-0.41-0.47-0.71-0.38
		c-0.3,0.09-0.47,0.41-0.38,0.71l0.69,2.31l-2.31,0.69c-0.3,0.09-0.47,0.41-0.38,0.71c0.09,0.3,0.41,0.47,0.71,0.38l2.31-0.69
		l0.69,2.31c0.09,0.3,0.41,0.47,0.71,0.38c0.3-0.09,0.47-0.41,0.38-0.71l-0.69-2.31l2.31-0.69
		C330.22,76.41,330.39,76.09,330.3,75.79z"/>
	<path class="st17" d="M404.83,299.32l-2.13-1.12l1.12-2.13c0.15-0.28,0.04-0.62-0.24-0.77c-0.28-0.15-0.62-0.04-0.77,0.24
		l-1.12,2.13l-2.13-1.12c-0.28-0.15-0.62-0.04-0.77,0.24c-0.15,0.28-0.04,0.62,0.24,0.77l2.13,1.12l-1.12,2.13
		c-0.15,0.28-0.04,0.62,0.24,0.77s0.62,0.04,0.77-0.24l1.12-2.13l2.13,1.12c0.28,0.15,0.62,0.04,0.77-0.24
		C405.22,299.81,405.11,299.47,404.83,299.32z"/>
	<path class="st2" d="M491.83,219.6l-2.18,1.02l-1.02-2.18c-0.13-0.29-0.47-0.41-0.76-0.28c-0.29,0.13-0.41,0.47-0.28,0.76
		l1.02,2.18l-2.18,1.02c-0.29,0.13-0.41,0.47-0.28,0.76c0.13,0.29,0.47,0.41,0.76,0.28l2.18-1.02l1.02,2.18
		c0.13,0.29,0.47,0.41,0.76,0.28c0.29-0.13,0.41-0.47,0.28-0.76l-1.02-2.18l2.18-1.02c0.29-0.13,0.41-0.47,0.28-0.76
		C492.45,219.59,492.12,219.47,491.83,219.6z"/>
</g>
<path class="st14" d="M463.46,338.88H117.09c-6.28,0-11.37-5.09-11.37-11.37v-2.16h369.12v2.16
	C474.84,333.79,469.75,338.88,463.46,338.88z"/>
<path class="st14" d="M446.32,113.26H134.24c-6.28,0-11.37,5.09-11.37,11.37v200.71h334.83V124.63
	C457.69,118.35,452.6,113.26,446.32,113.26z"/>
<rect x="196.87" y="64.52" transform="matrix(-1.836970e-16 1 -1 -1.836970e-16 509.5771 -70.9744)" class="st19" width="186.82" height="309.56"/>
<g>
	<path class="st20" d="M488.07,209.17H304.96c-1.88,0-3.41-1.53-3.41-3.41V90.95c0-1.88,1.53-3.41,3.41-3.41h183.11
		c1.88,0,3.41,1.53,3.41,3.41v114.81C491.48,207.64,489.96,209.17,488.07,209.17z"/>
	<path class="st18" d="M313.16,96.03c0,1.31-1.06,2.38-2.38,2.38s-2.38-1.06-2.38-2.38c0-1.31,1.06-2.38,2.38-2.38
		S313.16,94.72,313.16,96.03z"/>
	<path class="st1" d="M322.01,96.03c0,1.31-1.06,2.38-2.38,2.38c-1.31,0-2.38-1.06-2.38-2.38c0-1.31,1.06-2.38,2.38-2.38
		C320.95,93.66,322.01,94.72,322.01,96.03z"/>
	<path class="st4" d="M330.87,96.03c0,1.31-1.06,2.38-2.38,2.38c-1.31,0-2.38-1.06-2.38-2.38c0-1.31,1.06-2.38,2.38-2.38
		C329.8,93.66,330.87,94.72,330.87,96.03z"/>
	<path class="st21" d="M358.94,142.6h-48.26c-1.26,0-2.27-1.02-2.27-2.27v-32.46c0-1.26,1.02-2.27,2.27-2.27h48.26
		c1.26,0,2.27,1.02,2.27,2.27v32.46C361.22,141.58,360.2,142.6,358.94,142.6z"/>
	<path class="st21" d="M420.05,142.6h-48.26c-1.26,0-2.27-1.02-2.27-2.27v-32.46c0-1.26,1.02-2.27,2.27-2.27h48.26
		c1.26,0,2.27,1.02,2.27,2.27v32.46C422.33,141.58,421.31,142.6,420.05,142.6z"/>
	<path class="st21" d="M481.16,142.6H432.9c-1.26,0-2.27-1.02-2.27-2.27v-32.46c0-1.26,1.02-2.27,2.27-2.27h48.26
		c1.26,0,2.27,1.02,2.27,2.27v32.46C483.43,141.58,482.42,142.6,481.16,142.6z"/>
	<path class="st21" d="M481.47,155.36H371.48c-1.08,0-1.96-0.88-1.96-1.96l0,0c0-1.08,0.88-1.96,1.96-1.96h109.99
		c1.08,0,1.96,0.88,1.96,1.96l0,0C483.43,154.48,482.56,155.36,481.47,155.36z"/>
	<path class="st21" d="M481.47,165.54H371.48c-1.08,0-1.96-0.88-1.96-1.96l0,0c0-1.08,0.88-1.96,1.96-1.96h109.99
		c1.08,0,1.96,0.88,1.96,1.96l0,0C483.43,164.66,482.56,165.54,481.47,165.54z"/>
	<path class="st21" d="M405.46,175.73h-33.98c-1.08,0-1.96-0.88-1.96-1.96l0,0c0-1.08,0.88-1.96,1.96-1.96h33.98
		c1.08,0,1.96,0.88,1.96,1.96l0,0C407.42,174.85,406.54,175.73,405.46,175.73z"/>
	<path class="st1" d="M338.68,196.35h-22.47c-0.72,0-1.3-0.58-1.3-1.3l0,0c0-0.72,0.58-1.3,1.3-1.3h22.47c0.72,0,1.3,0.58,1.3,1.3
		l0,0C339.98,195.77,339.4,196.35,338.68,196.35z"/>
	<path class="st4" d="M384.43,196.35H348.7c-0.72,0-1.3-0.58-1.3-1.3l0,0c0-0.72,0.58-1.3,1.3-1.3h35.73c0.72,0,1.3,0.58,1.3,1.3
		l0,0C385.73,195.77,385.14,196.35,384.43,196.35z"/>
	<path class="st21" d="M400.63,196.35h-6.06c-0.72,0-1.3-0.58-1.3-1.3l0,0c0-0.72,0.58-1.3,1.3-1.3h6.06c0.72,0,1.3,0.58,1.3,1.3
		l0,0C401.93,195.77,401.35,196.35,400.63,196.35z"/>
</g>
<g>
	<path class="st4" d="M341.89,149.08h-71.48c-1.34,0-2.42,1.08-2.42,2.42v13.97c0,1.34,1.08,2.42,2.42,2.42h6.64v6.27l6.27-6.27
		h58.57c1.34,0,2.42-1.08,2.42-2.42V151.5C344.31,150.16,343.23,149.08,341.89,149.08z"/>
	<path class="st22" d="M287.01,156.48h-10.96c-0.67,0-1.21-0.54-1.21-1.21c0-0.67,0.54-1.21,1.21-1.21h10.96
		c0.67,0,1.21,0.54,1.21,1.21C288.22,155.94,287.68,156.48,287.01,156.48z M299.18,161.02c0-0.67-0.54-1.21-1.21-1.21h-21.93
		c-0.67,0-1.21,0.54-1.21,1.21c0,0.67,0.54,1.21,1.21,1.21h21.93C298.64,162.23,299.18,161.69,299.18,161.02z M311.09,161.02
		c0-0.67-0.54-1.21-1.21-1.21h-6.33c-0.67,0-1.21,0.54-1.21,1.21c0,0.67,0.54,1.21,1.21,1.21h6.33
		C310.55,162.23,311.09,161.69,311.09,161.02z M327.83,161.02c0-0.67-0.54-1.21-1.21-1.21h-11.2c-0.67,0-1.21,0.54-1.21,1.21
		c0,0.67,0.54,1.21,1.21,1.21h11.2C327.29,162.23,327.83,161.69,327.83,161.02z M337.33,161.02c0-0.67-0.54-1.21-1.21-1.21h-4.7
		c-0.67,0-1.21,0.54-1.21,1.21c0,0.67,0.54,1.21,1.21,1.21h4.7C336.79,162.23,337.33,161.69,337.33,161.02z M320.13,155.27
		c0-0.67-0.54-1.21-1.21-1.21H293.7c-0.67,0-1.21,0.54-1.21,1.21c0,0.67,0.54,1.21,1.21,1.21h25.22
		C319.58,156.48,320.13,155.94,320.13,155.27z M337.33,155.27c0-0.67-0.54-1.21-1.21-1.21h-11.57c-0.67,0-1.21,0.54-1.21,1.21
		c0,0.67,0.54,1.21,1.21,1.21h11.57C336.79,156.48,337.33,155.94,337.33,155.27z"/>
</g>
<g>
	
		<ellipse transform="matrix(0.9239 -0.3827 0.3827 0.9239 -65.6158 142.3325)" class="st2" cx="324.97" cy="236.1" rx="12.68" ry="12.68"/>
</g>
<g>
	
		<ellipse transform="matrix(0.9239 -0.3827 0.3827 0.9239 -60.8628 166.2279)" class="st2" cx="387.41" cy="236.1" rx="12.68" ry="12.68"/>
</g>
<g>
	
		<ellipse transform="matrix(0.9239 -0.3827 0.3827 0.9239 -63.2393 154.2802)" class="st2" cx="356.19" cy="236.1" rx="12.68" ry="12.68"/>
</g>
<g>
	<path class="st3" d="M393.03,235.4c-0.64,0-1.2-0.45-1.33-1.1c-0.04-0.2-0.21-0.4-0.48-0.4s-0.44,0.2-0.48,0.4
		c-0.14,0.73-0.85,1.21-1.58,1.08c-0.73-0.14-1.22-0.85-1.08-1.58c0.29-1.5,1.61-2.59,3.14-2.59c1.53,0,2.85,1.09,3.14,2.59
		c0.14,0.73-0.34,1.44-1.08,1.58C393.2,235.4,393.12,235.4,393.03,235.4z"/>
</g>
<g>
	<path class="st3" d="M385.4,235.4c-0.64,0-1.2-0.45-1.33-1.1c-0.04-0.2-0.21-0.4-0.48-0.4s-0.44,0.2-0.48,0.4
		c-0.14,0.73-0.85,1.21-1.58,1.08c-0.73-0.14-1.22-0.85-1.08-1.58c0.29-1.5,1.61-2.59,3.14-2.59c1.53,0,2.85,1.09,3.14,2.59
		c0.14,0.73-0.34,1.44-1.08,1.58C385.57,235.4,385.49,235.4,385.4,235.4z"/>
</g>
<g>
	<path class="st3" d="M387.41,244.34c-2.9,0-5.53-1.49-7.04-3.97c-0.39-0.64-0.18-1.47,0.45-1.86c0.64-0.39,1.47-0.19,1.86,0.45
		c1.02,1.67,2.78,2.67,4.73,2.67c1.95,0,3.71-1,4.73-2.67c0.39-0.64,1.22-0.84,1.86-0.45c0.64,0.39,0.84,1.22,0.45,1.86
		C392.94,242.86,390.31,244.34,387.41,244.34z"/>
</g>
<g>
	
		<ellipse transform="matrix(0.7071 -0.7071 0.7071 0.7071 -71.7164 117.2825)" class="st2" cx="105.71" cy="145.21" rx="25.64" ry="25.64"/>
</g>
<g>
	<path class="st3" d="M117.08,143.8c-1.29,0-2.44-0.91-2.69-2.23c-0.08-0.4-0.43-0.8-0.97-0.8c-0.53,0-0.89,0.4-0.97,0.8
		c-0.28,1.48-1.72,2.46-3.2,2.17c-1.48-0.28-2.46-1.72-2.17-3.2c0.58-3.04,3.25-5.25,6.34-5.25c3.1,0,5.76,2.21,6.34,5.25
		c0.28,1.48-0.69,2.92-2.18,3.2C117.43,143.78,117.25,143.8,117.08,143.8z"/>
</g>
<g>
	<path class="st3" d="M94.35,143.8c-0.17,0-0.34-0.02-0.52-0.05c-1.49-0.28-2.46-1.72-2.18-3.2c0.58-3.04,3.25-5.25,6.34-5.25
		c3.09,0,5.76,2.21,6.34,5.25c0.28,1.49-0.69,2.92-2.17,3.2c-1.49,0.29-2.92-0.69-3.2-2.17c-0.08-0.4-0.43-0.8-0.97-0.8
		c-0.53,0-0.89,0.4-0.97,0.8C96.78,142.89,95.63,143.8,94.35,143.8z"/>
</g>
<g>
	<path class="st3" d="M105.71,161.88c-5.86,0-11.19-3.01-14.24-8.04c-0.78-1.29-0.37-2.98,0.92-3.76c1.29-0.78,2.98-0.37,3.76,0.92
		c2.05,3.38,5.63,5.4,9.56,5.4c3.93,0,7.51-2.02,9.56-5.4c0.78-1.29,2.46-1.71,3.76-0.92c1.29,0.78,1.7,2.47,0.92,3.76
		C116.9,158.87,111.58,161.88,105.71,161.88z"/>
</g>
<g>
	<path class="st3" d="M354.29,233.58c0,1.18-0.96,2.14-2.14,2.14c-1.18,0-2.14-0.96-2.14-2.14c0-1.18,0.96-2.14,2.14-2.14
		C353.33,231.44,354.29,232.4,354.29,233.58z"/>
</g>
<g>
	<circle class="st3" cx="360.23" cy="233.58" r="2.14"/>
</g>
<g>
	<path class="st3" d="M330.86,242.99c-0.46,0-0.9-0.23-1.16-0.65c-1.02-1.67-2.78-2.67-4.73-2.67c-1.95,0-3.71,1-4.73,2.67
		c-0.39,0.64-1.22,0.84-1.86,0.45c-0.64-0.39-0.84-1.22-0.45-1.86c1.51-2.49,4.14-3.97,7.04-3.97c2.9,0,5.53,1.49,7.04,3.97
		c0.39,0.64,0.18,1.47-0.45,1.86C331.34,242.93,331.1,242.99,330.86,242.99z"/>
</g>
<g>
	<path class="st3" d="M323.07,233.58c0,1.18-0.96,2.14-2.14,2.14c-1.18,0-2.14-0.96-2.14-2.14c0-1.18,0.96-2.14,2.14-2.14
		C322.11,231.44,323.07,232.4,323.07,233.58z"/>
</g>
<g>
	<circle class="st3" cx="329.01" cy="233.58" r="2.14"/>
</g>
<g>
	<path class="st3" d="M361.3,241.92h-10.22c-0.75,0-1.35-0.61-1.35-1.35c0-0.75,0.61-1.35,1.35-1.35h10.22
		c0.75,0,1.35,0.61,1.35,1.35C362.65,241.32,362.05,241.92,361.3,241.92z"/>
</g>
<g>
	<path class="st23" d="M381.47,261.13h-46.78c-1.5,0-2.71,1.21-2.71,2.71v24.89c0,1.5,1.21,2.71,2.71,2.71h6.52v7.01l7.01-7.01
		h33.26c1.5,0,2.71-1.21,2.71-2.71v-24.89C384.17,262.34,382.96,261.13,381.47,261.13z"/>
	<path class="st24" d="M375.23,276.03c0,1.83-1.48,3.31-3.31,3.31c-1.83,0-3.31-1.48-3.31-3.31s1.48-3.31,3.31-3.31
		C373.75,272.72,375.23,274.2,375.23,276.03z M359.23,272.72c-1.83,0-3.31,1.48-3.31,3.31s1.48,3.31,3.31,3.31s3.31-1.48,3.31-3.31
		S361.06,272.72,359.23,272.72z M346.53,272.72c-1.83,0-3.31,1.48-3.31,3.31s1.48,3.31,3.31,3.31s3.31-1.48,3.31-3.31
		S348.36,272.72,346.53,272.72z"/>
</g>
<path class="st13" d="M291.9,119.58c0,1.15-0.93,2.07-2.07,2.07c-1.15,0-2.07-0.93-2.07-2.07c0-1.15,0.93-2.07,2.07-2.07
	C290.97,117.5,291.9,118.43,291.9,119.58z"/>
<path class="st3" d="M247.53,299.88h-92.77c-5.03,0-9.1-4.07-9.1-9.1V144.29c0-5.03,4.07-9.1,9.1-9.1h92.77c5.03,0,9.1,4.07,9.1,9.1
	v146.48C256.63,295.8,252.56,299.88,247.53,299.88z"/>
<rect x="157.37" y="145.15" transform="matrix(-1.836970e-16 1 -1 -1.836970e-16 390.9504 -11.3457)" class="st19" width="87.55" height="89.3"/>
<path class="st23" d="M229.92,162.45h-26.14c-0.44,0-0.79-0.36-0.79-0.79c0-0.44,0.36-0.79,0.79-0.79h26.14
	c0.44,0,0.79,0.36,0.79,0.79C230.72,162.09,230.36,162.45,229.92,162.45z M219.96,166.89c0-0.44-0.36-0.79-0.79-0.79h-15.39
	c-0.44,0-0.79,0.36-0.79,0.79c0,0.44,0.36,0.79,0.79,0.79h15.39C219.61,167.68,219.96,167.33,219.96,166.89z M231.98,172.13
	c0-0.44-0.36-0.79-0.79-0.79h-27.41c-0.44,0-0.79,0.36-0.79,0.79c0,0.44,0.36,0.79,0.79,0.79h27.41
	C231.63,172.92,231.98,172.56,231.98,172.13z M207.73,177.36c0-0.44-0.36-0.79-0.79-0.79h-3.16c-0.44,0-0.79,0.36-0.79,0.79
	c0,0.44,0.36,0.79,0.79,0.79h3.16C207.38,178.15,207.73,177.8,207.73,177.36z M225.09,166.89c0-0.44-0.36-0.79-0.79-0.79h-1.92
	c-0.44,0-0.79,0.36-0.79,0.79c0,0.44,0.36,0.79,0.79,0.79h1.92C224.73,167.68,225.09,167.33,225.09,166.89z M240.99,166.89
	c0-0.44-0.36-0.79-0.79-0.79h-12.55c-0.44,0-0.79,0.36-0.79,0.79c0,0.44,0.36,0.79,0.79,0.79h12.55
	C240.64,167.68,240.99,167.33,240.99,166.89z M240.99,161.66c0-0.44-0.36-0.79-0.79-0.79h-7.01c-0.44,0-0.79,0.36-0.79,0.79
	c0,0.44,0.36,0.79,0.79,0.79h7.01C240.64,162.45,240.99,162.09,240.99,161.66z M214.06,177.36c0-0.44-0.36-0.79-0.79-0.79h-3.16
	c-0.44,0-0.79,0.36-0.79,0.79c0,0.44,0.36,0.79,0.79,0.79h3.16C213.71,178.15,214.06,177.8,214.06,177.36z"/>
<g>
	<path class="st21" d="M245.8,250.37h-77.93c-0.88,0-1.59-0.71-1.59-1.59s0.71-1.59,1.59-1.59h77.93c0.88,0,1.59,0.71,1.59,1.59
		S246.68,250.37,245.8,250.37z"/>
</g>
<g>
	<path class="st25" d="M167.87,250.37H156.5c-0.88,0-1.59-0.71-1.59-1.59s0.71-1.59,1.59-1.59h11.38c0.88,0,1.59,0.71,1.59,1.59
		S168.75,250.37,167.87,250.37z"/>
</g>
<path class="st26" d="M171.76,248.78c0,2.15-1.74,3.89-3.89,3.89c-2.15,0-3.89-1.74-3.89-3.89s1.74-3.89,3.89-3.89
	C170.02,244.89,171.76,246.63,171.76,248.78z"/>
<circle class="st21" cx="200.84" cy="273.93" r="13.39"/>
<ellipse transform="matrix(0.7071 -0.7071 0.7071 0.7071 -143.9396 200.3629)" class="st21" cx="169.89" cy="273.93" rx="9.82" ry="9.82"/>
<ellipse transform="matrix(0.9735 -0.2285 0.2285 0.9735 -56.4704 60.2215)" class="st21" cx="231.78" cy="273.93" rx="9.82" ry="9.82"/>
<g>
	<defs>
		
			<rect id="SVGID_3_" x="157.37" y="145.15" transform="matrix(-1.836970e-16 1 -1 -1.836970e-16 390.9504 -11.3457)" width="87.55" height="89.3"/>
	</defs>
	<clipPath id="SVGID_4_">
		<use xlink:href="#SVGID_3_"  style="overflow:visible;"/>
	</clipPath>
	<g class="st27">
		<g>
			<path class="st28" d="M161.86,234.42c-2.93,55.47,1.29,124.87,1.29,124.87l-4.44,4.64l17.45,2.08l-0.14-120.49
				c0-0.72,0.63-1.28,1.35-1.2l0,0c0.5,0.06,0.91,0.43,1.03,0.92l29.27,124.59l20,2.38l-8.32-6.38l-27.59-130.88L161.86,234.42z"/>
		</g>
		<g>
			<path class="st29" d="M221.82,197.35c0,0,1.42-5,2.27-5.99c0.85-0.99,3.11-1.17,3.55-1.12c0.71,0.08,1.5,0.53,1.5,0.53
				s1.31-0.92,2-0.62c1.57,0.69,0.03,2.03,0.03,2.03s1.34-0.14,1.66,0.63c0.32,0.76-0.96,1.38-0.96,1.38s0.83-0.18,1.17,0.47
				c0.34,0.65-0.77,1.87-0.77,1.87s1.35,0.11,0.76,1.52c-0.48,1.14-6.87,4.54-6.87,4.54l-1.48,0.59L221.82,197.35z"/>
		</g>
		<path class="st2" d="M221.82,197.35l-14.24,10.85l-3.54-16.1c-0.59-2.66-2.42-4.88-4.92-5.96c-1.76-0.72-4.49-1.6-8.18-2.29
			c-2.98-0.55-16.51-0.96-20.19-0.57c-3.7,0.38-7.24,0.99-8.47,1.83c-3.98,2.73-19.74,26.69-19.63,28.43s16.81,25.45,16.81,25.45
			l3.89-4.25l29.73,6.45l3.42-38l2.4,13.77c0.36,2.06,1.76,3.79,3.71,4.57l0,0c2.32,0.93,4.98,0.34,6.69-1.5l16.88-17.46
			L221.82,197.35z M154.81,214.04l9.76-12.56l-2.05,24.9L154.81,214.04z"/>
		<path class="st30" d="M182.76,208.11l8.18-24.25c-2.98-0.55-6.58-0.97-10.79-1.07c-1.88-0.04-5.72,0.12-9.4,0.5L182.76,208.11z"/>
		<g>
			<path class="st31" d="M190.33,238.12c-0.01,0-0.02,0-0.04,0l-23.2-4.46c-0.11-0.02-0.18-0.12-0.16-0.23
				c0.02-0.11,0.13-0.18,0.23-0.16l23.2,4.46c0.11,0.02,0.18,0.12,0.16,0.23C190.51,238.06,190.43,238.12,190.33,238.12z"/>
		</g>
		<g>
			<path class="st29" d="M167.94,230.35c0,0-4.65-2.72-5.81-1.76c-1.16,0.96-1.01,2.62-1.07,3.18c-0.06,0.56-2,1.22-2.21,3
				c-0.21,1.78-1.67,2.79-1.59,4.27c0.08,1.49,2.51,2.16,3.14,2.32c0.63,0.16,1.65-3.02,1.65-3.02s1.61,0.19,1.93-0.25
				c0.33-0.45,1.45-3.09,1.45-3.09s2.02-0.71,2.28-1.06c0.26-0.35,0.55-1.41,0.55-1.41l-1.14-0.71L167.94,230.35z"/>
		</g>
		<path class="st14" d="M178.61,180.35c0,0-1.49-0.32-2.17,0.44c-0.68,0.76-1.03,8.23,0.17,8.44c1.11,0.19,4.71-3.92,4.71-3.92
			s3.65,4.53,4.81,4.04c1.07-0.45-0.33-8.84-2.72-8.84C181.02,180.51,178.61,180.35,178.61,180.35z"/>
		<path class="st26" d="M193.6,161.65c0,0-0.05,3.79-1.53,5.52l-0.29-6.29L193.6,161.65z"/>
		<g>
			<path class="st29" d="M181.31,184.73c-1.01-0.1-1.87-0.23-2.43-1.16c-1.03-1.71-0.47-3.88-1.54-5.55
				c-0.5-0.78-1.17-1.44-1.75-2.16c-0.9-1.13-1.28-2.49-1.62-3.87c-1.53-6.21,0.79-19.25,10.01-18c9.22,1.25,8.56,11.61,7.69,16.3
				c-0.34,1.82-0.84,3.75-1.8,5.38c-0.49,0.83-1.11,1.61-1.91,2.17c-0.87,0.61-1.89,0.72-2.8,1.23c-1.23,0.69-0.99,2.42-1.13,3.61
				C183.86,184.21,182.83,184.88,181.31,184.73z"/>
		</g>
		<path class="st14" d="M196.34,163.83c-5.52,0.07-15.44-5.04-15.44-5.04c-0.23,3.64-4.62,4.26-4.62,4.26l-0.32,6l-1.11-0.33
			l-1.2-3.03l-0.36,0.3c0,0-3.4-3.92-2.96-5.77c0.44-1.84,2.74-3.85,2.74-3.85l-4.28-0.03l1.08-2.36l3.5,1.82
			c0.78-8.68,21.01-2.26,21.01-2.26c0.89-0.61,1.91-1.28,2.92-1.67c1.01-0.39,2.14-0.55,3.17-0.23c1.03,0.32,1.93,1.19,2.09,2.26
			c0.15,1.03-0.37,2.04-1,2.87c-1.07,1.41-2.49,2.54-4.1,3.27c0.78,0.2,1.71,0.8,1.72,1.61c0.01,0.75-0.55,1.41-1.22,1.74
			C197.27,163.73,197.09,163.82,196.34,163.83z"/>
		<g>
			<path class="st29" d="M174.93,168.3c-0.15,1.46-1.45,2.52-2.91,2.37c-1.46-0.15-2.52-1.45-2.37-2.91
				c0.15-1.46,1.45-2.52,2.91-2.37C174.02,165.54,175.08,166.84,174.93,168.3z"/>
		</g>
		<g>
			<path class="st29" d="M195.23,170.08c-0.15,1.46-1.45,2.52-2.91,2.37c-1.46-0.15-2.52-1.45-2.37-2.91s1.45-2.52,2.91-2.37
				C194.32,167.32,195.38,168.62,195.23,170.08z"/>
		</g>
		<g>
			<path class="st32" d="M185.49,171.69c-0.26,0-0.58-0.15-0.95-0.31c-0.2-0.09-0.41-0.19-0.59-0.24c-0.1-0.03-0.16-0.14-0.13-0.25
				c0.03-0.1,0.14-0.17,0.25-0.13c0.2,0.06,0.42,0.16,0.63,0.26c0.26,0.12,0.73,0.33,0.83,0.27l0,0c0,0,0.02-0.02,0.01-0.11
				c-0.01-0.51-0.36-1.17-0.63-1.7c-0.16-0.3-0.28-0.54-0.33-0.72c-0.1-0.38-0.06-0.78-0.02-1.13c0.01-0.11,0.11-0.19,0.22-0.17
				c0.11,0.01,0.18,0.11,0.17,0.22c-0.04,0.31-0.08,0.67,0.01,0.97c0.04,0.14,0.17,0.38,0.3,0.64c0.29,0.56,0.66,1.26,0.68,1.87
				c0.01,0.21-0.06,0.36-0.19,0.45C185.68,171.67,185.59,171.69,185.49,171.69z"/>
		</g>
		<g>
			<path class="st32" d="M184,173.57c-0.64,0-1.28-0.17-1.83-0.49c-0.73-0.42-1.3-1.07-1.6-1.85c-0.04-0.1,0.01-0.22,0.11-0.26
				c0.1-0.04,0.22,0.01,0.26,0.11c0.27,0.7,0.78,1.28,1.43,1.65c0.65,0.37,1.41,0.51,2.15,0.39c0.11-0.02,0.21,0.06,0.23,0.16
				c0.02,0.11-0.06,0.21-0.17,0.23C184.38,173.56,184.19,173.57,184,173.57z"/>
		</g>
		<g>
			<path class="st32" d="M191.48,171.4c-0.01,0-0.02,0-0.03,0c-0.11-0.02-0.18-0.12-0.16-0.23l0.52-2.98
				c0.02-0.11,0.12-0.19,0.23-0.16c0.11,0.02,0.18,0.12,0.16,0.23l-0.52,2.98C191.66,171.33,191.58,171.4,191.48,171.4z"/>
		</g>
		<g>
			<path class="st32" d="M191.87,169.69c-0.09,0-0.17-0.06-0.19-0.14c-0.03-0.11,0.03-0.22,0.14-0.25c0.49-0.14,0.99-0.21,1.5-0.21
				h0c0.11,0,0.2,0.09,0.2,0.2c0,0.11-0.09,0.2-0.2,0.2c-0.47,0-0.94,0.07-1.39,0.2C191.91,169.69,191.89,169.69,191.87,169.69z"/>
		</g>
		<g>
			<path class="st32" d="M173.61,168.9c-0.03,0-0.06-0.01-0.08-0.02c-0.1-0.05-0.14-0.16-0.1-0.26c0.22-0.48,0.04-1.13-0.41-1.43
				c-0.44-0.29-1.12-0.2-1.47,0.19c-0.07,0.08-0.2,0.09-0.28,0.02c-0.08-0.07-0.09-0.2-0.02-0.28c0.49-0.54,1.37-0.66,1.98-0.26
				c0.61,0.4,0.85,1.26,0.55,1.92C173.75,168.86,173.68,168.9,173.61,168.9z"/>
		</g>
		<g>
			<path class="st32" d="M182.22,179.47c-1.18,0-2.35-0.25-3.44-0.73c-0.1-0.04-0.14-0.16-0.1-0.26c0.04-0.1,0.16-0.14,0.26-0.1
				c1.29,0.57,2.71,0.79,4.11,0.65c0.11-0.01,0.21,0.07,0.22,0.18c0.01,0.11-0.07,0.21-0.18,0.22
				C182.8,179.46,182.51,179.47,182.22,179.47z"/>
		</g>
		<g>
			<path class="st26" d="M184.04,163.79c-0.06,0-0.11-0.02-0.15-0.07c-0.47-0.56-1.18-0.9-1.91-0.91c-0.73,0-1.45,0.29-1.95,0.83
				c-0.07,0.08-0.2,0.09-0.28,0.01c-0.08-0.07-0.09-0.2-0.01-0.28c0.57-0.62,1.42-0.98,2.25-0.96c0.84,0.02,1.66,0.41,2.2,1.05
				c0.07,0.08,0.06,0.21-0.02,0.28C184.13,163.78,184.09,163.79,184.04,163.79z"/>
		</g>
		<g>
			<path class="st26" d="M190.43,165.17c-0.07,0-0.14-0.04-0.18-0.11c-0.3-0.62-0.89-1.1-1.56-1.27c-0.67-0.17-1.41-0.03-1.97,0.38
				c-0.09,0.06-0.21,0.04-0.28-0.04c-0.06-0.09-0.04-0.21,0.04-0.28c0.65-0.47,1.51-0.64,2.3-0.44c0.78,0.2,1.46,0.75,1.82,1.48
				c0.05,0.1,0.01,0.22-0.09,0.27C190.49,165.17,190.46,165.17,190.43,165.17z"/>
		</g>
		<path class="st26" d="M183.55,167c-0.06,0.51-0.52,0.88-1.03,0.81c-0.51-0.06-0.88-0.52-0.81-1.03c0.06-0.51,0.52-0.88,1.03-0.81
			C183.25,166.03,183.61,166.49,183.55,167z"/>
		<path class="st26" d="M188.5,167.8c-0.06,0.51-0.52,0.88-1.03,0.81c-0.51-0.06-0.88-0.52-0.81-1.03c0.06-0.51,0.52-0.88,1.03-0.81
			C188.19,166.83,188.56,167.29,188.5,167.8z"/>
		<g>
			<path class="st32" d="M228.58,195.68c-0.01,0-0.02,0-0.03,0c-0.5-0.05-1.11-1.63-1.44-2.56c-0.04-0.1,0.02-0.22,0.12-0.25
				c0.1-0.04,0.22,0.02,0.25,0.12c0.37,1.07,0.83,2.05,1.06,2.26c0.17-0.37,0.26-1.94,0.24-3.3c0-0.11,0.09-0.2,0.2-0.2c0,0,0,0,0,0
				c0.11,0,0.2,0.09,0.2,0.2c0.01,0.98-0.02,3.3-0.41,3.65C228.73,195.65,228.66,195.68,228.58,195.68z"/>
		</g>
		<polygon class="st3" points="229.14,190.78 238.97,176.85 240.04,177.46 229.67,192.03 		"/>
		<g>
			<path class="st33" d="M184.14,167.95c-0.71,1.29-2.34,1.77-3.63,1.05c-1.29-0.71-1.77-2.34-1.05-3.63
				c0.71-1.29,2.34-1.77,3.63-1.05C184.37,165.03,184.85,166.65,184.14,167.95z"/>
			<path class="st33" d="M190.51,169.17c-0.71,1.29-2.34,1.77-3.63,1.05c-1.29-0.71-1.77-2.34-1.05-3.63
				c0.71-1.29,2.34-1.77,3.63-1.05C190.75,166.25,191.22,167.87,190.51,169.17z"/>
			<path class="st33" d="M184.55,166.86c0.3-0.2,0.75-0.11,0.96,0.18"/>
		</g>
		<g>
			<path class="st31" d="M179.47,235.98c-0.01,0-0.02,0-0.03,0c-0.11-0.02-0.18-0.12-0.16-0.23l3.47-21.31l9.25-27.65
				c0.04-0.1,0.15-0.16,0.25-0.13c0.1,0.03,0.16,0.15,0.13,0.25l-9.24,27.62l-3.47,21.28C179.65,235.91,179.57,235.98,179.47,235.98
				z"/>
		</g>
		<g>
			<path class="st31" d="M177.52,233.14c-0.01,0-0.02,0-0.03,0c-0.11-0.02-0.18-0.12-0.16-0.23l3.12-18.8l1.14-4.07
				c0.03-0.11,0.14-0.17,0.24-0.14c0.11,0.03,0.17,0.14,0.14,0.24l-1.13,4.05l-3.12,18.78C177.7,233.07,177.62,233.14,177.52,233.14
				z"/>
		</g>
		<g>
			<path class="st31" d="M178.81,204.68c-0.07,0-0.14-0.04-0.18-0.11l-9.54-19.31c-0.05-0.1-0.01-0.22,0.09-0.27
				c0.1-0.05,0.22-0.01,0.27,0.09l9.54,19.31c0.05,0.1,0.01,0.22-0.09,0.27C178.87,204.67,178.84,204.68,178.81,204.68z"/>
		</g>
	</g>
</g>
<g>
	<path class="st3" d="M197.76,268.07c-0.98,0-1.78,0.8-1.78,1.78v8.18c0,0.98,0.8,1.78,1.78,1.78c0.98,0,1.78-0.8,1.78-1.78v-8.18
		C199.54,268.86,198.74,268.07,197.76,268.07z"/>
	<path class="st3" d="M203.91,268.07c-0.98,0-1.78,0.8-1.78,1.78v8.18c0,0.98,0.8,1.78,1.78,1.78c0.98,0,1.78-0.8,1.78-1.78v-8.18
		C205.69,268.86,204.89,268.07,203.91,268.07z"/>
	<path class="st3" d="M172.82,270.12c-0.34-0.14-0.73-0.06-0.98,0.2l-2.7,2.7v-2.06c0-0.36-0.22-0.69-0.56-0.83
		c-0.34-0.14-0.73-0.06-0.98,0.2l-2.98,2.98c-0.35,0.35-0.35,0.92,0,1.28l2.98,2.98c0.17,0.17,0.4,0.26,0.64,0.26
		c0.12,0,0.23-0.02,0.35-0.07c0.34-0.14,0.56-0.47,0.56-0.83v-2.06l2.7,2.7c0.17,0.17,0.4,0.26,0.64,0.26
		c0.12,0,0.23-0.02,0.35-0.07c0.34-0.14,0.56-0.47,0.56-0.83v-5.96C173.37,270.59,173.15,270.26,172.82,270.12z"/>
	<path class="st3" d="M237.05,273.29l-2.98-2.98c-0.26-0.26-0.64-0.34-0.98-0.2c-0.34,0.14-0.56,0.47-0.56,0.83v2.06l-2.7-2.7
		c-0.26-0.26-0.64-0.34-0.98-0.2c-0.34,0.14-0.56,0.47-0.56,0.83v5.96c0,0.36,0.22,0.69,0.56,0.83c0.11,0.05,0.23,0.07,0.35,0.07
		c0.23,0,0.47-0.09,0.64-0.26l2.7-2.7v2.06c0,0.36,0.22,0.69,0.56,0.83c0.11,0.05,0.23,0.07,0.35,0.07c0.23,0,0.47-0.09,0.64-0.26
		l2.98-2.98C237.41,274.22,237.41,273.65,237.05,273.29z"/>
</g>
<g>
	<g>
		<g>
			<defs>
				<path id="SVGID_5_" d="M477.38,287.34h-66.35c-1.26,0-2.27-1.02-2.27-2.27v-92.61c0-1.26,1.02-2.27,2.27-2.27h66.35
					c1.26,0,2.27,1.02,2.27,2.27v92.61C479.65,286.32,478.63,287.34,477.38,287.34z"/>
			</defs>
			<clipPath id="SVGID_6_">
				<use xlink:href="#SVGID_5_"  style="overflow:visible;"/>
			</clipPath>
			<rect x="408.75" y="190.18" class="st34" width="70.9" height="6.51"/>
			<rect x="408.75" y="196.69" class="st34" width="70.9" height="3.17"/>
			<rect x="408.75" y="199.86" class="st35" width="70.9" height="3.17"/>
			<rect x="408.75" y="203.04" class="st36" width="70.9" height="3.17"/>
			<rect x="408.75" y="206.21" class="st37" width="70.9" height="3.17"/>
			<rect x="408.75" y="209.38" class="st38" width="70.9" height="3.17"/>
			<rect x="408.75" y="212.56" class="st39" width="70.9" height="3.17"/>
			<rect x="408.75" y="215.73" class="st40" width="70.9" height="3.17"/>
			<rect x="408.75" y="218.9" class="st41" width="70.9" height="3.17"/>
			<rect x="408.75" y="222.08" class="st42" width="70.9" height="3.17"/>
			<rect x="408.75" y="225.25" class="st43" width="70.9" height="3.17"/>
			<rect x="408.75" y="228.42" class="st44" width="70.9" height="3.17"/>
			<rect x="408.75" y="231.6" class="st45" width="70.9" height="3.17"/>
			<rect x="408.75" y="234.77" class="st46" width="70.9" height="3.17"/>
			<rect x="408.75" y="237.94" class="st47" width="70.9" height="3.17"/>
			<rect x="408.75" y="241.12" class="st48" width="70.9" height="3.17"/>
			<rect x="408.75" y="244.29" class="st49" width="70.9" height="3.17"/>
			<rect x="408.75" y="247.46" class="st50" width="70.9" height="3.17"/>
			<rect x="408.75" y="250.64" class="st51" width="70.9" height="3.17"/>
			<rect x="408.75" y="253.81" class="st52" width="70.9" height="3.17"/>
			<rect x="408.75" y="256.98" class="st53" width="70.9" height="3.17"/>
			<rect x="408.75" y="260.16" class="st54" width="70.9" height="3.17"/>
			<rect x="408.75" y="263.33" class="st55" width="70.9" height="3.17"/>
			<rect x="408.75" y="266.5" class="st56" width="70.9" height="3.17"/>
			<rect x="408.75" y="269.68" class="st56" width="70.9" height="17.66"/>
		</g>
	</g>
	<g>
		<g>
			<path class="st57" d="M457.47,201.72h-27.71c-0.44,0-0.79-0.35-0.79-0.79c0-0.44,0.35-0.79,0.79-0.79h27.71
				c0.44,0,0.79,0.35,0.79,0.79C458.26,201.37,457.91,201.72,457.47,201.72z"/>
		</g>
		<g>
			<path class="st3" d="M446.07,207.27h-16.31c-0.44,0-0.79-0.35-0.79-0.79c0-0.44,0.35-0.79,0.79-0.79h16.31
				c0.44,0,0.79,0.35,0.79,0.79C446.87,206.92,446.51,207.27,446.07,207.27z"/>
		</g>
		<g>
			<path class="st18" d="M458.81,212.82h-29.05c-0.44,0-0.79-0.35-0.79-0.79c0-0.44,0.35-0.79,0.79-0.79h29.05
				c0.44,0,0.79,0.35,0.79,0.79C459.6,212.46,459.25,212.82,458.81,212.82z"/>
		</g>
		<g>
			<path class="st57" d="M433.11,218.37h-3.35c-0.44,0-0.79-0.35-0.79-0.79c0-0.44,0.35-0.79,0.79-0.79h3.35
				c0.44,0,0.79,0.35,0.79,0.79C433.9,218.01,433.55,218.37,433.11,218.37z"/>
		</g>
		<g>
			<path class="st1" d="M451.5,207.27h-2.04c-0.44,0-0.79-0.35-0.79-0.79c0-0.44,0.35-0.79,0.79-0.79h2.04
				c0.44,0,0.79,0.35,0.79,0.79C452.3,206.92,451.94,207.27,451.5,207.27z"/>
		</g>
		<g>
			<path class="st57" d="M468.37,207.27h-13.3c-0.44,0-0.79-0.35-0.79-0.79c0-0.44,0.35-0.79,0.79-0.79h13.3
				c0.44,0,0.79,0.35,0.79,0.79C469.16,206.92,468.8,207.27,468.37,207.27z"/>
		</g>
		<g>
			<path class="st1" d="M468.37,201.72h-7.43c-0.44,0-0.79-0.35-0.79-0.79c0-0.44,0.35-0.79,0.79-0.79h7.43
				c0.44,0,0.79,0.35,0.79,0.79C469.16,201.37,468.8,201.72,468.37,201.72z"/>
		</g>
		<g>
			<path class="st2" d="M421.82,201.5c0,1.28-1.04,2.32-2.32,2.32c-1.28,0-2.32-1.04-2.32-2.32c0-1.28,1.04-2.32,2.32-2.32
				C420.78,199.18,421.82,200.22,421.82,201.5z"/>
		</g>
		<g>
			<path class="st1" d="M439.82,218.37h-3.35c-0.44,0-0.79-0.35-0.79-0.79c0-0.44,0.35-0.79,0.79-0.79h3.35
				c0.44,0,0.79,0.35,0.79,0.79C440.61,218.01,440.26,218.37,439.82,218.37z"/>
		</g>
	</g>
	<g>
		<g>
			<path class="st57" d="M457.47,230.97h-27.71c-0.44,0-0.79-0.35-0.79-0.79c0-0.44,0.35-0.79,0.79-0.79h27.71
				c0.44,0,0.79,0.35,0.79,0.79C458.26,230.61,457.91,230.97,457.47,230.97z"/>
		</g>
		<g>
			<path class="st3" d="M446.07,236.51h-16.31c-0.44,0-0.79-0.35-0.79-0.79c0-0.44,0.35-0.79,0.79-0.79h16.31
				c0.44,0,0.79,0.35,0.79,0.79C446.87,236.16,446.51,236.51,446.07,236.51z"/>
		</g>
		<g>
			<path class="st18" d="M458.81,242.06h-29.05c-0.44,0-0.79-0.35-0.79-0.79c0-0.44,0.35-0.79,0.79-0.79h29.05
				c0.44,0,0.79,0.35,0.79,0.79C459.6,241.71,459.25,242.06,458.81,242.06z"/>
		</g>
		<g>
			<path class="st57" d="M433.11,247.61h-3.35c-0.44,0-0.79-0.35-0.79-0.79c0-0.44,0.35-0.79,0.79-0.79h3.35
				c0.44,0,0.79,0.35,0.79,0.79C433.9,247.26,433.55,247.61,433.11,247.61z"/>
		</g>
		<g>
			<path class="st1" d="M451.5,236.51h-2.04c-0.44,0-0.79-0.35-0.79-0.79c0-0.44,0.35-0.79,0.79-0.79h2.04
				c0.44,0,0.79,0.35,0.79,0.79C452.3,236.16,451.94,236.51,451.5,236.51z"/>
		</g>
		<g>
			<path class="st57" d="M468.37,236.51h-13.3c-0.44,0-0.79-0.35-0.79-0.79c0-0.44,0.35-0.79,0.79-0.79h13.3
				c0.44,0,0.79,0.35,0.79,0.79C469.16,236.16,468.8,236.51,468.37,236.51z"/>
		</g>
		<g>
			<path class="st1" d="M468.37,230.97h-7.43c-0.44,0-0.79-0.35-0.79-0.79c0-0.44,0.35-0.79,0.79-0.79h7.43
				c0.44,0,0.79,0.35,0.79,0.79C469.16,230.61,468.8,230.97,468.37,230.97z"/>
		</g>
		<g>
			<path class="st2" d="M421.82,230.75c0,1.28-1.04,2.32-2.32,2.32c-1.28,0-2.32-1.04-2.32-2.32c0-1.28,1.04-2.32,2.32-2.32
				C420.78,228.42,421.82,229.46,421.82,230.75z"/>
		</g>
		<g>
			<path class="st1" d="M439.82,247.61h-3.35c-0.44,0-0.79-0.35-0.79-0.79c0-0.44,0.35-0.79,0.79-0.79h3.35
				c0.44,0,0.79,0.35,0.79,0.79C440.61,247.26,440.26,247.61,439.82,247.61z"/>
		</g>
	</g>
	<g>
		<g>
			<path class="st57" d="M457.47,260.21h-27.71c-0.44,0-0.79-0.35-0.79-0.79c0-0.44,0.35-0.79,0.79-0.79h27.71
				c0.44,0,0.79,0.35,0.79,0.79C458.26,259.85,457.91,260.21,457.47,260.21z"/>
		</g>
		<g>
			<path class="st3" d="M446.07,265.76h-16.31c-0.44,0-0.79-0.35-0.79-0.79c0-0.44,0.35-0.79,0.79-0.79h16.31
				c0.44,0,0.79,0.35,0.79,0.79C446.87,265.4,446.51,265.76,446.07,265.76z"/>
		</g>
		<g>
			<path class="st18" d="M458.81,271.31h-29.05c-0.44,0-0.79-0.35-0.79-0.79c0-0.44,0.35-0.79,0.79-0.79h29.05
				c0.44,0,0.79,0.35,0.79,0.79C459.6,270.95,459.25,271.31,458.81,271.31z"/>
		</g>
		<g>
			<path class="st57" d="M433.11,276.85h-3.35c-0.44,0-0.79-0.35-0.79-0.79c0-0.44,0.35-0.79,0.79-0.79h3.35
				c0.44,0,0.79,0.35,0.79,0.79C433.9,276.5,433.55,276.85,433.11,276.85z"/>
		</g>
		<g>
			<path class="st1" d="M451.5,265.76h-2.04c-0.44,0-0.79-0.35-0.79-0.79c0-0.44,0.35-0.79,0.79-0.79h2.04
				c0.44,0,0.79,0.35,0.79,0.79C452.3,265.4,451.94,265.76,451.5,265.76z"/>
		</g>
		<g>
			<path class="st57" d="M468.37,265.76h-13.3c-0.44,0-0.79-0.35-0.79-0.79c0-0.44,0.35-0.79,0.79-0.79h13.3
				c0.44,0,0.79,0.35,0.79,0.79C469.16,265.4,468.8,265.76,468.37,265.76z"/>
		</g>
		<g>
			<path class="st1" d="M468.37,260.21h-7.43c-0.44,0-0.79-0.35-0.79-0.79c0-0.44,0.35-0.79,0.79-0.79h7.43
				c0.44,0,0.79,0.35,0.79,0.79C469.16,259.85,468.8,260.21,468.37,260.21z"/>
		</g>
		<g>
			<path class="st2" d="M421.82,259.99c0,1.28-1.04,2.32-2.32,2.32c-1.28,0-2.32-1.04-2.32-2.32c0-1.28,1.04-2.32,2.32-2.32
				C420.78,257.67,421.82,258.71,421.82,259.99z"/>
		</g>
		<g>
			<path class="st1" d="M439.82,276.85h-3.35c-0.44,0-0.79-0.35-0.79-0.79c0-0.44,0.35-0.79,0.79-0.79h3.35
				c0.44,0,0.79,0.35,0.79,0.79C440.61,276.5,440.26,276.85,439.82,276.85z"/>
		</g>
	</g>
</g>
<g>
	<path class="st14" d="M284.07,180.38c2.25,2.19,3.8,5.36,5.14,8.56c1.06,2.53,2.05,5.27,1.97,8.14c-0.07,2.73-1.12,5.32-2.6,7.28
		c-1.48,1.95-3.37,3.32-5.34,4.36c-3.66,1.94-7.99,2.75-11.5,0.39c-2.85-1.92-4.72-5.66-5.77-9.57c-0.65-2.44-1.04-5.03-0.92-7.6
		c0.16-3.56,1.4-6.87,3.49-9.21C272.47,178.33,279.6,176.04,284.07,180.38z"/>
	<g>
		<path class="st29" d="M278.06,204.38c1.22-0.06,2.2-1.08,2.14-2.3c-0.06-1.37,0.18-2.65,2.42-3.68c4.69-2.16,4.8-19.6-3.86-19.21
			c-8.65,0.4-7.59,12.15-7.39,15.39c0.2,3.24,3.09,3.92,3.86,5.05c0.34,0.5,0.45,1.52,0.46,2.49
			C275.71,203.42,276.78,204.45,278.06,204.38L278.06,204.38z"/>
	</g>
	<g>
		<path class="st29" d="M284.63,192.17c0.05,1.06,0.84,1.88,1.76,1.84c0.92-0.05,1.62-0.94,1.56-2c-0.05-1.06-0.84-1.88-1.76-1.84
			C285.27,190.21,284.57,191.11,284.63,192.17z"/>
	</g>
	<g>
		<path class="st29" d="M269.03,191.47c0.05,1.06,0.84,1.88,1.76,1.84c0.92-0.05,1.62-0.94,1.56-2c-0.05-1.06-0.84-1.88-1.76-1.84
			C269.68,189.51,268.98,190.41,269.03,191.47z"/>
	</g>
	<g>
		<g>
			<path class="st26" d="M279.75,190.07c0.47,0.01,0.85,0.4,0.84,0.87c-0.01,0.47-0.4,0.85-0.87,0.84c-0.47-0.01-0.85-0.4-0.84-0.87
				C278.88,190.43,279.28,190.06,279.75,190.07z M273.67,190.79c-0.01,0.47,0.37,0.86,0.84,0.87c0.47,0.01,0.86-0.37,0.87-0.84
				c0.01-0.47-0.37-0.86-0.84-0.87C274.07,189.95,273.68,190.32,273.67,190.79z"/>
		</g>
	</g>
	<g>
		<path class="st26" d="M281.55,188.86c-0.05,0-0.1-0.02-0.14-0.06c-0.52-0.52-1.37-0.72-2.06-0.47c-0.11,0.04-0.22-0.02-0.25-0.12
			c-0.04-0.1,0.02-0.22,0.12-0.25c0.85-0.3,1.85-0.07,2.48,0.57c0.08,0.08,0.08,0.2,0,0.28
			C281.65,188.84,281.6,188.86,281.55,188.86z"/>
	</g>
	<g>
		<path class="st26" d="M274.09,188.58c-0.07,0-0.13-0.03-0.17-0.09c-0.06-0.09-0.03-0.22,0.07-0.27c0.78-0.48,1.82-0.52,2.64-0.11
			c0.1,0.05,0.14,0.17,0.09,0.27c-0.05,0.1-0.17,0.14-0.27,0.09c-0.7-0.35-1.58-0.31-2.25,0.1
			C274.16,188.57,274.12,188.58,274.09,188.58z"/>
	</g>
	<g>
		<path class="st32" d="M277.63,193.97c-0.05,0-0.1-0.01-0.16-0.02c-0.21-0.06-0.4-0.22-0.48-0.42c-0.13-0.32-0.04-0.66,0.02-0.91
			l0.55-2.18c0.03-0.11,0.13-0.17,0.24-0.14c0.11,0.03,0.17,0.13,0.14,0.24l-0.55,2.18c-0.06,0.26-0.11,0.48-0.04,0.67
			c0.03,0.08,0.12,0.16,0.21,0.18c0.05,0.01,0.09,0.01,0.12-0.02c0.09-0.07,0.21-0.05,0.28,0.03c0.07,0.09,0.05,0.21-0.03,0.28
			C277.85,193.94,277.74,193.97,277.63,193.97z"/>
	</g>
	<g>
		<path class="st32" d="M277.59,195.56c-0.81,0-1.63-0.28-2.27-0.78c-0.09-0.07-0.1-0.19-0.03-0.28c0.07-0.09,0.19-0.1,0.28-0.03
			c0.64,0.5,1.47,0.75,2.28,0.69c0.81-0.06,1.59-0.44,2.14-1.03c0.08-0.08,0.2-0.08,0.28-0.01c0.08,0.07,0.08,0.2,0.01,0.28
			c-0.62,0.66-1.5,1.08-2.4,1.15C277.77,195.56,277.68,195.56,277.59,195.56z"/>
	</g>
	<g>
		<path class="st32" d="M271.28,192.27c-0.11,0-0.19-0.08-0.2-0.19l-0.07-1.45c-0.01-0.11,0.08-0.2,0.19-0.21
			c0.12-0.01,0.2,0.08,0.21,0.19l0.07,1.45c0.01,0.11-0.08,0.2-0.19,0.21C271.29,192.27,271.28,192.27,271.28,192.27z"/>
	</g>
	<g>
		<path class="st32" d="M285.46,193.02c-0.02,0-0.05,0-0.08-0.01c-0.1-0.04-0.15-0.16-0.11-0.26l0.43-1.06
			c0.04-0.1,0.15-0.15,0.26-0.11c0.1,0.04,0.15,0.16,0.11,0.26l-0.43,1.06C285.61,192.97,285.54,193.02,285.46,193.02z"/>
	</g>
	<g>
		<path class="st58" d="M265.08,207.22c-2.25,1.2-6.24,22.79-6.24,22.79l-7.39-0.71c0,0,1.69,4,7.98,6.3
			c7.4,2.71,9.8-18.82,9.8-18.82L265.08,207.22z"/>
		<g>
			<path class="st58" d="M270.55,200.82l0.74,3.71c0,0,7.2,2.95,12.2-0.17l0.43-3.54H270.55z"/>
		</g>
		<g>
			<path class="st26" d="M279.41,249.15c0.09-0.88-0.6-1.65-1.48-1.65c-0.62,0-1.18,0.38-1.4,0.96l-32.88,86.81l-7.14-0.12
				l30.33-96.85c10.41-3.43,22.03,0.25,22.03,0.25s3.6,11.54,1.12,27.86c-2.48,16.33-13.64,69.38-13.64,69.38l-6.18-0.1
				L279.41,249.15z"/>
			<polygon class="st23" points="242.28,338.88 229.97,338.88 236.51,335.16 243.65,335.28 			"/>
			<polygon class="st23" points="269.82,338.88 270.16,335.71 276.34,335.81 280.44,338.88 			"/>
		</g>
		<path class="st58" d="M289.7,206.21c1.78,1.41,16.85,20.18,16.67,21.71c-0.18,1.53-13.38,15.15-13.38,15.15l-2.62-4.88l8.06-9.84
			l-10.84-11.19L289.7,206.21z"/>
		<path class="st58" d="M283.5,204.36c0,0,4.72,0.93,6.21,1.85c0.58,0.36-1.26,23.12-1.26,23.12l3.91,15.77
			c0,0-18.68,3.45-29.54-1.68l5.68-13.97c0,0-3.54-21.84-3.41-22.22c0.13-0.38,6.21-2.69,6.21-2.69L283.5,204.36z"/>
		<path class="st59" d="M265.86,212.2c-0.58,1.52-0.69,3.22-0.3,4.8c0.3,1.2,0.9,2.37,1.87,3.14c0.11,0.92,0.11,1.95,0.22,2.87"/>
		<path class="st59" d="M289.77,211.61c1.05,1.85,0.87,4.32-0.44,6"/>
		<path class="st59" d="M282.12,204.25c-2.93,0.6-6.31,0.7-9.37,0.27"/>
	</g>
	<g>
		<g>
			<path class="st14" d="M285.46,235.79h-15.42v1.79h14.39c0.57,0,1.03-0.46,1.03-1.03V235.79z"/>
			<path class="st14" d="M244.1,237.58h27.16c0.45,0,0.77-0.37,0.72-0.82l-2.29-19.33c-0.11-0.9-0.92-1.63-1.83-1.63h-25.53
				c-0.9,0-1.55,0.73-1.44,1.63l2.29,19.33C243.25,237.22,243.65,237.58,244.1,237.58z"/>
			<g>
				<path class="st60" d="M246.97,236.05h23.07c0.15,0,0.26-0.12,0.26-0.26s-0.12-0.26-0.26-0.26h-23.07
					c-0.15,0-0.26,0.12-0.26,0.26S246.82,236.05,246.97,236.05z"/>
			</g>
			<g>
				<path class="st60" d="M253.36,225.63c0,0.9,0.73,1.63,1.63,1.63c0.9,0,1.63-0.73,1.63-1.63c0-0.9-0.73-1.63-1.63-1.63
					C254.09,224,253.36,224.73,253.36,225.63z"/>
			</g>
		</g>
		<g>
			<path class="st29" d="M242.08,228.8c0,0-3.18,1.81-3.01,2.82c0.17,1.01,1.2,1.48,1.5,1.71c0.31,0.23,0.04,1.59,1.01,2.32
				c0.97,0.73,1.07,1.93,1.97,2.39c0.9,0.46,2.12-0.74,2.43-1.06c0.31-0.32-1.22-2-1.22-2s0.66-0.88,0.51-1.22
				c-0.15-0.34-1.32-1.9-1.32-1.9s0.27-1.43,0.15-1.7c-0.12-0.27-0.65-0.8-0.65-0.8l-0.8,0.43L242.08,228.8z"/>
		</g>
	</g>
	<g>
		<path class="st29" d="M288.07,238.33c0,0,3.28-1.26,3.93-0.52c0.65,0.74,0.37,1.79,0.35,2.16c-0.02,0.37,1.16,1,1.11,2.16
			c-0.05,1.17,0.78,1.97,0.57,2.92c-0.21,0.95-1.84,1.12-2.27,1.16c-0.42,0.04-0.74-2.12-0.74-2.12s-1.05-0.05-1.22-0.37
			c-0.16-0.32-0.61-2.14-0.61-2.14s-1.22-0.67-1.35-0.93s-0.2-0.97-0.2-0.97l0.81-0.33L288.07,238.33z"/>
	</g>
	<path class="st14" d="M286.4,188.56c0.31,0.63,0.17,1.46-0.34,1.95c-0.34,0.33-0.81,0.49-1.17,0.8c-0.47,0.4-0.73,1.01-0.82,1.62
		c-0.08,0.61,0,1.24,0.11,1.84c-0.92-0.77-1.2-2.06-0.98-3.24c0.22-1.18,0.84-2.24,1.46-3.27c-1.64-0.16-3.09-1.4-3.5-2.99
		c-3.21,1.48-6.59,2.13-10.12,2.23c0.42-1.84,0.93-3.8,1.87-5.44c0.94-1.64,2.48-3.04,4.35-3.35c1.6-0.26,3.23,0.3,4.67,1.06
		c1.65,0.87,3.2,2.06,4.12,3.68C286.97,185.06,287.37,186.96,286.4,188.56z"/>
</g>
</svg>
