<?xml version="1.0" encoding="utf-8"?>
<!-- Generator: Adobe Illustrator 25.0.1, SVG Export Plug-In . SVG Version: 6.00 Build 0)  -->
<svg version="1.1" id="Layer_1" xmlns="http://www.w3.org/2000/svg" xmlns:xlink="http://www.w3.org/1999/xlink" x="0px" y="0px"
	 viewBox="0 0 137.64 123.64" style="enable-background:new 0 0 137.64 123.64;" xml:space="preserve">
<style type="text/css">
	.st0{fill:#E9F2FA;}
	.st1{fill:#E57025;}
</style>
<g>
	<path class="st0" d="M115.53,61.38l-12.88-22.3c-0.01-0.02-0.03-0.04-0.05-0.07c-0.05-0.08-0.11-0.16-0.17-0.24
		c-0.05-0.07-0.1-0.13-0.16-0.19c-0.06-0.06-0.12-0.11-0.18-0.17c-0.07-0.06-0.14-0.12-0.21-0.17c-0.06-0.05-0.13-0.08-0.2-0.12
		c-0.08-0.05-0.16-0.09-0.24-0.13c-0.07-0.03-0.15-0.06-0.22-0.08c-0.09-0.03-0.18-0.06-0.27-0.08c-0.07-0.02-0.15-0.03-0.22-0.04
		c-0.1-0.01-0.2-0.03-0.3-0.03c-0.03,0-0.05-0.01-0.08-0.01H73.28c-1.09-2.98-3.93-5.12-7.28-5.12c-4.29,0-7.78,3.49-7.78,7.78
		c0,4.29,3.49,7.78,7.78,7.78c3.35,0,6.19-2.14,7.28-5.12h25.53l9.03,15.65H54.41H37.23c-0.39-1.06-0.98-2.02-1.75-2.8l16.11-27.91
		h27.67c1.09,2.98,3.93,5.12,7.28,5.12c4.29,0,7.78-3.49,7.78-7.78c0-4.29-3.49-7.78-7.78-7.78c-3.35,0-6.19,2.14-7.28,5.12H48.51
		L30.63,53.67c-0.23-0.02-0.45-0.07-0.68-0.07c-4.29,0-7.78,3.49-7.78,7.78c0,4.29,3.49,7.78,7.78,7.78c0.23,0,0.45-0.05,0.68-0.07
		l17.89,30.98h30.74c1.09,2.98,3.93,5.12,7.28,5.12c4.29,0,7.78-3.49,7.78-7.78c0-4.29-3.49-7.78-7.78-7.78
		c-3.35,0-6.19,2.14-7.28,5.12H51.59L35.47,66.84c0.78-0.79,1.36-1.74,1.75-2.8h17.18h53.44l-9.03,15.65H73.28
		c-1.09-2.98-3.93-5.12-7.28-5.12c-4.29,0-7.78,3.49-7.78,7.78c0,4.29,3.49,7.78,7.78,7.78c3.35,0,6.19-2.14,7.28-5.12h27.06
		c0,0,0,0,0.01,0c0.01,0,0.01,0,0.02,0c0.21,0,0.41-0.03,0.6-0.08c0.06-0.01,0.11-0.03,0.17-0.05c0.15-0.05,0.29-0.1,0.42-0.17
		c0.06-0.03,0.11-0.06,0.17-0.09c0.16-0.1,0.31-0.21,0.44-0.33c0.02-0.02,0.04-0.03,0.06-0.05c0.15-0.15,0.28-0.32,0.39-0.51
		c0.01-0.02,0.03-0.03,0.04-0.05L115.53,61.38z M66,42.87c-1.36,0-2.46-1.1-2.46-2.46c0-1.36,1.1-2.46,2.46-2.46
		c1.36,0,2.46,1.1,2.46,2.46C68.46,41.77,67.36,42.87,66,42.87z M86.54,22.89c1.36,0,2.46,1.1,2.46,2.46c0,1.36-1.1,2.46-2.46,2.46
		c-1.36,0-2.46-1.1-2.46-2.46C84.08,23.99,85.18,22.89,86.54,22.89z M29.94,63.84c-1.36,0-2.46-1.1-2.46-2.46
		c0-1.36,1.1-2.46,2.46-2.46c1.36,0,2.46,1.1,2.46,2.46C32.4,62.74,31.3,63.84,29.94,63.84z M86.54,94.95c1.36,0,2.46,1.1,2.46,2.46
		c0,1.36-1.1,2.46-2.46,2.46c-1.36,0-2.46-1.1-2.46-2.46C84.08,96.06,85.18,94.95,86.54,94.95z M66,84.81
		c-1.36,0-2.46-1.1-2.46-2.46c0-1.36,1.1-2.46,2.46-2.46c1.36,0,2.46,1.1,2.46,2.46C68.46,83.71,67.36,84.81,66,84.81z"/>
	<g>
		<g>
			<path class="st1" d="M98.35,112.84H38.93L9.22,61.38L38.93,9.92h59.43l29.71,51.46L98.35,112.84z M42,107.52h53.28l26.64-46.14
				L95.28,15.24H42L15.36,61.38L42,107.52z"/>
		</g>
	</g>
</g>
</svg>
