<?xml version="1.0" encoding="utf-8"?>
<!-- Generator: Adobe Illustrator 25.0.1, SVG Export Plug-In . SVG Version: 6.00 Build 0)  -->
<svg version="1.1" id="Layer_1" xmlns="http://www.w3.org/2000/svg" xmlns:xlink="http://www.w3.org/1999/xlink" x="0px" y="0px"
	 viewBox="0 0 1920 439" style="enable-background:new 0 0 1920 439;" xml:space="preserve">
<style type="text/css">
	.st0{fill:none;stroke:#E8F2FC;stroke-width:3;stroke-linecap:round;stroke-dasharray:16.8244,15.8347;}
	.st1{clip-path:url(#SVGID_2_);}
	.st2{fill:none;stroke:#E8F2FC;stroke-width:3;stroke-linecap:round;stroke-dasharray:17,16;}
	.st3{fill:none;stroke:#E8F2FC;stroke-width:3;stroke-linecap:round;}
	.st4{fill:none;stroke:#E8F2FC;stroke-width:3;stroke-linecap:round;stroke-dasharray:16.982,15.9831;}
	.st5{fill:none;stroke:#E8F2FC;stroke-width:3;stroke-linecap:round;stroke-dasharray:17.8389,16.7895;}
	.st6{fill:#FFFFFF;}
	.st7{fill:#DEDEDE;}
	.st8{fill:none;stroke:#000000;stroke-width:3;}
	.st9{fill:#FFFFFF;stroke:#000000;stroke-width:3;}
	.st10{fill:#060918;}
	.st11{fill:#E57022;}
	.st12{fill:none;stroke:#000000;stroke-width:3;stroke-linecap:round;stroke-miterlimit:10;}
	.st13{clip-path:url(#SVGID_2_);fill:none;stroke:#FFFFFF;stroke-width:3;stroke-linecap:round;stroke-dasharray:17,14;}
	.st14{clip-path:url(#SVGID_2_);fill:#EDEDED;}
	.st15{clip-path:url(#SVGID_2_);fill:#060918;}
	.st16{fill:none;stroke:#020202;stroke-width:3;stroke-linecap:round;stroke-linejoin:round;}
	.st17{fill:#F5F5F5;}
	.st18{fill:#3B94EC;}
	.st19{fill:#3B94EC;stroke:#000000;stroke-width:3;stroke-miterlimit:10;}
	.st20{fill:#3381E0;}
	.st21{clip-path:url(#SVGID_2_);fill:#FFFFFF;}
	.st22{clip-path:url(#SVGID_2_);fill:#DEDEDE;}
	.st23{clip-path:url(#SVGID_2_);fill:none;stroke:#000000;stroke-width:3;}
	.st24{clip-path:url(#SVGID_2_);fill:#E57022;}
	.st25{clip-path:url(#SVGID_2_);fill:#FFFFFF;stroke:#000000;stroke-width:3;}
	.st26{clip-path:url(#SVGID_2_);fill:#FFFFFF;stroke:#000000;stroke-width:3;stroke-linecap:round;}
	.st27{clip-path:url(#SVGID_2_);fill:none;stroke:#FFFFFF;stroke-width:3;stroke-linecap:round;stroke-dasharray:17,16;}
	.st28{fill:#E8F2FC;}
	.st29{fill:#FFFFFF;stroke:#020202;stroke-width:3;stroke-linecap:round;stroke-linejoin:round;}
	.st30{fill:none;stroke:#020202;stroke-width:3;stroke-miterlimit:10;}
	.st31{fill:none;stroke:#000000;stroke-width:3;stroke-linecap:round;}
	.st32{fill:#FFFFFF;stroke:#070707;stroke-width:3;stroke-linecap:round;}
	.st33{fill:none;stroke:#070707;stroke-width:3;stroke-linecap:round;}
	.st34{fill:#060918;stroke:#000000;stroke-width:3;stroke-miterlimit:10;}
	.st35{fill:#FFFFFF;stroke:#FFFFFF;stroke-width:3;stroke-linecap:round;stroke-linejoin:round;}
	.st36{fill:none;stroke:#FFFFFF;stroke-width:3;stroke-linecap:round;stroke-miterlimit:10;}
	.st37{fill:#FFFFFF;stroke:#000000;stroke-width:3;stroke-linecap:round;stroke-linejoin:round;}
	.st38{fill:#E8F2FC;stroke:#000000;stroke-width:3;stroke-linecap:round;stroke-linejoin:round;}
	.st39{fill:#060918;stroke:#010200;stroke-width:3;}
	.st40{fill:#EDEDED;}
	.st41{fill:none;stroke:#000000;stroke-width:3;stroke-miterlimit:10;}
	.st42{fill:#E8F2FC;stroke:#000000;stroke-width:3;stroke-miterlimit:10;}
	.st43{fill:#FFFFFF;stroke:#050505;stroke-width:3;stroke-linecap:round;stroke-linejoin:round;stroke-miterlimit:10;}
</style>
<g>
	<line class="st0" x1="155.96" y1="325.6" x2="154.25" y2="205.03"/>
	<g>
		<defs>
			<polyline id="SVGID_1_" points="1451.19,439.19 1451.19,-0.18 482.84,-0.18 482.84,439.19 			"/>
		</defs>
		<clipPath id="SVGID_2_">
			<use xlink:href="#SVGID_1_"  style="overflow:visible;"/>
		</clipPath>
		<g class="st1">
			<path class="st2" d="M1486.97,207.78h-165.44c-3.6,0-6.52,2.87-6.52,6.42v88.5c0,3.54,2.92,6.42,6.52,6.42h205.69"/>
			<g>
				<g>
					<line class="st3" x1="1214.58" y1="377.61" x2="1224.36" y2="377.61"/>
					<line class="st4" x1="1242.74" y1="377.61" x2="1534.38" y2="377.61"/>
					<line class="st3" x1="1543.57" y1="377.61" x2="1553.35" y2="377.61"/>
				</g>
			</g>
			<g>
				<g>
					<line class="st3" x1="1238.84" y1="180.79" x2="1238.84" y2="190.42"/>
					<path class="st5" d="M1238.84,209.43v30.27c0,5.32-4.38,9.63-9.78,9.63h-124.14c-5.4,0-9.78,4.31-9.78,9.63v109.02
						c0,5.32,4.38,9.63,9.78,9.63h37.11"/>
					<line class="st3" x1="1154.19" y1="377.61" x2="1163.97" y2="377.61"/>
				</g>
			</g>
			<g>
				<g>
					<line class="st3" x1="437.59" y1="386.59" x2="447.36" y2="386.59"/>
					<path class="st0" d="M465.58,386.59h27.44c5.4,0,9.78-4.31,9.78-9.63v-38.5c0-5.32,4.38-9.63,9.78-9.63h31.03
						c5.4,0,9.78-4.31,9.78-9.63c0-8.69,0-14.62,0-23.24c0-3.56,2.91-6.47,6.52-6.47h49.84c3.6,0,6.52-2.87,6.52-6.42v-74.35
						c0-3.55-2.92-6.42-6.52-6.42h-91.06c-3.6,0-6.52-2.87-6.52-6.42v-28.33c0-5.32,4.38-9.63,9.78-9.63h295.81h178.58
						c5.4,0,9.78-4.31,9.78-9.63V116.3c0-5.32,4.38-9.63,9.78-9.63h229.26c5.4,0,9.78,4.31,9.78,9.63v53.83"/>
					<line class="st3" x1="1254.94" y1="179.09" x2="1254.94" y2="188.72"/>
				</g>
			</g>
			<path class="st2" d="M1587-275.23h-165.44c-3.6,0-6.52,2.87-6.52,6.42v88.5c0,3.54,2.92,6.42,6.52,6.42h205.69"/>
		</g>
		<g class="st1">
			<path class="st6" d="M1196.04,302.41v-14.4h-23.06h-1.15h-23.06v14.4c0,7.87-6,14.35-13.74,15.29v0.13h36.8h1.15h36.79v-0.13
				C1202.04,316.77,1196.04,310.29,1196.04,302.41z"/>
			<path class="st7" d="M1172.98,288.02h-1.15h-23.06v14.4c0,2.18-0.48,4.26-1.31,6.14h49.88c-0.83-1.88-1.31-3.95-1.31-6.14v-14.4
				H1172.98z"/>
			<path class="st8" d="M1196.04,302.41v-14.4h-23.06h-1.15h-23.06v14.4c0,7.87-6,14.35-13.74,15.29v0.13h36.8h1.15h36.79v-0.13
				C1202.04,316.77,1196.04,310.29,1196.04,302.41z"/>
			<path class="st9" d="M1274.09,289.9c0,4.17-3.43,7.55-7.67,7.55h-188.04c-4.23,0-7.67-3.38-7.67-7.55V187.78
				c0-4.17,3.44-7.55,7.67-7.55h188.04c4.23,0,7.67,3.37,7.67,7.55V289.9z"/>
			<path class="st9" d="M1274.09,270.79c0,4.17-3.43,7.54-7.67,7.54h-188.04c-4.23,0-7.67-3.38-7.67-7.54V168.65
				c0-4.17,3.44-7.55,7.67-7.55h188.04c4.23,0,7.67,3.38,7.67,7.55V270.79z"/>
			<rect x="1080.16" y="169.66" class="st10" width="184.5" height="99.62"/>
			<path class="st9" d="M1223.22,324.08c0,2.45-2.02,4.45-4.51,4.45h-92.61c-2.49,0-4.52-2-4.52-4.45v-1.8
				c0-2.46,2.03-4.45,4.52-4.45h92.61c2.49,0,4.51,1.99,4.51,4.45V324.08z"/>
		</g>
		<g class="st1">
			<path class="st11" d="M1206.37,358.58c-10.06-9.9-26.37-9.9-36.43,0c-10.06,9.9-10.06,25.96,0,35.86c10.06,9.9,26.37,9.9,36.43,0
				l-18.21-17.93L1206.37,358.58z"/>
			<path class="st12" d="M1206.37,358.58c-10.06-9.9-26.37-9.9-36.43,0c-10.06,9.9-10.06,25.96,0,35.86c10.06,9.9,26.37,9.9,36.43,0
				l-18.21-17.93L1206.37,358.58z"/>
			<path class="st6" d="M1189.85,362.02c0,2.09-1.72,3.78-3.84,3.78c-2.12,0-3.84-1.69-3.84-3.78c0-2.09,1.72-3.78,3.84-3.78
				C1188.13,358.25,1189.85,359.94,1189.85,362.02z"/>
		</g>
		<path class="st13" d="M1227.57,170.79v44.38c0,6.89-5.67,12.47-12.67,12.47h-21.07c-7,0-12.67-5.58-12.67-12.47v-6.83
			c0-6.89-5.67-12.47-12.67-12.47h-34.26c-7,0-12.67,5.58-12.67,12.47v29.78c0,6.89-5.67,12.47-12.67,12.47h-27.61"/>
		<path class="st14" d="M1061.8,139.19c0-5.34-4.4-9.68-9.83-9.68c-3.09,0-5.85,1.4-7.65,3.6c-1.8-2.2-4.55-3.6-7.64-3.6
			c-5.43,0-9.83,4.33-9.83,9.68c0,8.58,12.94,16.03,17.09,16.55c0.23,0.04,0.57,0.04,0.77,0
			C1048.86,155.22,1061.8,147.77,1061.8,139.19z"/>
		<path class="st15" d="M634.28,147.06c-2.96,0-5.6,1.35-7.33,3.45c-1.73-2.11-4.36-3.45-7.33-3.45c-5.2,0-9.42,4.15-9.42,9.28
			c0,8.22,12.41,15.36,16.39,15.87c0.22,0.04,0.54,0.04,0.73,0c3.98-0.51,16.39-7.65,16.39-15.87
			C643.71,151.22,639.48,147.06,634.28,147.06z"/>
		<path class="st14" d="M518.25,278.37c0.44-0.88,1.73-0.88,2.17,0l3.89,7.77c0.34,0.67,1,1.15,1.75,1.25l8.71,1.25
			c0.99,0.14,1.39,1.34,0.67,2.03l-6.3,6.05c-0.55,0.52-0.8,1.29-0.67,2.03l1.49,8.54c0.17,0.97-0.87,1.71-1.75,1.25l-7.79-4.03
			c-0.68-0.35-1.49-0.35-2.17,0l-7.79,4.03c-0.89,0.46-1.92-0.28-1.75-1.25l1.49-8.54c0.13-0.74-0.12-1.5-0.67-2.03l-6.3-6.05
			c-0.72-0.69-0.32-1.89,0.67-2.03l8.71-1.25c0.76-0.11,1.41-0.58,1.75-1.25L518.25,278.37z"/>
		<path class="st14" d="M1282.63,390.39c0.49-0.97,1.88-0.97,2.37,0l4.25,8.48c0.37,0.73,1.09,1.25,1.91,1.37l9.5,1.36
			c1.08,0.15,1.51,1.46,0.73,2.21l-6.87,6.6c-0.6,0.57-0.88,1.4-0.73,2.21l1.62,9.31c0.18,1.06-0.95,1.87-1.91,1.37l-8.5-4.4
			c-0.74-0.38-1.63-0.38-2.37,0l-8.5,4.4c-0.96,0.5-2.1-0.31-1.91-1.37l1.62-9.31c0.14-0.81-0.14-1.64-0.73-2.21l-6.88-6.6
			c-0.78-0.75-0.35-2.06,0.73-2.21l9.5-1.36c0.82-0.12,1.54-0.63,1.91-1.37L1282.63,390.39z"/>
		<g class="st1">
			<g>
				<path class="st7" d="M1110.27,362.53l-7.93-8.12l-7.93,8.12l-7.93-8.12l-7.93,8.12v-24.81c0-8.62,7.1-15.61,15.86-15.61
					c8.76,0,15.86,6.99,15.86,15.61V362.53z"/>
			</g>
		</g>
		<g class="st1">
			<polyline class="st12" points="1051.59,293.2 1044.14,306.33 1036.69,293.2 			"/>
			<line class="st12" x1="1044.14" y1="306.33" x2="1044.14" y2="255.47"/>
		</g>
		<g class="st1">
			<polygon class="st6" points="1364.75,280.97 1356.81,272.08 1344.36,272.13 1361.17,233.53 1381.56,242.36 			"/>
			<polygon class="st6" points="1402.99,280.2 1410.55,271.01 1423,270.55 1404.6,232.66 1384.6,242.3 			"/>
			<polygon class="st6" points="1364.75,280.97 1356.81,272.08 1344.36,272.13 1361.17,233.53 1381.56,242.36 			"/>
			<polygon class="st6" points="1402.99,280.2 1410.55,271.01 1423,270.55 1404.6,232.66 1384.6,242.3 			"/>
			<polygon class="st16" points="1364.75,280.97 1356.81,272.08 1344.36,272.13 1361.17,233.53 1381.56,242.36 			"/>
			<polygon class="st16" points="1402.99,280.2 1410.55,271.01 1423,270.55 1404.6,232.66 1384.6,242.3 			"/>
			<polygon class="st7" points="1354.84,248.06 1354.98,258.32 1371.61,256.12 1374.25,259.13 1381.56,242.36 1361.17,233.53 			"/>
			<polygon class="st7" points="1410.98,245.79 1404.6,232.66 1384.6,242.3 1392.28,258.13 1393.87,256.42 1410.43,259.06 			"/>
			<polygon class="st16" points="1364.75,280.97 1356.81,272.08 1344.36,272.13 1361.17,233.53 1381.56,242.36 			"/>
			<polygon class="st16" points="1402.99,280.2 1410.55,271.01 1423,270.55 1404.6,232.66 1384.6,242.3 			"/>
			<polygon class="st11" points="1425.53,219.01 1411.11,227.46 1410.43,243.96 1393.87,241.32 1382.57,253.53 1371.61,241.02 
				1354.98,243.23 1354.75,226.71 1340.58,217.88 1351.19,205.08 1346.09,189.35 1362.57,186.26 1368.95,170.98 1383.59,179.04 
				1398.45,171.37 1404.41,186.81 1420.8,190.34 1415.27,205.94 			"/>
			<path class="st17" d="M1360.29,210.92c-0.25-12.03,9.46-21.97,21.67-22.22c12.22-0.25,22.33,9.31,22.58,21.33
				c0.25,12.03-9.45,21.98-21.67,22.22C1370.65,232.5,1360.54,222.95,1360.29,210.92z"/>
		</g>
		<g class="st1">
			<path class="st18" d="M584.6,108.67c-1.3-2.11-3.37-3.6-5.73-4.22c-0.79-0.21-1.62-0.32-2.46-0.32h-6.11l-9.62,32.48
				c12.89-2.57,20.18-11.05,24.22-18.71C586.44,114.98,586.33,111.48,584.6,108.67z M581.1,115.96
				c-3.49,7.15-9.58,12.91-16.76,15.06l5.68-22.66l6.39-0.03c0.46,0,0.92,0.06,1.36,0.18c1.33,0.35,2.46,1.18,3.17,2.33
				C581.89,112.39,581.95,114.35,581.1,115.96z"/>
			<path class="st18" d="M518.92,104.13h-6.11c-3.35,0-6.45,1.72-8.19,4.54c-1.74,2.82-1.84,6.32-0.3,9.24
				c3.82,7.23,10.53,15.19,22.11,18.22c0.69,0.18,1.39,0.34,2.11,0.49L518.92,104.13z M508.11,115.97
				c-0.85-1.61-0.79-3.57,0.16-5.12c0.95-1.55,2.69-2.51,4.53-2.51l5.83,0.16l5.61,22.62C517.6,128.38,511.59,122.54,508.11,115.97z
				"/>
			<path class="st16" d="M570.3,104.13h6.11c3.35,0,6.45,1.72,8.19,4.54c1.74,2.82,1.84,6.32,0.3,9.24
				c-4.04,7.65-11.34,16.14-24.22,18.71L570.3,104.13z"/>
			<path class="st16" d="M518.92,104.13h-6.11c-3.35,0-6.45,1.72-8.19,4.54c-1.74,2.82-1.84,6.32-0.3,9.24
				c4.05,7.65,11.34,16.14,24.22,18.71L518.92,104.13z"/>
			<rect x="537.76" y="146.76" class="st18" width="13.7" height="19.38"/>
			<path class="st19" d="M565.04,169.7c-2.28-5.84-9.11-7.38-17.19-7.38h-6.48c-8.08,0-14.91,1.54-17.19,7.38
				c-0.52,1.34-0.81,4.1-0.81,5.94v0.53h42.47v-0.53C565.85,173.8,565.57,171.04,565.04,169.7z"/>
			<path class="st18" d="M544.61,150.64c14.02,0,25.49-24.21,26.41-54.84h-26.42h-26.42C519.12,126.42,530.59,150.64,544.61,150.64z
				"/>
			<path class="st20" d="M571.02,95.79h-12.43c-1.34,26.67-10.7,47.94-22.6,51.65c2.7,2.07,5.6,3.19,8.62,3.19
				C558.63,150.64,570.1,126.42,571.02,95.79z"/>
			<path class="st16" d="M544.61,150.64c14.02,0,25.49-24.21,26.41-54.84h-26.42h-26.42C519.12,126.42,530.59,150.64,544.61,150.64z
				"/>
		</g>
		<path class="st21" d="M655.21,205.33c8.9-11.93,32.56-49.9,32.56-49.9c3.48-3.39,11.93-8.77,18.64-3.37
			c6.84,5.51-0.22,22.07-0.22,22.07c4.35-4.9,18.15-22.79,27.34-13.16c6.63,6.95,0.62,14.99,0.62,14.99s5.4-4.59,11.19,0.46
			c6.98,6.09-0.94,16.52-0.94,16.52l-4.41,6.98c0,0,4.57-3.48,9.95,2.14c4.87,5.1-1.81,14.29-1.81,14.29l-26.09,40.23
			c0.07,13.53,0,18.55,0,29.52c0,26.92-14.62,30.44-14.62,30.44v44.2l-62.62,0.15V239.76C644.82,239.76,643.54,220.97,655.21,205.33
			z"/>
		<path class="st22" d="M740.01,199.93l4.41-6.98c0,0,7.92-10.43,0.94-16.52c-5.79-5.05-11.19-0.46-11.19-0.46s6-8.04-0.62-14.99
			c-9.19-9.63-23,8.26-27.34,13.16c0,0,7.06-16.57,0.22-22.07c-6.72-5.41-15.17-0.03-18.64,3.37c0,0-10.57,16.97-20.24,31.78v28.43
			c0,15.42,12.75,27.97,28.41,27.97h34.53l17.67-27.26c0,0,6.68-9.18,1.81-14.29C744.58,196.45,740.01,199.93,740.01,199.93z"/>
		<g class="st1">
			<path class="st7" d="M709.3,158.2c-0.26-2.47-1.09-4.68-2.89-6.13c-5.51-4.44-12.19-1.61-16.33,1.42
				c4.5,6.49-1.53,20.65-1.53,20.65C691.95,170.33,701.09,158.61,709.3,158.2z"/>
			<path class="st7" d="M749.96,202.07c-5.38-5.62-9.95-2.14-9.95-2.14l4.41-6.98c0,0,7.92-10.43,0.94-16.52
				c-5.79-5.05-11.19-0.46-11.19-0.46s6-8.04-0.62-14.99c-4.83-5.06-10.92-2.52-16.26,1.73c4.29,6.48-0.76,13.26-0.76,13.26
				s5.4-4.59,11.19,0.46c6.98,6.09-0.94,16.52-0.94,16.52l-4.41,6.98c0,0,4.57-3.48,9.95,2.14c4.87,5.1-1.81,14.29-1.81,14.29
				l-13.56,20.91l-2.9-0.45l-20.91,25.42v11.78l0.21,17.74c0,0-3.17,12.6-3.55,13.24c-0.38,0.63-12.82,9.56-12.82,9.56l12.82,1.99
				v44.2l-44.98,0.11v0.04l62.62-0.15v-44.2c0,0,14.62-3.52,14.62-30.44c0-10.97,0.07-15.98,0-29.52l26.09-40.23
				C748.15,216.36,754.82,207.18,749.96,202.07z"/>
		</g>
		<path class="st23" d="M655.21,205.33c8.9-11.93,32.56-49.9,32.56-49.9c3.48-3.39,11.93-8.77,18.64-3.37
			c6.84,5.51-0.22,22.07-0.22,22.07c4.35-4.9,18.15-22.79,27.34-13.16c6.63,6.95,0.62,14.99,0.62,14.99s5.4-4.59,11.19,0.46
			c6.98,6.09-0.94,16.52-0.94,16.52l-4.41,6.98c0,0,4.57-3.48,9.95,2.14c4.87,5.1-1.81,14.29-1.81,14.29l-26.09,40.23
			c0.07,13.53,0,18.55,0,29.52c0,26.92-14.62,30.44-14.62,30.44v44.2l-62.62,0.15V239.76C644.82,239.76,643.54,220.97,655.21,205.33
			z"/>
		<path class="st21" d="M682.77,91.79c0-15.42,12.75-27.97,28.41-27.97h214.45c15.67,0,28.42,12.55,28.42,27.97v123.86
			c0,15.42-12.75,27.97-28.42,27.97H711.19c-15.66,0-28.41-12.55-28.41-27.97V91.79z"/>
		<g class="st1">
			<path class="st9" d="M711.19,63.81c-15.66,0-28.41,12.55-28.41,27.97v123.86c0,15.42,12.75,27.97,28.41,27.97h214.45
				c15.67,0,28.42-12.55,28.42-27.97V91.79c0-15.42-12.75-27.97-28.42-27.97H711.19z"/>
		</g>
		<polygon class="st24" points="910.72,229.63 704.68,230.12 704.68,77.62 910.72,77.62 		"/>
		<path class="st23" d="M682.77,91.79c0-15.42,12.75-27.97,28.41-27.97h214.45c15.67,0,28.42,12.55,28.42,27.97v123.86
			c0,15.42-12.75,27.97-28.42,27.97H711.19c-15.66,0-28.41-12.55-28.41-27.97V91.79z"/>
		<path class="st25" d="M924.16,153.99c0,4.53,3.72,8.22,8.35,8.22c4.61,0,8.35-3.69,8.35-8.22c0-4.55-3.74-8.22-8.35-8.22
			C927.89,145.77,924.16,149.44,924.16,153.99z"/>
		<path class="st26" d="M660.12,249.96l45.55-41.98c0,0,8.44-9.59,17.05-1.38c7.33,6.98,2.81,16.69-1.86,21.95l-27.73,33.7v23.09
			c0,0,1.4,14.88-4.66,21.38c-3.87,4.15-7.93,6.69-11.5,7.83"/>
		<path class="st21" d="M713.45,369.84c1.12,0,2.03-0.89,2.02-2l-0.1-31.46c0-1.1-0.92-1.99-2.04-1.99l-75.28,0.21
			c-1.12,0-2.03,0.91-2.02,2.01l0.1,31.46c0,1.11,0.92,1.99,2.04,1.99L713.45,369.84z"/>
		<path class="st22" d="M715.38,336.38c0-1.1-0.92-1.99-2.04-1.99l-18.24,0.05c0.91,0.2,1.59,0.99,1.59,1.94l0.1,31.46
			c0,1.11-0.9,2-2.02,2l-57.03,0.16c0.15,0.03,0.29,0.05,0.45,0.05l75.28-0.22c1.12,0,2.03-0.89,2.02-2L715.38,336.38z"/>
		<path class="st23" d="M713.45,369.84c1.12,0,2.03-0.89,2.02-2l-0.1-31.46c0-1.1-0.92-1.99-2.04-1.99l-75.28,0.21
			c-1.12,0-2.03,0.91-2.02,2.01l0.1,31.46c0,1.11,0.92,1.99,2.04,1.99L713.45,369.84z"/>
		<path class="st15" d="M724.89,468.09l-0.19-105.19c0-1.1-0.91-1.99-2.03-1.99l-88.87,0.25c-1.12,0.01-2.02,0.91-2.02,2
			l0.19,105.19L724.89,468.09z"/>
		<path class="st23" d="M724.89,468.09l-0.19-105.19c0-1.1-0.91-1.99-2.03-1.99l-88.87,0.25c-1.12,0.01-2.02,0.91-2.02,2
			l0.19,105.19L724.89,468.09z"/>
		<path class="st27" d="M714.89,122.52h29.04c5.24,0,9.49,3.99,9.49,8.92v76.87c0,4.92,4.25,8.92,9.49,8.92h38.47
			c5.24,0,9.49-3.99,9.49-10.71V103.26c0-3.13,4.25-15.5,9.49-15.5h44.83c5.24,0,9.49,3.99,9.49,8.92v71.98
			c0,4.92,4.25,8.92,9.49,8.92h29.55"/>
		<g class="st1">
			<path class="st28" d="M749.01,107.15c-7.91-7.78-20.73-7.78-28.63,0c-7.91,7.78-7.91,20.4,0,28.19c7.91,7.78,20.73,7.78,28.63,0
				l-14.32-14.09L749.01,107.15z"/>
		</g>
		<path class="st21" d="M1015.67,330.53l-15.33-41.35c0,0,9.7-12.86,0.11-38.73c-5.8-15.64-10.05-27.11-10.05-27.11
			s-0.66-1.92-1.85-4.67l-6.61-17.9c-1.78-4.96-6.34-8.11-12.18-6.91c-4.37,0.9-6.53,3.56-7.92,6.94c-0.9,1.37-1.54-0.05-1.54-0.05
			c-2.66-5.31-6.62-7.93-11.73-7.57c-6.49,0.46-9.61,3.98-10.39,9.25c-0.23,1.54-1.71,1.18-2.02,0.28l-0.16-0.17
			c-2.78-5.01-9.42-8.16-15.46-6c-6.84,2.46-9.14,10.17-7.14,15.58c0.45,1.63,0.29,2.44-0.92,2.88c-2.01,0.72-3.1-2.66-3.1-2.66
			s-13.77-32.95-18.45-42.93c-2.69-5.72-7.46-16.32-9.24-18.97c-7.02-10.55-19.41-0.88-17.15,6.09c0.68,2.09,32.66,96.3,37,108.03
			c0.66,1.79,1.28,3.43,1.87,5c-13.24-3.23-34.43-8.73-35.75-9.14c-9.61-3.07-16.15,0.09-19.13,5.15
			c-2.93,4.96-0.14,11.17,3.96,14.23c13.38,6.56,43.38,17.82,59.09,24.13c14.22,5.58,25.03,7.66,32.99,8.1l14.45,38.97
			L1015.67,330.53z"/>
		<path class="st22" d="M951.55,294.96c0,0-6.36,2.27-11.95,3.47c-7.95-0.45-18.76-2.52-32.99-8.1
			c-15.5-6.23-44.91-17.27-58.54-23.86c-2.12,4.79,0.58,10.44,4.43,13.32c13.38,6.56,43.38,17.82,59.09,24.13
			c14.22,5.58,25.03,7.66,32.99,8.1l14.45,38.97l11.69-4.22L951.55,294.96z"/>
		<g class="st1">
			<path class="st7" d="M1000.34,289.19c0,0,9.7-12.86,0.11-38.73c-5.8-15.64-10.05-27.11-10.05-27.11s-0.66-1.92-1.85-4.67
				l-6.61-17.9c-1.78-4.96-6.34-8.11-12.18-6.91c-3.02,0.62-4.97,2.1-6.36,4.06c3.02,1.03,5.3,3.45,6.44,6.62l6.6,17.9
				c1.2,2.76,1.85,4.67,1.85,4.67s4.25,11.47,10.05,27.11c9.59,25.87-0.11,38.73-0.11,38.73l15.33,41.35l-44.73,16.16l0.19,0.52
				l56.64-20.46L1000.34,289.19z"/>
		</g>
		<path class="st23" d="M1015.67,330.53l-15.33-41.35c0,0,9.7-12.86,0.11-38.73c-5.8-15.64-10.05-27.11-10.05-27.11
			s-0.66-1.92-1.85-4.67l-6.61-17.9c-1.78-4.96-6.34-8.11-12.18-6.91c-4.37,0.9-6.53,3.56-7.92,6.94c-0.9,1.37-1.54-0.05-1.54-0.05
			c-2.66-5.31-6.62-7.93-11.73-7.57c-6.49,0.46-9.61,3.98-10.39,9.25c-0.23,1.54-1.71,1.18-2.02,0.28l-0.16-0.17
			c-2.78-5.01-9.42-8.16-15.46-6c-6.84,2.46-9.14,10.17-7.14,15.58c0.45,1.63,0.29,2.44-0.92,2.88c-2.01,0.72-3.1-2.66-3.1-2.66
			s-13.77-32.95-18.45-42.93c-2.69-5.72-7.46-16.32-9.24-18.97c-7.02-10.55-19.41-0.88-17.15,6.09c0.68,2.09,32.66,96.3,37,108.03
			c0.66,1.79,1.28,3.43,1.87,5c-13.24-3.23-34.43-8.73-35.75-9.14c-9.61-3.07-16.15,0.09-19.13,5.15
			c-2.93,4.96-0.14,11.17,3.96,14.23c13.38,6.56,43.38,17.82,59.09,24.13c14.22,5.58,25.03,7.66,32.99,8.1l14.45,38.97
			L1015.67,330.53z"/>
		<path class="st21" d="M955.15,356.56c-1.04,0.36-2.19-0.15-2.57-1.19l-10.75-29.28c-0.38-1.02,0.16-2.16,1.21-2.53l65.63-23.36
			c1.04-0.36,2.2,0.17,2.57,1.19l10.76,29.28c0.37,1.03-0.17,2.16-1.21,2.53L955.15,356.56z"/>
		<path class="st22" d="M1022,330.67l-10.76-29.28c-0.37-1.03-1.53-1.55-2.57-1.19l-65.63,23.36c-0.43,0.15-0.77,0.44-1,0.79
			l43.56-15.5c1.04-0.36,2.2,0.17,2.57,1.19l10.76,29.28c0.22,0.61,0.11,1.24-0.22,1.74l22.07-7.86
			C1021.83,332.83,1022.37,331.71,1022,330.67z"/>
		<path class="st23" d="M955.15,356.56c-1.04,0.36-2.19-0.15-2.57-1.19l-10.75-29.28c-0.38-1.02,0.16-2.16,1.21-2.53l65.63-23.36
			c1.04-0.36,2.2,0.17,2.57,1.19l10.76,29.28c0.37,1.03-0.17,2.16-1.21,2.53L955.15,356.56z"/>
		<path class="st15" d="M1027.98,323.88c-0.38-1.02-1.53-1.56-2.57-1.19l-78.69,28.01c-1.04,0.37-1.59,1.51-1.21,2.53l41,117.22
			h93.82L1027.98,323.88z"/>
		<path class="st23" d="M1027.98,323.88c-0.38-1.02-1.53-1.56-2.57-1.19l-78.69,28.01c-1.04,0.37-1.59,1.51-1.21,2.53l41,117.22
			h93.82L1027.98,323.88z"/>
		<g class="st1">
			<path class="st18" d="M593.65,387.51c0.12,15.51-12.56,28.17-28.31,28.29c-15.75,0.12-28.62-12.36-28.73-27.87
				c-0.12-15.51,12.56-28.17,28.31-28.29C580.66,359.53,593.53,372.01,593.65,387.51z"/>
			<path class="st16" d="M593.65,387.51c0.12,15.51-12.56,28.17-28.31,28.29c-15.75,0.12-28.62-12.36-28.73-27.87
				c-0.12-15.51,12.56-28.17,28.31-28.29C580.66,359.53,593.53,372.01,593.65,387.51z"/>
			<path class="st29" d="M575.67,387.64c0.04,5.74-4.64,10.42-10.47,10.46c-5.83,0.04-10.58-4.57-10.63-10.31
				c-0.04-5.73,4.64-10.42,10.47-10.46C570.87,377.29,575.63,381.91,575.67,387.64z"/>
			<g>
				<polyline class="st29" points="564.94,363.88 564.86,353.49 564.94,363.88 				"/>
				<polyline class="st29" points="565.31,411.57 565.38,421.95 565.31,411.57 				"/>
				<polyline class="st29" points="589.35,387.54 599.9,387.47 589.35,387.54 				"/>
				<polyline class="st29" points="540.9,387.9 530.35,387.98 540.9,387.9 				"/>
			</g>
		</g>
		<g class="st1">
			<ellipse class="st10" cx="608.41" cy="279.2" rx="25.46" ry="25.06"/>
			<ellipse class="st30" cx="608.41" cy="279.2" rx="25.46" ry="25.06"/>
			<ellipse class="st6" cx="608.41" cy="279.2" rx="17.7" ry="17.42"/>
			<path class="st31" d="M602.62,274.52c2.32-1.1,4.15-2.47,5.5-4.1h1.26v17.56"/>
		</g>
		<g class="st1">
			<path class="st18" d="M1182.43,107.1c-0.92,0-1.68-0.74-1.68-1.65l0-5.28c0-0.91,0.75-1.65,1.67-1.65h7.14
				c0.92,0,1.68,0.74,1.67,1.65l0,5.28c0,0.91-0.75,1.65-1.68,1.65L1182.43,107.1z"/>
			<path class="st18" d="M1144.24,69.51c0,0.91,0.75,1.65,1.68,1.65l5.36,0c0.93,0,1.67-0.74,1.67-1.65l0-7.03
				c0-0.91-0.75-1.65-1.68-1.65l-5.37,0c-0.93,0-1.67,0.74-1.67,1.65L1144.24,69.51z"/>
			<path class="st32" d="M1168.43,74.86c-0.96,0.95-0.96,2.49,0,3.44l5.6,5.51c0.96,0.95,2.53,0.95,3.49,0l7.44-7.33
				c0.96-0.95,0.96-2.49,0-3.44l-5.6-5.51c-0.97-0.95-2.53-0.95-3.49,0L1168.43,74.86z"/>
			<path class="st18" d="M1174.94,127.73c-14.12,13.9-37.01,13.9-51.13-0.01c-14.12-13.9-14.12-36.43,0-50.33
				c14.12-13.9,37.01-13.9,51.13,0C1189.06,91.3,1189.06,113.83,1174.94,127.73z"/>
			<path class="st33" d="M1174.94,127.73c-14.12,13.9-37.01,13.9-51.13-0.01c-14.12-13.9-14.12-36.43,0-50.33
				c14.12-13.9,37.01-13.9,51.13,0C1189.06,91.3,1189.06,113.83,1174.94,127.73z"/>
			<path class="st6" d="M1169.43,122.3c-11.07,10.9-29.02,10.9-40.1,0c-11.07-10.9-11.08-28.57,0-39.47
				c11.08-10.9,29.03-10.9,40.1,0C1180.5,93.73,1180.5,111.4,1169.43,122.3z"/>
			<g>
				<line class="st32" x1="1148.53" y1="85.09" x2="1149.55" y2="102.77"/>
				<polyline class="st32" points="1161.37,101.84 1149.39,102.31 1149.46,101.53 				"/>
				<path class="st18" d="M1151.9,104.98c-1.39,1.37-3.65,1.37-5.04,0c-1.39-1.37-1.39-3.59,0-4.97c1.39-1.37,3.65-1.37,5.04,0
					C1153.29,101.38,1153.29,103.6,1151.9,104.98z"/>
				<line class="st32" x1="1164.8" y1="87.31" x2="1161.85" y2="90.22"/>
				<line class="st32" x1="1133.95" y1="117.67" x2="1136.9" y2="114.77"/>
				<line class="st32" x1="1164.8" y1="117.67" x2="1161.85" y2="114.77"/>
				<line class="st32" x1="1133.96" y1="87.31" x2="1136.9" y2="90.21"/>
			</g>
			<polygon class="st32" points="1197.39,75.95 1176.41,55.3 1170.63,60.99 1191.61,81.64 			"/>
		</g>
		<g class="st1">
			<path class="st28" d="M1306.75,125.88c1.37-0.26,2.69-0.69,3.93-1.27c0.81-0.37,1.79-0.23,2.39,0.42
				c1.14,1.24,3.09,1.33,4.34,0.2l0.14-0.13c1.21-1.08,1.3-2.93,0.19-4.13c-0.57-0.61-0.62-1.54-0.15-2.22
				c0.8-1.19,1.45-2.48,1.93-3.85c0.27-0.78,1.05-1.26,1.88-1.23c1.65,0.08,3.06-1.18,3.13-2.81l0.01-0.32
				c0.08-1.59-1.17-2.93-2.78-3c-0.83-0.04-1.52-0.65-1.69-1.46c-0.28-1.38-0.75-2.69-1.36-3.92c-0.39-0.79-0.3-1.75,0.35-2.34
				c1.22-1.09,1.3-2.95,0.19-4.15l-0.2-0.22c-1.09-1.19-2.96-1.27-4.16-0.19c-0.61,0.55-1.53,0.63-2.22,0.19
				c-1.16-0.74-2.42-1.35-3.76-1.79c-0.86-0.29-1.5-1.04-1.46-1.93c0.08-1.66-1.23-3.06-2.91-3.14l-0.14-0.01
				c-1.68-0.08-3.1,1.2-3.18,2.85c-0.04,0.84-0.62,1.56-1.45,1.74c-1.36,0.3-2.66,0.75-3.88,1.35c-0.82,0.4-1.81,0.21-2.42-0.45
				c-1.16-1.25-3.13-1.34-4.4-0.2c-1.27,1.15-1.35,3.09-0.19,4.35c0.63,0.68,0.6,1.71,0.11,2.5c-0.65,1.03-1.18,2.14-1.59,3.31
				c-0.31,0.89-1.22,1.42-2.18,1.38c-1.72-0.08-3.18,1.23-3.25,2.92c-0.08,1.71,1.3,3.13,3.04,3.21c0.94,0.05,1.67,0.77,1.88,1.67
				c0.26,1.15,0.65,2.26,1.14,3.31c0.42,0.9,0.24,1.98-0.5,2.65c-1.27,1.14-1.36,3.08-0.2,4.33c1.17,1.26,3.15,1.32,4.44,0.17
				c0.69-0.62,1.74-0.59,2.53-0.09c1.04,0.66,2.16,1.21,3.34,1.63c0.88,0.31,1.45,1.16,1.4,2.08c-0.08,1.7,1.28,3.13,3.01,3.21
				c1.7,0.08,3.13-1.22,3.21-2.88C1305.33,126.77,1305.92,126.05,1306.75,125.88z M1303.08,115.7c-3.48-0.21-6.13-3.16-5.92-6.59
				c0.21-3.43,3.21-6.04,6.69-5.83c3.49,0.21,6.14,3.16,5.92,6.59C1309.56,113.3,1306.57,115.91,1303.08,115.7z"/>
			<path class="st34" d="M1360.71,91.33c-0.49-0.89-0.27-2.01,0.53-2.65c1.01-0.79,1.94-1.66,2.8-2.57
				c0.72-0.76,1.88-0.96,2.77-0.41l1.55,0.93c1.46,0.88,3.39,0.43,4.29-1.01c0.9-1.44,0.44-3.33-1.03-4.22l-1.5-0.91
				c-0.88-0.53-1.25-1.6-0.87-2.54c0.48-1.18,0.87-2.39,1.16-3.63c0.25-1.03,1.15-1.79,2.22-1.77l1.63,0.04
				c1.72,0.04,3.15-1.29,3.2-2.98c0.05-1.7-1.31-3.1-3.03-3.15l-1.52-0.04c-1.03-0.02-1.89-0.78-2.03-1.78
				c-0.18-1.27-0.45-2.53-0.83-3.79c-0.31-1.02,0.05-2.17,1.01-2.68l1.19-0.64c1.51-0.81,2.07-2.67,1.25-4.15
				c-0.82-1.49-2.71-2.04-4.23-1.23l-1.07,0.57c-0.93,0.5-2.07,0.2-2.72-0.62c-0.83-1.06-1.74-2.03-2.7-2.93
				c-0.78-0.73-1.04-1.89-0.48-2.8l0.55-0.89c0.9-1.44,0.44-3.33-1.03-4.21c-1.46-0.88-3.38-0.43-4.28,1.01l-0.49,0.79
				c-0.56,0.9-1.75,1.17-2.74,0.78c-1.32-0.52-2.68-0.93-4.07-1.24c-1-0.22-1.68-1.13-1.66-2.14l0.02-0.8
				c0.04-1.69-1.31-3.1-3.03-3.15c-1.72-0.04-3.15,1.29-3.2,2.99l-0.02,0.73c-0.03,1.06-0.91,1.87-1.97,2.03
				c-1.41,0.21-2.81,0.54-4.19,0.97c-0.98,0.32-2.07-0.1-2.55-1l-0.34-0.61c-0.82-1.49-2.71-2.04-4.22-1.24
				c-1.51,0.81-2.07,2.67-1.25,4.16l0.33,0.6c0.5,0.9,0.26,2.02-0.55,2.66c-1.18,0.94-2.27,1.97-3.24,3.07
				c-0.68,0.75-1.81,0.89-2.67,0.36l-0.64-0.38c-1.46-0.88-3.38-0.43-4.28,1.01c-0.9,1.45-0.44,3.33,1.03,4.22l0.69,0.42
				c0.93,0.56,1.22,1.71,0.85,2.72c-0.49,1.31-0.87,2.67-1.14,4.04c-0.19,0.99-1.1,1.67-2.12,1.64l-0.94-0.02
				c-1.72-0.05-3.15,1.29-3.2,2.98c-0.04,1.69,1.31,3.1,3.04,3.15l1.05,0.03c1.07,0.03,1.92,0.84,2.12,1.88
				c0.24,1.34,0.6,2.67,1.07,3.98c0.34,0.95-0.1,1.99-1,2.47l-1.07,0.57c-1.51,0.81-2.07,2.67-1.25,4.16
				c0.82,1.49,2.71,2.04,4.22,1.23l1.19-0.64c0.92-0.49,2.07-0.25,2.75,0.54c0.86,1,1.78,1.92,2.77,2.77
				c0.8,0.69,1.06,1.83,0.5,2.72l-0.79,1.28c-0.9,1.45-0.44,3.33,1.03,4.22c1.47,0.89,3.39,0.43,4.29-1.01l0.85-1.37
				c0.54-0.87,1.63-1.26,2.6-0.91c1.21,0.43,2.46,0.78,3.72,1.04c1.04,0.21,1.84,1.08,1.81,2.13l-0.05,1.73
				c-0.05,1.69,1.31,3.1,3.03,3.15c1.72,0.04,3.15-1.29,3.2-2.98l0.05-1.79c0.03-1,0.75-1.88,1.76-2.04
				c1.25-0.21,2.49-0.5,3.72-0.89c1.02-0.32,2.15,0.05,2.65,0.97l0.89,1.61c0.82,1.49,2.71,2.04,4.22,1.23
				c1.51-0.81,2.08-2.67,1.26-4.16L1360.71,91.33z M1349.03,76.92c-4.74,2.53-10.67,0.8-13.24-3.87c-2.57-4.67-0.81-10.5,3.93-13.03
				c4.74-2.53,10.66-0.8,13.24,3.87C1355.52,68.55,1353.77,74.39,1349.03,76.92z"/>
		</g>
		<g class="st1">
			<path class="st18" d="M1285.2,335.36c0.09,11.16-9.04,20.29-20.38,20.37c-11.34,0.08-20.61-8.9-20.69-20.07
				c-0.08-11.16,9.04-20.28,20.38-20.37C1275.85,315.21,1285.11,324.2,1285.2,335.36z"/>
			<path class="st6" d="M1272.26,335.46c0.03,4.13-3.34,7.5-7.54,7.53c-4.19,0.03-7.62-3.29-7.65-7.42
				c-0.03-4.13,3.35-7.5,7.54-7.53C1268.8,328,1272.23,331.33,1272.26,335.46z"/>
			<path class="st16" d="M1272.26,335.46c0.03,4.13-3.34,7.5-7.54,7.53c-4.19,0.03-7.62-3.29-7.65-7.42
				c-0.03-4.13,3.35-7.5,7.54-7.53C1268.8,328,1272.23,331.33,1272.26,335.46z"/>
			<g>
				<polyline class="st29" points="1264.53,318.35 1264.47,310.87 1264.53,318.35 				"/>
				<polyline class="st29" points="1264.79,352.68 1264.85,360.16 1264.79,352.68 				"/>
				<polyline class="st29" points="1282.11,335.38 1289.7,335.33 1282.11,335.38 				"/>
				<polyline class="st29" points="1247.22,335.64 1239.63,335.7 1247.22,335.64 				"/>
			</g>
		</g>
		<g class="st1">
			<path class="st10" d="M544.61,226.99c-19.49,0-28.62,14.09-28.62,14.09s7.66,14.09,28.62,14.09c20.96,0,28.62-14.09,28.62-14.09
				S564.1,226.99,544.61,226.99z"/>
			<path class="st6" d="M556.16,241.08c0,6.28-5.17,11.38-11.56,11.38s-11.56-5.1-11.56-11.38c0-6.29,5.17-11.38,11.56-11.38
				S556.16,234.79,556.16,241.08z"/>
			<path class="st10" d="M549.47,241.08c0,2.64-2.18,4.78-4.86,4.78c-2.68,0-4.86-2.14-4.86-4.78c0-2.64,2.18-4.78,4.86-4.78
				C547.29,236.3,549.47,238.44,549.47,241.08z"/>
		</g>
		<g class="st1">
			<g>
				<path class="st20" d="M647.03,69.56c0-9.34-7.69-16.9-17.18-16.9c-9.48,0-17.17,7.57-17.17,16.9c0,5.77,2.94,10.87,7.43,13.91
					c0.69,0.47,1.17,1.22,1.17,2.05v5.61c0,2.49,2.05,2.28,4.57,2.28h8.01c2.52,0,4.57,0.21,4.57-2.28v-5.61
					c0-0.83,0.48-1.58,1.17-2.05C644.1,80.43,647.03,75.34,647.03,69.56z"/>
				<line class="st35" x1="633.43" y1="76.69" x2="633.43" y2="89.03"/>
				<line class="st35" x1="626.07" y1="75.53" x2="626.07" y2="89.03"/>
				<g>
					<path class="st36" d="M625.85,75.46c-0.7,0.53-1.52,0.8-2.4,0.8c-2.18,0-3.96-1.75-3.96-3.9c0-2.15,1.77-3.9,3.96-3.9
						c2.21,0,3.86,1.49,6.19,3.91c2.59,2.58,3.96,3.88,6.13,3.88c2.18,0,3.95-1.75,3.95-3.9c0-2.15-1.77-3.9-3.95-3.9
						c-0.88,0-1.71,0.27-2.41,0.8"/>
				</g>
				<path class="st20" d="M634.6,97.21c0,2.7-2.23,4.9-4.97,4.9c-2.74,0-4.97-2.19-4.97-4.9c0-2.7,2.23-2.67,4.97-2.67
					C632.37,94.54,634.6,94.51,634.6,97.21z"/>
				<path class="st37" d="M621.28,87.39v5.24c0,1.77,1.46,3.2,3.27,3.2h10.63c1.81,0,3.27-1.43,3.27-3.2v-5.24H621.28z"/>
			</g>
			<g>
				<g>
					<line class="st38" x1="595.77" y1="69.99" x2="603.92" y2="69.99"/>
					<line class="st38" x1="655.81" y1="69.99" x2="663.96" y2="69.99"/>
				</g>
				<g>
					<line class="st38" x1="605.75" y1="93.72" x2="611.52" y2="88.05"/>
					<line class="st38" x1="648.21" y1="51.93" x2="653.97" y2="46.26"/>
				</g>
				<g>
					<line class="st38" x1="629.86" y1="44.45" x2="629.86" y2="36.43"/>
				</g>
				<g>
					<line class="st38" x1="653.97" y1="93.72" x2="648.21" y2="88.05"/>
					<line class="st38" x1="611.52" y1="51.93" x2="605.75" y2="46.26"/>
				</g>
			</g>
		</g>
		<g class="st1">
			<g>
				<path class="st39" d="M1005.1,91.73c1.75,1.72,4.62,1.69,6.41-0.08l17.89-17.61c1.37-1.35,1.55-2.74,0.32-3.94l-2.41-2.38
					c-1.55-1.53-2.93-1.39-4.34-0.01l-17.89,17.61c-1.79,1.76-1.83,4.59-0.08,6.31L1005.1,91.73z"/>
				<g>
					<g>
						<path class="st37" d="M1016.03,56.49c0,13.31,10.96,24.1,24.48,24.1c13.52,0,24.48-10.79,24.48-24.1
							c0-13.31-10.96-24.1-24.48-24.1C1026.99,32.4,1016.03,43.19,1016.03,56.49z"/>
						<path class="st18" d="M1022.64,56.5c0,9.72,8,17.59,17.87,17.59c9.87,0,17.87-7.88,17.87-17.59c0-9.72-8-17.59-17.87-17.59
							C1030.64,38.9,1022.64,46.78,1022.64,56.5z"/>
						<g>
							<path class="st6" d="M1051.47,55.39c0.07,0.61,0.57,1.11,1.2,1.11c0.64,0,1.14-0.54,1.09-1.17
								c-0.57-6.31-5.71-11.34-12.12-11.88c-0.62-0.05-1.13,0.46-1.13,1.08c0,0.64,0.54,1.12,1.19,1.18
								C1046.85,46.26,1050.95,50.31,1051.47,55.39z"/>
						</g>
					</g>
				</g>
			</g>
		</g>
		<path class="st22" d="M1406.95,127.87v-17.4h-24.84v17.4h-17.27v18.81c20.56,0,37.19,0,59.38,0v-18.81H1406.95z"/>
		<g class="st1">
			<g>
				<polygon class="st40" points="863.02,449.4 802.83,364.18 743.23,449.4 				"/>
				<polygon class="st20" points="802.83,364.18 797.17,374.22 850.07,449.4 863.02,449.4 				"/>
				<polygon class="st7" points="821.94,399.47 811.35,398.58 805.8,410.34 794.31,396.08 777.9,399.83 802.82,367.57 				"/>
				<polygon class="st41" points="863.02,449.4 802.83,364.18 743.23,449.4 				"/>
				<polygon class="st28" points="821.94,391.58 809.76,390.82 805.25,400.92 795.92,388.67 782.54,393.19 802.83,364.18 				"/>
				<polygon class="st41" points="821.94,391.58 809.76,390.82 800.65,400.92 795.92,388.67 782.54,393.19 802.83,364.18 				"/>
			</g>
			<g>
				<polygon class="st40" points="960.55,449.4 912.24,380.89 864.19,449.4 				"/>
				<polygon class="st7" points="912.24,380.89 905.88,389.96 947.79,449.4 960.55,449.4 				"/>
				<polygon class="st7" points="930.71,407.08 912.24,380.89 895.97,404.09 899.56,409.18 908.49,403.47 918.96,417.34 				"/>
				<polygon class="st41" points="960.55,449.4 912.24,380.89 864.19,449.4 				"/>
				<polygon class="st42" points="912.24,380.89 925.41,399.56 917.12,406.79 909.97,397.32 903.87,401.22 900.92,397.03 				"/>
			</g>
			<polygon class="st40" points="923.59,449.4 850.16,345.24 777.1,449.4 			"/>
			<polygon class="st7" points="850.16,345.24 841.16,358.07 905.55,449.4 923.59,449.4 			"/>
			<polygon class="st7" points="883.52,392.65 862.26,407.7 851.84,390.08 846.09,398.43 839.4,392.86 825.09,410.41 814.97,395.44 
				850.37,354.43 			"/>
			<polygon class="st42" points="877.11,383.46 862.59,397.32 853.05,380.89 845.3,389.1 838.49,383.67 826.07,401.22 
				821.39,386.26 850.16,345.24 			"/>
			<polygon class="st41" points="923.59,449.4 850.16,345.24 777.1,449.4 			"/>
			<line class="st12" x1="850.16" y1="345.24" x2="850.16" y2="325.78"/>
			<polygon class="st10" points="872.86,323.84 848.43,323.84 848.43,336.99 872.86,336.99 864.65,330.41 			"/>
		</g>
		<g class="st1">
			<g>
				<path class="st28" d="M1138.68,421.76c0-3.92-3.03-7.15-6.92-7.53c-0.48-7.41-6.73-13.28-14.38-13.28
					c-6.49,0-11.97,4.22-13.78,10.02c-4.74,0.44-8.46,4.37-8.46,9.16c0,5.08,4.19,9.2,9.35,9.2c0.02,0,0.04,0,0.07,0v0h26.46v0
					C1135.25,429.32,1138.68,425.94,1138.68,421.76z"/>
			</g>
			<g>
				<g>
					<path class="st28" d="M365.95,334.07c0-3.92-3.03-7.15-6.92-7.53c-0.48-7.41-6.73-13.28-14.38-13.28
						c-6.49,0-11.97,4.22-13.78,10.02c-4.74,0.44-8.46,4.37-8.46,9.16c0,5.08,4.19,9.2,9.35,9.2c0.02,0,0.04,0,0.07,0v0h26.46v0
						C362.52,341.62,365.95,338.24,365.95,334.07z"/>
				</g>
			</g>
		</g>
		<g class="st1">
			<g>
				<path class="st10" d="M1014.61,224.5c-0.53,0.53-1.45,0.18-1.48-0.57l-11.44-34.59l35.15,11.23c0.76,0.05,1.11,0.96,0.57,1.49
					l-9.39,6.52l9.62,9.48c0.77,0.76,0.77,1.97,0,2.73l-4.23,4.17c-0.77,0.76-2.01,0.76-2.77,0l-9.63-9.47L1014.61,224.5z"/>
			</g>
		</g>
		<g class="st1">
			<g>
				<line class="st43" x1="1389.23" y1="345.18" x2="1394.94" y2="338.47"/>
				<line class="st43" x1="1402.03" y1="366.99" x2="1410.78" y2="365.47"/>
				<line class="st43" x1="1328.34" y1="366.99" x2="1319.58" y2="365.47"/>
				<line class="st43" x1="1341.13" y1="345.18" x2="1335.42" y2="338.47"/>
				<line class="st43" x1="1365.18" y1="336.56" x2="1365.18" y2="327.81"/>
			</g>
			<polygon class="st18" points="1373.57,352.65 1356.79,352.65 1340,369.17 1365.18,402.04 1390.36,369.17 			"/>
			<polygon class="st12" points="1373.57,352.65 1356.79,352.65 1340,369.17 1365.18,402.04 1390.36,369.17 			"/>
		</g>
		<g class="st1">
			<g>
				<path class="st28" d="M784.93,336.57c0-3.92-3.03-7.15-6.92-7.53c-0.48-7.41-6.73-13.28-14.38-13.28
					c-6.49,0-11.97,4.22-13.78,10.02c-4.74,0.44-8.46,4.37-8.46,9.16c0,5.08,4.19,9.2,9.35,9.2c0.02,0,0.04,0,0.07,0v0h26.46v0
					C781.5,344.13,784.93,340.75,784.93,336.57z"/>
			</g>
		</g>
		<g class="st1">
			<g>
				<path class="st28" d="M837.51,306.53c0-3.92-3.03-7.15-6.92-7.53c-0.48-7.41-6.73-13.28-14.38-13.28
					c-6.49,0-11.97,4.22-13.78,10.02c-4.74,0.44-8.46,4.37-8.46,9.16c0,5.08,4.19,9.2,9.35,9.2c0.02,0,0.04,0,0.07,0v0h26.46v0
					C834.09,314.08,837.51,310.7,837.51,306.53z"/>
			</g>
		</g>
		<g class="st1">
			<g>
				<path class="st28" d="M361.78,233.08c0-3.92-3.03-7.15-6.92-7.53c-0.48-7.41-6.73-13.28-14.38-13.28
					c-6.49,0-11.97,4.22-13.78,10.02c-4.74,0.44-8.46,4.37-8.46,9.16c0,5.08,4.19,9.2,9.35,9.2c0.02,0,0.04,0,0.07,0v0h26.46v0
					C358.35,240.63,361.78,237.25,361.78,233.08z"/>
			</g>
		</g>
	</g>
	<line class="st0" x1="414.58" y1="386.67" x2="482.92" y2="386.67"/>
	<path class="st0" d="M779.88,0.11"/>
	<path class="st0" d="M870.94,0.11"/>
	<path class="st0" d="M164.76,393.12l27.44-0.01c5.4,0,9.78-4.22,9.78-9.42l-0.01-37.68c0-5.2,4.38-9.42,9.78-9.42l31.03-0.01
		c5.4,0,9.78-4.22,9.78-9.42c0-8.51,0-14.31,0-22.75c0-3.48,2.9-6.33,6.52-6.33l49.84-0.01c3.6,0,6.52-2.81,6.52-6.28l-0.02-72.76
		c0-3.47-2.92-6.28-6.52-6.28l-91.06,0.02c-3.6,0-6.52-2.81-6.52-6.28l-0.01-27.73c0-5.2,4.38-9.42,9.78-9.42l99.58-0.1l71.78-0.01"
		/>
	<path class="st0" d="M-95.51,509.15l35.19-0.01c6.93,0,12.54-5.89,12.54-13.16l-0.01-52.61c0-7.27,5.61-13.16,12.54-13.16
		l39.8-0.01c6.93,0,12.54-5.89,12.54-13.16c0-11.88,0-19.98-0.01-31.76c0-4.86,3.73-8.84,8.36-8.84l63.92-0.01
		c4.62,0,8.36-3.93,8.36-8.77l-0.02-101.6c0-4.84-3.75-8.77-8.37-8.77l-116.79,0.02c-4.62,0-8.36-3.93-8.37-8.77l-0.01-38.72
		c0-7.27,5.61-13.16,12.54-13.16l127.72-0.14l41.52,1.51"/>
	<path class="st0" d="M1723.6,239.02c0-5.2,4.38-9.42,8.78-7.42l99.58-0.1"/>
	<path class="st0" d="M363.28,263.85"/>
	<path class="st0" d="M363.25,329.91"/>
	<path class="st0" d="M418.18,386.37c-3.6,0-6.52-2.87-6.52-6.42v-28.33"/>
	<path class="st0" d="M960.16,38.25"/>
	<path class="st0" d="M411.11,341.18v-82.72c0-39.59,5.83-62.92-15.31-62.92"/>
	<path class="st0" d="M1711.99,367.82h-28.6c-5.63,0-10.2-4.31-10.2-9.62v-38.48c0-5.31-4.57-9.62-10.2-9.62h-32.35
		c-5.63,0-10.2-4.31-10.2-9.62c0-8.69,0-14.61,0-23.23c0-3.56-3.03-6.46-6.8-6.46h-51.96c-3.76,0-6.8-2.87-6.8-6.42v-74.31
		c0-3.54,3.04-6.42,6.8-6.42h94.94c3.76,0,6.8-2.87,6.8-6.42v-28.32c0-5.31-4.57-9.62-10.2-9.62l-20.5,0.34h-139.38"/>
	<path class="st0" d="M1472.89,369.59"/>
	<path class="st0" d="M1463.11,379.22"/>
	<g>
		<path class="st18" d="M1524.12,295.04c-1.34-2.02-3.47-3.44-5.9-4.03c-0.82-0.2-1.67-0.3-2.53-0.3h-6.29l-9.91,31.04
			c13.27-2.45,20.77-10.56,24.94-17.87C1526.01,301.08,1525.9,297.74,1524.12,295.04z M1520.52,302.02
			c-3.59,6.83-9.86,12.33-17.26,14.4l5.85-21.66l6.58-0.02c0.47,0,0.94,0.06,1.4,0.17c1.37,0.33,2.53,1.12,3.26,2.23
			C1521.33,298.61,1521.39,300.48,1520.52,302.02z"/>
		<path class="st18" d="M1456.49,290.71h-6.29c-3.45,0-6.64,1.64-8.43,4.34c-1.79,2.69-1.9,6.04-0.31,8.83
			c3.93,6.9,10.84,14.52,22.77,17.41c0.71,0.17,1.43,0.33,2.17,0.46L1456.49,290.71z M1445.37,302.02
			c-0.88-1.54-0.81-3.41,0.17-4.89c0.98-1.48,2.77-2.4,4.66-2.4l6,0.15l5.77,21.62C1455.14,313.89,1448.95,308.3,1445.37,302.02z"/>
		<path class="st16" d="M1509.39,290.71h6.29c3.45,0,6.64,1.64,8.43,4.34c1.79,2.69,1.9,6.04,0.31,8.83
			c-4.16,7.31-11.67,15.42-24.94,17.87L1509.39,290.71z"/>
		<path class="st16" d="M1456.49,290.71h-6.29c-3.45,0-6.64,1.64-8.43,4.34c-1.79,2.69-1.9,6.04-0.31,8.83
			c4.17,7.31,11.67,15.42,24.94,17.87L1456.49,290.71z"/>
		<rect x="1475.89" y="331.44" class="st18" width="14.11" height="18.52"/>
		<path class="st19" d="M1503.98,353.36c-2.35-5.58-9.38-7.05-17.69-7.05h-6.67c-8.32,0-15.36,1.48-17.7,7.05
			c-0.54,1.28-0.83,3.92-0.83,5.68v0.5h43.73v-0.5C1504.81,357.28,1504.52,354.65,1503.98,353.36z"/>
		<path class="st18" d="M1482.95,335.15c14.43,0,26.24-23.14,27.19-52.41h-27.2h-27.2C1456.7,312.01,1468.51,335.15,1482.95,335.15z
			"/>
		<path class="st20" d="M1510.14,282.74h-12.8c-1.38,25.48-11.02,45.81-23.27,49.35c2.78,1.97,5.77,3.05,8.87,3.05
			C1497.38,335.15,1509.19,312.01,1510.14,282.74z"/>
		<path class="st16" d="M1482.95,335.15c14.43,0,26.24-23.14,27.19-52.41h-27.2h-27.2C1456.7,312.01,1468.51,335.15,1482.95,335.15z
			"/>
	</g>
	<g>
		<path class="st18" d="M244.29,211.09c0.09,11.16-9.04,20.29-20.38,20.37c-11.34,0.08-20.61-8.9-20.69-20.07
			c-0.08-11.16,9.04-20.28,20.38-20.37C234.94,190.95,244.2,199.93,244.29,211.09z"/>
		<path class="st6" d="M231.34,211.19c0.03,4.13-3.34,7.5-7.54,7.53c-4.19,0.03-7.62-3.29-7.65-7.42c-0.03-4.13,3.35-7.5,7.54-7.53
			C227.89,203.74,231.31,207.06,231.34,211.19z"/>
		<path class="st16" d="M231.34,211.19c0.03,4.13-3.34,7.5-7.54,7.53c-4.19,0.03-7.62-3.29-7.65-7.42c-0.03-4.13,3.35-7.5,7.54-7.53
			C227.89,203.74,231.31,207.06,231.34,211.19z"/>
		<g>
			<polyline class="st29" points="223.62,194.08 223.56,186.6 223.62,194.08 			"/>
			<polyline class="st29" points="223.88,228.42 223.94,235.89 223.88,228.42 			"/>
			<polyline class="st29" points="241.19,211.12 248.79,211.06 241.19,211.12 			"/>
			<polyline class="st29" points="206.31,211.38 198.71,211.43 206.31,211.38 			"/>
		</g>
	</g>
	<g>
		<path class="st20" d="M1729.64,373.86c0-9.34-7.69-16.9-17.18-16.9c-9.48,0-17.17,7.57-17.17,16.9c0,5.77,2.94,10.87,7.43,13.91
			c0.69,0.47,1.17,1.22,1.17,2.05v5.61c0,2.49,2.05,2.28,4.57,2.28h8.01c2.52,0,4.57,0.21,4.57-2.28v-5.61
			c0-0.83,0.48-1.58,1.17-2.05C1726.7,384.73,1729.64,379.63,1729.64,373.86z"/>
		<line class="st35" x1="1716.03" y1="380.99" x2="1716.03" y2="393.33"/>
		<line class="st35" x1="1708.68" y1="379.82" x2="1708.68" y2="393.33"/>
		<g>
			<path class="st36" d="M1708.46,379.76c-0.7,0.53-1.52,0.8-2.4,0.8c-2.18,0-3.96-1.75-3.96-3.9c0-2.15,1.77-3.9,3.96-3.9
				c2.21,0,3.86,1.49,6.19,3.91c2.59,2.58,3.96,3.88,6.13,3.88c2.18,0,3.95-1.75,3.95-3.9c0-2.15-1.77-3.9-3.95-3.9
				c-0.88,0-1.71,0.27-2.41,0.8"/>
		</g>
		<path class="st20" d="M1717.2,401.51c0,2.7-2.23,4.9-4.97,4.9c-2.74,0-4.97-2.19-4.97-4.9c0-2.7,2.23-2.67,4.97-2.67
			C1714.98,398.84,1717.2,398.81,1717.2,401.51z"/>
		<path class="st37" d="M1703.89,391.69v5.24c0,1.77,1.46,3.2,3.27,3.2h10.63c1.81,0,3.27-1.43,3.27-3.2v-5.24H1703.89z"/>
	</g>
	<line class="st38" x1="1678.37" y1="374.29" x2="1686.52" y2="374.29"/>
	<line class="st38" x1="1738.41" y1="374.29" x2="1746.56" y2="374.29"/>
	<g>
		<line class="st38" x1="1688.36" y1="398.02" x2="1694.12" y2="392.35"/>
		<line class="st38" x1="1730.81" y1="356.23" x2="1736.58" y2="350.56"/>
	</g>
	<g>
		<line class="st38" x1="1712.47" y1="348.75" x2="1712.47" y2="340.72"/>
	</g>
	<g>
		<line class="st38" x1="1736.58" y1="398.02" x2="1730.81" y2="392.35"/>
		<line class="st38" x1="1694.12" y1="356.23" x2="1688.36" y2="350.55"/>
	</g>
	<g>
		<path class="st11" d="M1492.79,121.54c-10.06-9.9-26.37-9.9-36.43,0c-10.06,9.9-10.06,25.96,0,35.86c10.06,9.9,26.37,9.9,36.43,0
			l-18.21-17.93L1492.79,121.54z"/>
		<path class="st12" d="M1492.79,121.54c-10.06-9.9-26.37-9.9-36.43,0c-10.06,9.9-10.06,25.96,0,35.86c10.06,9.9,26.37,9.9,36.43,0
			l-18.21-17.93L1492.79,121.54z"/>
		<path class="st6" d="M1476.27,124.99c0,2.09-1.72,3.78-3.84,3.78c-2.12,0-3.84-1.69-3.84-3.78c0-2.09,1.72-3.78,3.84-3.78
			C1474.55,121.21,1476.27,122.9,1476.27,124.99z"/>
	</g>
	<line class="st0" x1="1456.38" y1="194.29" x2="1456.38" y2="169.06"/>
	<g>
		<path class="st7" d="M391.13,184.27v17.4h24.84v-17.4h17.27v-18.81c-20.56,0-37.19,0-59.38,0v18.81H391.13z"/>
		<path class="st7" d="M391.13,184.27v17.4h24.84v-17.4h17.27v-18.81c-20.56,0-37.19,0-59.38,0v18.81H391.13z"/>
	</g>
	<path class="st28" d="M208,387.41c0.69-0.62,1.74-0.59,2.53-0.09c1.04,0.66,2.16,1.21,3.34,1.63"/>
	<path class="st34" d="M272.74,355.08c-0.49-0.89-0.27-2.01,0.53-2.65c1.01-0.79,1.94-1.66,2.8-2.57c0.72-0.76,1.88-0.96,2.77-0.41
		l1.55,0.93c1.46,0.88,3.39,0.43,4.29-1.01c0.9-1.44,0.44-3.33-1.03-4.22l-1.5-0.91c-0.87-0.53-1.25-1.6-0.87-2.54
		c0.48-1.18,0.87-2.39,1.16-3.63c0.25-1.03,1.15-1.79,2.22-1.77l1.63,0.04c1.72,0.04,3.15-1.29,3.2-2.98
		c0.05-1.7-1.31-3.1-3.03-3.15l-1.52-0.04c-1.03-0.02-1.89-0.78-2.03-1.78c-0.18-1.27-0.45-2.53-0.83-3.79
		c-0.31-1.02,0.05-2.17,1.01-2.68l1.19-0.64c1.51-0.81,2.07-2.67,1.25-4.15c-0.82-1.49-2.71-2.04-4.23-1.23l-1.07,0.57
		c-0.93,0.5-2.07,0.2-2.72-0.62c-0.83-1.06-1.74-2.03-2.7-2.93c-0.78-0.73-1.04-1.89-0.48-2.8l0.55-0.89
		c0.9-1.44,0.44-3.33-1.03-4.21c-1.46-0.88-3.38-0.43-4.28,1.01l-0.49,0.79c-0.56,0.9-1.75,1.17-2.74,0.78
		c-1.32-0.52-2.68-0.93-4.07-1.24c-1-0.22-1.68-1.13-1.66-2.14l0.02-0.8c0.04-1.69-1.31-3.1-3.03-3.15
		c-1.72-0.04-3.15,1.29-3.2,2.99l-0.02,0.73c-0.03,1.06-0.91,1.87-1.97,2.03c-1.41,0.21-2.81,0.54-4.19,0.97
		c-0.98,0.32-2.07-0.1-2.55-1l-0.34-0.61c-0.82-1.49-2.71-2.04-4.22-1.24c-1.51,0.81-2.07,2.67-1.25,4.16l0.33,0.6
		c0.5,0.9,0.26,2.02-0.55,2.66c-1.18,0.94-2.27,1.97-3.24,3.07c-0.68,0.75-1.81,0.89-2.67,0.36l-0.64-0.38
		c-1.46-0.88-3.38-0.43-4.28,1.01c-0.9,1.45-0.44,3.33,1.03,4.22l0.69,0.42c0.93,0.56,1.22,1.71,0.85,2.72
		c-0.49,1.31-0.87,2.67-1.14,4.04c-0.19,0.99-1.1,1.67-2.12,1.64l-0.94-0.02c-1.72-0.05-3.15,1.29-3.2,2.98
		c-0.04,1.69,1.31,3.1,3.03,3.15l1.05,0.03c1.07,0.03,1.92,0.84,2.12,1.88c0.24,1.34,0.6,2.67,1.07,3.98c0.34,0.95-0.1,1.99-1,2.47
		l-1.07,0.57c-1.51,0.81-2.07,2.67-1.25,4.16c0.82,1.49,2.71,2.04,4.22,1.23l1.19-0.64c0.92-0.49,2.07-0.25,2.75,0.54
		c0.86,1,1.78,1.92,2.77,2.77c0.8,0.69,1.06,1.83,0.5,2.72l-0.79,1.28c-0.9,1.45-0.44,3.33,1.03,4.22c1.47,0.89,3.39,0.43,4.29-1.01
		l0.85-1.37c0.54-0.87,1.63-1.26,2.6-0.91c1.21,0.43,2.46,0.78,3.72,1.04c1.04,0.21,1.84,1.08,1.81,2.13l-0.05,1.73
		c-0.05,1.69,1.31,3.1,3.03,3.15c1.72,0.04,3.15-1.29,3.2-2.98l0.05-1.79c0.03-1,0.75-1.88,1.76-2.04c1.25-0.21,2.49-0.5,3.72-0.89
		c1.02-0.32,2.15,0.05,2.65,0.97l0.89,1.61c0.82,1.49,2.71,2.04,4.22,1.23c1.51-0.81,2.08-2.67,1.26-4.16L272.74,355.08z
		 M261.06,340.68c-4.74,2.53-10.67,0.8-13.24-3.87c-2.57-4.67-0.81-10.5,3.93-13.03c4.74-2.53,10.66-0.8,13.24,3.87
		C267.56,332.31,265.8,338.14,261.06,340.68z"/>
	<path class="st11" d="M1624.45,305.63c0-5.34-4.4-9.68-9.83-9.68c-3.09,0-5.85,1.4-7.65,3.6c-1.8-2.2-4.55-3.6-7.64-3.6
		c-5.43,0-9.83,4.33-9.83,9.68c0,8.58,12.94,16.03,17.09,16.55c0.23,0.04,0.57,0.04,0.77,0
		C1611.51,321.65,1624.45,314.21,1624.45,305.63z"/>
	<path class="st40" d="M230.42,391.87c0.44-0.88,1.73-0.88,2.17,0l3.89,7.77c0.34,0.67,1,1.15,1.75,1.25l8.71,1.25
		c0.99,0.14,1.39,1.34,0.67,2.03l-6.3,6.05c-0.55,0.52-0.8,1.29-0.67,2.03l1.49,8.54c0.17,0.97-0.87,1.71-1.75,1.25l-7.79-4.03
		c-0.68-0.35-1.49-0.35-2.17,0l-7.79,4.03c-0.89,0.46-1.92-0.28-1.75-1.25l1.49-8.54c0.13-0.74-0.12-1.5-0.67-2.03l-6.3-6.05
		c-0.72-0.69-0.32-1.89,0.67-2.03l8.71-1.25c0.76-0.11,1.41-0.58,1.75-1.25L230.42,391.87z"/>
	<path class="st40" d="M762.08,265c0.44-0.88,1.73-0.88,2.17,0l3.89,7.77c0.34,0.67,1,1.15,1.75,1.25l8.71,1.25
		c0.99,0.14,1.39,1.34,0.67,2.03l-6.3,6.05c-0.55,0.52-0.8,1.29-0.67,2.03l1.49,8.54c0.17,0.97-0.87,1.71-1.75,1.25l-7.79-4.03
		c-0.68-0.35-1.49-0.35-2.17,0l-7.79,4.03c-0.89,0.46-1.92-0.28-1.75-1.25l1.49-8.54c0.13-0.74-0.12-1.5-0.67-2.03l-6.3-6.05
		c-0.72-0.69-0.32-1.89,0.67-2.03l8.71-1.25c0.76-0.11,1.41-0.58,1.75-1.25L762.08,265z"/>
	<path class="st40" d="M1644.28,86.39c0.44-0.88,1.73-0.88,2.17,0l3.89,7.77c0.34,0.67,1,1.15,1.75,1.25l8.71,1.25
		c0.99,0.14,1.39,1.34,0.67,2.03l-6.3,6.05c-0.55,0.52-0.8,1.29-0.67,2.03l1.49,8.54c0.17,0.97-0.87,1.71-1.75,1.25l-7.79-4.03
		c-0.68-0.35-1.49-0.35-2.17,0l-7.79,4.03c-0.89,0.46-1.92-0.28-1.75-1.25l1.49-8.54c0.13-0.74-0.12-1.5-0.67-2.03l-6.3-6.05
		c-0.72-0.69-0.32-1.89,0.67-2.03l8.71-1.25c0.76-0.11,1.41-0.58,1.75-1.25L1644.28,86.39z"/>
	<path class="st2" d="M-95.57,451.1"/>
	<path class="st2" d="M69.87,451.1"/>
	<g>
		<polygon class="st6" points="396.1,302.59 394.57,293.68 386.52,288.22 412.94,272.2 422.53,286.56 		"/>
		<polygon class="st6" points="421.08,319.01 429.67,316.76 437.88,321.98 441.31,290.85 424.51,287.87 		"/>
		<polygon class="st6" points="396.1,302.59 394.57,293.68 386.52,288.22 412.94,272.2 422.53,286.56 		"/>
		<polygon class="st6" points="421.08,319.01 429.67,316.76 437.88,321.98 441.31,290.85 424.51,287.87 		"/>
		<polygon class="st16" points="396.1,302.59 394.57,293.68 386.52,288.22 412.94,272.2 422.53,286.56 		"/>
		<polygon class="st16" points="421.08,319.01 429.67,316.76 437.88,321.98 441.31,290.85 424.51,287.87 		"/>
		<polygon class="st7" points="402.99,278.23 398.94,284.52 410.56,290.53 411.05,293.53 422.53,286.56 412.94,272.2 		"/>
		<polygon class="st7" points="440.12,301.64 441.31,290.85 424.51,287.87 423.08,300.88 424.8,300.54 434.41,309.45 		"/>
		<polygon class="st16" points="396.1,302.59 394.57,293.68 386.52,288.22 412.94,272.2 422.53,286.56 		"/>
		<polygon class="st16" points="421.08,319.01 429.67,316.76 437.88,321.98 441.31,290.85 424.51,287.87 		"/>
		<polygon class="st11" points="460.32,291.8 447.6,290.57 440.51,300.29 430.89,291.37 418.68,293.79 416.65,281.36 405.04,275.36 
			411.55,265.23 405.97,253.61 417.98,250.52 421.05,238.71 432.92,244.12 443.2,237.65 449.4,249.02 462.08,250.92 459.69,262.93 
			468.83,272.31 458.98,279.34 		"/>
		<path class="st17" d="M421.5,258.08c4.69-7.41,14.97-9.17,22.95-3.92c7.98,5.25,10.65,15.51,5.95,22.92
			c-4.7,7.42-14.97,9.17-22.95,3.92C419.47,275.76,416.8,265.5,421.5,258.08z"/>
	</g>
	<polyline class="st28" points="1474.28,436.85 1474.28,410.6 1493.12,410.6 1493.12,436.85 	"/>
	<polyline class="st10" points="1501.9,437.12 1501.9,394.7 1520.74,394.7 1520.74,437.12 	"/>
	<polyline class="st28" points="1529.53,436.85 1529.53,367.69 1548.37,367.69 1548.37,436.85 	"/>
	<polyline class="st11" points="1556.63,437.12 1556.63,375.43 1575.47,375.43 1575.47,437.12 	"/>
	<polyline class="st28" points="1584.25,436.6 1584.25,348.69 1603.09,348.69 1603.09,436.6 	"/>
	<g>
		<g>
			<line class="st43" x1="325.65" y1="124.51" x2="331.37" y2="117.81"/>
			<line class="st43" x1="338.45" y1="146.33" x2="347.2" y2="144.81"/>
			<line class="st43" x1="264.76" y1="146.33" x2="256" y2="144.81"/>
			<line class="st43" x1="277.55" y1="124.51" x2="271.84" y2="117.81"/>
			<line class="st43" x1="301.6" y1="115.9" x2="301.6" y2="107.15"/>
		</g>
		<polygon class="st11" points="309.99,131.98 293.21,131.98 276.42,148.51 301.6,181.38 326.79,148.51 		"/>
		<polygon class="st12" points="309.99,131.98 293.21,131.98 276.42,148.51 301.6,181.38 326.79,148.51 		"/>
	</g>
	<g>
		<path class="st10" d="M1500.14,209.03c-19.49,0-28.62,14.09-28.62,14.09s7.66,14.09,28.62,14.09c20.96,0,28.62-14.09,28.62-14.09
			S1519.63,209.03,1500.14,209.03z"/>
		<path class="st6" d="M1511.7,223.12c0,6.28-5.17,11.38-11.56,11.38s-11.56-5.1-11.56-11.38c0-6.29,5.17-11.38,11.56-11.38
			S1511.7,216.84,1511.7,223.12z"/>
		<path class="st10" d="M1505,223.12c0,2.64-2.18,4.78-4.86,4.78c-2.68,0-4.86-2.14-4.86-4.78c0-2.64,2.18-4.78,4.86-4.78
			C1502.82,218.34,1505,220.48,1505,223.12z"/>
	</g>
	<path class="st10" d="M298.04,241.97c0-13.84,11.4-25.06,25.46-25.06c14.06,0,25.46,11.22,25.46,25.06
		c0,13.84-11.4,25.06-25.46,25.06C309.44,267.03,298.04,255.81,298.04,241.97"/>
	<path class="st30" d="M298.04,241.97c0-13.84,11.4-25.06,25.46-25.06c14.06,0,25.46,11.22,25.46,25.06
		c0,13.84-11.4,25.06-25.46,25.06C309.44,267.03,298.04,255.81,298.04,241.97"/>
	<ellipse class="st6" cx="323.5" cy="241.97" rx="17.7" ry="17.42"/>
	<path class="st31" d="M317.7,237.29c2.32-1.1,4.15-2.47,5.5-4.1h1.26v17.56"/>
	<path class="st10" d="M1579.55,184.45c5.41-12.74,20.29-18.62,33.23-13.12c12.94,5.49,19.05,20.28,13.64,33.02
		c-5.41,12.74-20.28,18.62-33.23,13.12C1580.25,211.97,1574.14,197.19,1579.55,184.45"/>
	<path class="st30" d="M1579.55,184.45c5.41-12.74,20.29-18.62,33.23-13.12c12.94,5.49,19.05,20.28,13.64,33.02
		c-5.41,12.74-20.28,18.62-33.23,13.12C1580.25,211.97,1574.14,197.19,1579.55,184.45"/>
	
		<ellipse transform="matrix(0.3907 -0.9205 0.9205 0.3907 797.7091 1593.9934)" class="st6" cx="1602.99" cy="194.39" rx="17.42" ry="17.7"/>
	<path class="st31" d="M1599.48,187.82c2.57-0.11,4.79-0.65,6.67-1.63l1.16,0.49l-6.86,16.17"/>
	<g>
		<g>
			<path class="st39" d="M1712.85,278.7c-1.75,1.72-4.62,1.69-6.41-0.08l-17.89-17.61c-1.37-1.35-1.55-2.74-0.32-3.94l2.41-2.38
				c1.55-1.53,2.93-1.39,4.34-0.01l17.89,17.61c1.79,1.76,1.83,4.59,0.08,6.31L1712.85,278.7z"/>
			<g>
				<g>
					<path class="st37" d="M1701.92,243.46c0,13.31-10.96,24.1-24.48,24.1c-13.52,0-24.48-10.79-24.48-24.1
						c0-13.31,10.96-24.1,24.48-24.1C1690.96,219.36,1701.92,230.15,1701.92,243.46z"/>
					<path class="st18" d="M1695.31,243.46c0,9.72-8,17.59-17.87,17.59c-9.87,0-17.87-7.88-17.87-17.59c0-9.72,8-17.59,17.87-17.59
						C1687.31,225.87,1695.31,233.74,1695.31,243.46z"/>
					<g>
						<path class="st6" d="M1666.47,242.36c-0.07,0.61-0.57,1.11-1.2,1.11c-0.64,0-1.14-0.54-1.09-1.17
							c0.57-6.31,5.71-11.34,12.12-11.88c0.62-0.05,1.13,0.46,1.13,1.08c0,0.64-0.54,1.12-1.19,1.18
							C1671.1,233.22,1667,237.27,1666.47,242.36z"/>
					</g>
				</g>
			</g>
		</g>
	</g>
	<g>
		<path class="st11" d="M441.48,363.02c10.06-9.9,26.37-9.9,36.43,0c10.06,9.9,10.06,25.96,0,35.86c-10.06,9.9-26.37,9.9-36.43,0
			l18.21-17.93L441.48,363.02z"/>
		<path class="st12" d="M441.48,363.02c10.06-9.9,26.37-9.9,36.43,0c10.06,9.9,10.06,25.96,0,35.86c-10.06,9.9-26.37,9.9-36.43,0
			l18.21-17.93L441.48,363.02z"/>
		<path class="st6" d="M458,366.47c0,2.09,1.72,3.78,3.84,3.78c2.12,0,3.84-1.69,3.84-3.78c0-2.09-1.72-3.78-3.84-3.78
			C459.72,362.69,458,364.39,458,366.47z"/>
	</g>
	<g>
		<g>
			<path class="st39" d="M469.42,149.5c-1.75,1.72-4.62,1.69-6.41-0.08l-17.89-17.61c-1.37-1.35-1.55-2.74-0.32-3.94l2.41-2.38
				c1.55-1.53,2.93-1.39,4.34-0.01l17.89,17.61c1.79,1.76,1.83,4.59,0.08,6.31L469.42,149.5z"/>
			<g>
				<g>
					<path class="st37" d="M458.48,114.26c0,13.31-10.96,24.1-24.48,24.1c-13.52,0-24.48-10.79-24.48-24.1
						c0-13.31,10.96-24.1,24.48-24.1C447.53,90.16,458.48,100.95,458.48,114.26z"/>
					<path class="st18" d="M451.88,114.26c0,9.72-8,17.59-17.87,17.59c-9.87,0-17.87-7.88-17.87-17.59c0-9.72,8-17.59,17.87-17.59
						C443.88,96.66,451.88,104.54,451.88,114.26z"/>
					<g>
						<path class="st6" d="M423.04,113.15c-0.07,0.61-0.57,1.11-1.2,1.11c-0.64,0-1.14-0.54-1.09-1.17
							c0.57-6.31,5.71-11.34,12.12-11.88c0.62-0.05,1.13,0.46,1.13,1.08c0,0.64-0.54,1.12-1.19,1.18
							C427.67,104.02,423.56,108.07,423.04,113.15z"/>
					</g>
				</g>
			</g>
		</g>
	</g>
	<polyline class="st28" points="420.42,438.4 420.42,414.17 402.67,414.17 402.67,438.4 	"/>
	<polyline class="st11" points="394.39,438.65 394.39,399.5 376.64,399.5 376.64,438.65 	"/>
	<polyline class="st28" points="368.36,438.4 368.36,374.57 350.61,374.57 350.61,438.4 	"/>
	<polyline class="st10" points="342.82,438.65 342.82,381.71 325.07,381.71 325.07,438.65 	"/>
	<polyline class="st28" points="316.79,438.16 316.79,357.04 299.04,357.04 299.04,438.16 	"/>
	<g>
		<path class="st28" d="M372.63,334.07c0-3.92-3.03-7.15-6.92-7.53c-0.48-7.41-6.73-13.28-14.38-13.28
			c-6.49,0-11.97,4.22-13.78,10.02c-4.74,0.44-8.46,4.37-8.46,9.16c0,5.08,4.19,9.2,9.35,9.2c0.02,0,0.04,0,0.07,0v0h26.46v0
			C369.2,341.62,372.63,338.24,372.63,334.07z"/>
	</g>
	<g>
		<path class="st28" d="M1578.66,92.03c0-3.92-3.03-7.15-6.92-7.53c-0.48-7.41-6.73-13.28-14.38-13.28
			c-6.49,0-11.97,4.22-13.78,10.02c-4.74,0.44-8.46,4.37-8.46,9.16c0,5.08,4.19,9.2,9.35,9.2c0.02,0,0.04,0,0.07,0v0H1571v0
			C1575.24,99.58,1578.66,96.2,1578.66,92.03z"/>
	</g>
	<g>
		<path class="st28" d="M384.58,91.89c0-3.92-3.03-7.15-6.92-7.53c-0.48-7.41-6.73-13.28-14.38-13.28
			c-6.49,0-11.97,4.22-13.78,10.02c-4.74,0.44-8.46,4.37-8.46,9.16c0,5.08,4.19,9.2,9.35,9.2c0.02,0,0.04,0,0.07,0v0h26.46v0
			C381.15,99.44,384.58,96.06,384.58,91.89z"/>
	</g>
	<g>
		<path class="st18" d="M200.25,132.64c0.12,15.51-12.56,28.17-28.31,28.29c-15.75,0.12-28.62-12.36-28.73-27.87
			c-0.12-15.51,12.56-28.17,28.31-28.29C187.27,104.66,200.14,117.14,200.25,132.64z"/>
		<path class="st16" d="M200.25,132.64c0.12,15.51-12.56,28.17-28.31,28.29c-15.75,0.12-28.62-12.36-28.73-27.87
			c-0.12-15.51,12.56-28.17,28.31-28.29C187.27,104.66,200.14,117.14,200.25,132.64z"/>
		<path class="st29" d="M182.28,132.78c0.04,5.74-4.64,10.42-10.47,10.46c-5.83,0.04-10.58-4.57-10.63-10.31
			c-0.04-5.73,4.64-10.42,10.47-10.46C177.48,122.43,182.24,127.04,182.28,132.78z"/>
		<g>
			<polyline class="st29" points="171.55,109.01 171.47,98.62 171.55,109.01 			"/>
			<polyline class="st29" points="171.91,156.7 171.99,167.09 171.91,156.7 			"/>
			<polyline class="st29" points="195.95,132.68 206.5,132.6 195.95,132.68 			"/>
			<polyline class="st29" points="147.51,133.03 136.96,133.11 147.51,133.03 			"/>
		</g>
	</g>
	<g>
		<path class="st20" d="M188.64,377.26c0-9.34-7.69-16.9-17.18-16.9c-9.48,0-17.17,7.57-17.17,16.9c0,5.77,2.94,10.87,7.43,13.91
			c0.69,0.47,1.17,1.22,1.17,2.05v5.61c0,2.49,2.05,2.28,4.57,2.28h8.01c2.52,0,4.57,0.21,4.57-2.28v-5.61
			c0-0.83,0.48-1.58,1.17-2.05C185.71,388.13,188.64,383.04,188.64,377.26z"/>
		<line class="st35" x1="175.04" y1="384.39" x2="175.04" y2="396.73"/>
		<line class="st35" x1="167.68" y1="383.23" x2="167.68" y2="396.73"/>
		<g>
			<path class="st36" d="M167.46,383.16c-0.7,0.53-1.52,0.8-2.4,0.8c-2.18,0-3.96-1.75-3.96-3.9c0-2.15,1.77-3.9,3.96-3.9
				c2.21,0,3.86,1.49,6.19,3.91c2.59,2.58,3.96,3.88,6.13,3.88c2.18,0,3.95-1.75,3.95-3.9c0-2.15-1.77-3.9-3.95-3.9
				c-0.88,0-1.71,0.27-2.41,0.8"/>
		</g>
		<path class="st20" d="M176.21,404.92c0,2.7-2.23,4.9-4.97,4.9c-2.74,0-4.97-2.19-4.97-4.9c0-2.7,2.23-2.67,4.97-2.67
			C173.98,402.24,176.21,402.21,176.21,404.92z"/>
		<path class="st37" d="M162.89,395.09v5.24c0,1.77,1.46,3.2,3.27,3.2h10.63c1.81,0,3.27-1.43,3.27-3.2v-5.24H162.89z"/>
	</g>
	<line class="st38" x1="137.38" y1="377.69" x2="145.53" y2="377.69"/>
	<line class="st38" x1="197.42" y1="377.69" x2="205.57" y2="377.69"/>
	<g>
		<line class="st38" x1="147.36" y1="401.42" x2="153.12" y2="395.75"/>
		<line class="st38" x1="189.82" y1="359.63" x2="195.58" y2="353.96"/>
	</g>
	<g>
		<line class="st38" x1="171.47" y1="352.15" x2="171.47" y2="344.13"/>
	</g>
	<g>
		<line class="st38" x1="195.58" y1="401.42" x2="189.82" y2="395.75"/>
		<line class="st38" x1="153.12" y1="359.63" x2="147.36" y2="353.96"/>
	</g>
	<path class="st11" d="M83.45,309.03c0-5.34-4.4-9.68-9.83-9.68c-3.09,0-5.85,1.4-7.65,3.6c-1.8-2.2-4.55-3.6-7.64-3.6
		c-5.43,0-9.83,4.33-9.83,9.68c0,8.58,12.94,16.03,17.09,16.55c0.23,0.04,0.57,0.04,0.77,0C70.51,325.06,83.45,317.61,83.45,309.03z
		"/>
	<path class="st40" d="M103.28,89.79c0.44-0.88,1.73-0.88,2.17,0l3.89,7.77c0.34,0.67,1,1.15,1.75,1.25l8.71,1.25
		c0.99,0.14,1.39,1.34,0.67,2.03l-6.3,6.05c-0.55,0.52-0.8,1.29-0.67,2.03l1.49,8.54c0.17,0.97-0.87,1.71-1.75,1.25l-7.79-4.03
		c-0.68-0.35-1.49-0.35-2.17,0l-7.79,4.03c-0.89,0.46-1.92-0.28-1.75-1.25l1.49-8.54c0.13-0.74-0.12-1.5-0.67-2.03l-6.3-6.05
		c-0.72-0.69-0.32-1.89,0.67-2.03l8.71-1.25c0.76-0.11,1.41-0.58,1.75-1.25L103.28,89.79z"/>
	<path class="st10" d="M38.55,187.85c5.41-12.74,20.29-18.62,33.23-13.12c12.94,5.49,19.05,20.28,13.64,33.02
		c-5.41,12.74-20.28,18.62-33.23,13.12C39.25,215.37,33.14,200.59,38.55,187.85"/>
	<path class="st30" d="M38.55,187.85c5.41-12.74,20.29-18.62,33.23-13.12c12.94,5.49,19.05,20.28,13.64,33.02
		c-5.41,12.74-20.28,18.62-33.23,13.12C39.25,215.37,33.14,200.59,38.55,187.85"/>
	
		<ellipse transform="matrix(0.3907 -0.9205 0.9205 0.3907 -144.3042 177.5706)" class="st6" cx="61.99" cy="197.8" rx="17.42" ry="17.7"/>
	<path class="st31" d="M58.48,191.23c2.57-0.11,4.79-0.65,6.67-1.63l1.16,0.49l-6.86,16.17"/>
	<g>
		<g>
			<path class="st39" d="M172.85,283.1c-1.75,1.72-4.62,1.69-6.41-0.08l-17.89-17.61c-1.37-1.35-1.55-2.74-0.32-3.94l2.41-2.38
				c1.55-1.53,2.93-1.39,4.34-0.01l17.89,17.61c1.79,1.76,1.83,4.59,0.08,6.31L172.85,283.1z"/>
			<g>
				<g>
					<path class="st37" d="M161.92,247.86c0,13.31-10.96,24.1-24.48,24.1c-13.52,0-24.48-10.79-24.48-24.1
						c0-13.31,10.96-24.1,24.48-24.1C150.96,223.76,161.92,234.55,161.92,247.86z"/>
					<path class="st18" d="M155.31,247.86c0,9.72-8,17.59-17.87,17.59c-9.87,0-17.87-7.88-17.87-17.59c0-9.72,8-17.59,17.87-17.59
						C147.31,230.27,155.31,238.14,155.31,247.86z"/>
					<g>
						<path class="st6" d="M126.47,246.76c-0.07,0.61-0.57,1.11-1.2,1.11c-0.64,0-1.14-0.54-1.09-1.17
							c0.57-6.31,5.71-11.34,12.12-11.88c0.62-0.05,1.13,0.46,1.13,1.08c0,0.64-0.54,1.12-1.19,1.18
							C131.1,237.62,127,241.67,126.47,246.76z"/>
					</g>
				</g>
			</g>
		</g>
	</g>
	<g>
		<path class="st28" d="M37.67,95.43c0-3.92-3.03-7.15-6.92-7.53c-0.48-7.41-6.73-13.28-14.38-13.28c-6.49,0-11.97,4.22-13.78,10.02
			c-4.74,0.44-8.46,4.37-8.46,9.16c0,5.08,4.19,9.2,9.35,9.2c0.02,0,0.04,0,0.07,0v0h26.46v0C34.24,102.98,37.67,99.6,37.67,95.43z"
			/>
	</g>
	<g>
		<g>
			<path class="st28" d="M1825.04,394.14c0-3.92-3.03-7.15-6.92-7.53c-0.48-7.41-6.73-13.28-14.38-13.28
				c-6.49,0-11.97,4.22-13.78,10.02c-4.74,0.44-8.46,4.37-8.46,9.16c0,5.08,4.19,9.2,9.35,9.2c0.02,0,0.04,0,0.07,0v0h26.46v0
				C1821.62,401.69,1825.04,398.31,1825.04,394.14z"/>
		</g>
	</g>
	<path class="st0" d="M1822.38,312.91"/>
	<path class="st0" d="M1822.35,378.98"/>
	<path class="st0" d="M1870.76,400.68"/>
	<path class="st0" d="M1861.96,377.6v-82.72c0-39.59,5.83-62.92-15.31-62.92"/>
	<g>
		<path class="st7" d="M1812.23,225.34v17.4h24.84v-17.4h17.27v-18.81c-20.56,0-37.19,0-59.38,0v18.81H1812.23z"/>
		<path class="st7" d="M1812.23,225.34v17.4h24.84v-17.4h17.27v-18.81c-20.56,0-37.19,0-59.38,0v18.81H1812.23z"/>
	</g>
	<g>
		<polygon class="st6" points="1855.2,351.65 1853.66,342.75 1845.61,337.28 1872.04,321.26 1881.63,335.63 		"/>
		<polygon class="st6" points="1880.18,368.07 1888.77,365.83 1896.98,371.05 1900.4,339.91 1883.61,336.93 		"/>
		<polygon class="st6" points="1855.2,351.65 1853.66,342.75 1845.61,337.28 1872.04,321.26 1881.63,335.63 		"/>
		<polygon class="st6" points="1880.18,368.07 1888.77,365.83 1896.98,371.05 1900.4,339.91 1883.61,336.93 		"/>
		<polygon class="st16" points="1855.2,351.65 1853.66,342.75 1845.61,337.28 1872.04,321.26 1881.63,335.63 		"/>
		<polygon class="st16" points="1880.18,368.07 1888.77,365.83 1896.98,371.05 1900.4,339.91 1883.61,336.93 		"/>
		<polygon class="st7" points="1862.09,327.3 1858.04,333.59 1869.66,339.59 1870.14,342.59 1881.63,335.63 1872.04,321.26 		"/>
		<polygon class="st7" points="1899.22,350.71 1900.4,339.91 1883.61,336.93 1882.18,349.94 1883.89,349.6 1893.51,358.52 		"/>
		<polygon class="st16" points="1855.2,351.65 1853.66,342.75 1845.61,337.28 1872.04,321.26 1881.63,335.63 		"/>
		<polygon class="st16" points="1880.18,368.07 1888.77,365.83 1896.98,371.05 1900.4,339.91 1883.61,336.93 		"/>
		<polygon class="st11" points="1919.41,340.87 1906.7,339.63 1899.6,349.35 1889.99,340.43 1877.77,342.86 1875.75,330.43 
			1864.13,324.42 1870.65,314.29 1865.07,302.67 1877.08,299.59 1880.14,287.78 1892.02,293.18 1902.3,286.72 1908.49,298.08 
			1921.17,299.99 1918.78,311.99 1927.93,321.37 1918.07,328.4 		"/>
		<path class="st17" d="M1880.6,307.15c4.69-7.41,14.97-9.17,22.95-3.92c7.98,5.25,10.65,15.51,5.95,22.92
			c-4.7,7.42-14.97,9.17-22.95,3.92C1878.57,324.82,1875.9,314.56,1880.6,307.15z"/>
	</g>
	<g>
		<g>
			<line class="st43" x1="1759.75" y1="127.71" x2="1766.03" y2="119.41"/>
			<line class="st43" x1="1773.83" y1="154.71" x2="1783.46" y2="152.83"/>
			<line class="st43" x1="1692.73" y1="154.71" x2="1683.1" y2="152.83"/>
			<line class="st43" x1="1706.81" y1="127.71" x2="1700.53" y2="119.41"/>
			<line class="st43" x1="1733.28" y1="117.04" x2="1733.28" y2="106.21"/>
		</g>
		<polygon class="st11" points="1742.52,136.96 1724.04,136.96 1705.57,157.41 1733.28,198.1 1760.99,157.41 		"/>
		<polygon class="st12" points="1742.52,136.96 1724.04,136.96 1705.57,157.41 1733.28,198.1 1760.99,157.41 		"/>
	</g>
	<path class="st18" d="M1757.13,291.03c0-13.84,11.4-25.06,25.46-25.06c14.06,0,25.46,11.22,25.46,25.06s-11.4,25.06-25.46,25.06
		C1768.53,316.1,1757.13,304.87,1757.13,291.03"/>
	<path class="st30" d="M1757.13,291.03c0-13.84,11.4-25.06,25.46-25.06c14.06,0,25.46,11.22,25.46,25.06s-11.4,25.06-25.46,25.06
		C1768.53,316.1,1757.13,304.87,1757.13,291.03"/>
	<ellipse class="st6" cx="1782.59" cy="291.03" rx="17.7" ry="17.42"/>
	<path class="st31" d="M1776.8,286.36c2.32-1.1,4.15-2.47,5.5-4.1h1.26v17.56"/>
	<g>
		<g>
			<path class="st39" d="M1896.94,183.05c-1.66,1.81-4.53,1.92-6.41,0.25l-18.75-16.69c-1.44-1.28-1.69-2.66-0.52-3.92l2.29-2.49
				c1.48-1.61,2.86-1.53,4.33-0.22l18.75,16.69c1.88,1.67,2.05,4.49,0.39,6.3L1896.94,183.05z"/>
			<g>
				<g>
					<path class="st37" d="M1884.24,148.41c0.67,13.29-9.73,24.62-23.24,25.3c-13.5,0.68-24.99-9.54-25.66-22.84
						c-0.67-13.29,9.74-24.62,23.24-25.3C1872.09,124.89,1883.58,135.12,1884.24,148.41z"/>
					<path class="st18" d="M1877.65,148.74c0.49,9.7-7.11,17.97-16.97,18.47c-9.86,0.5-18.25-6.97-18.74-16.67
						c-0.49-9.71,7.11-17.97,16.97-18.47C1868.77,131.57,1877.16,139.04,1877.65,148.74z"/>
					<g>
						<path class="st6" d="M1848.79,149.09c-0.03,0.62-0.51,1.13-1.14,1.16c-0.64,0.03-1.17-0.49-1.14-1.12
							c0.25-6.33,5.13-11.62,11.51-12.47c0.62-0.08,1.15,0.41,1.18,1.02c0.03,0.64-0.49,1.14-1.13,1.24
							C1852.95,139.73,1849.06,143.99,1848.79,149.09z"/>
					</g>
				</g>
			</g>
		</g>
	</g>
	<path class="st28" d="M1775.89,406.1"/>
	<g>
		<path class="st28" d="M1828.68,92.95c0-3.92-3.03-7.15-6.92-7.53c-0.48-7.41-6.73-13.28-14.38-13.28
			c-6.49,0-11.97,4.22-13.78,10.02c-4.74,0.44-8.46,4.37-8.46,9.16c0,5.08,4.19,9.2,9.35,9.2c0.02,0,0.04,0,0.07,0v0h26.46v0
			C1825.25,100.51,1828.68,97.12,1828.68,92.95z"/>
	</g>
	<line class="st0" x1="1723.96" y1="341.6" x2="1722.15" y2="244.07"/>
	<path class="st0" d="M1859.15,395.61"/>
	<path class="st0" d="M1859.16,433.28"/>
	<line class="st0" x1="1862.96" y1="449.6" x2="1861.25" y2="388.03"/>
</g>
</svg>
