<svg width="92" height="161" xmlns="http://www.w3.org/2000/svg" xmlns:xlink="http://www.w3.org/1999/xlink" overflow="hidden"><defs><clipPath id="clip0"><rect x="-2" y="686" width="92" height="161"/></clipPath></defs><g clip-path="url(#clip0)" transform="translate(2 -686)"><rect x="-1" y="687" width="53" height="159" fill="#E57022"/><path d="M29 721C29 718.791 30.7909 717 33 717 35.2091 717 37 718.791 37 721 37 723.209 35.2091 725 33 725 30.7909 725 29 723.209 29 721Z" fill="#DEDEDE" fill-rule="evenodd"/><path d="M42 720.5C42 718.567 43.7909 717 46 717 48.2091 717 50 718.567 50 720.5 50 722.433 48.2091 724 46 724 43.7909 724 42 722.433 42 720.5Z" fill="#DEDEDE" fill-rule="evenodd"/><path d="M55 720.5C55 718.567 56.7909 717 59 717 61.2091 717 63 718.567 63 720.5 63 722.433 61.2091 724 59 724 56.7909 724 55 722.433 55 720.5Z" fill="#DEDEDE" fill-rule="evenodd"/><path d="M69 720.5C69 718.567 70.567 717 72.5 717 74.433 717 76 718.567 76 720.5 76 722.433 74.433 724 72.5 724 70.567 724 69 722.433 69 720.5Z" fill="#DEDEDE" fill-rule="evenodd"/><path d="M82 720C82 717.791 83.567 716 85.5 716 87.433 716 89 717.791 89 720 89 722.209 87.433 724 85.5 724 83.567 724 82 722.209 82 720Z" fill="#DEDEDE" fill-rule="evenodd"/><path d="M29 732.5C29 730.567 30.7909 729 33 729 35.2091 729 37 730.567 37 732.5 37 734.433 35.2091 736 33 736 30.7909 736 29 734.433 29 732.5Z" fill="#DEDEDE" fill-rule="evenodd"/><path d="M42 732C42 729.791 43.7909 728 46 728 48.2091 728 50 729.791 50 732 50 734.209 48.2091 736 46 736 43.7909 736 42 734.209 42 732Z" fill="#DEDEDE" fill-rule="evenodd"/><path d="M55 732C55 729.791 56.7909 728 59 728 61.2091 728 63 729.791 63 732 63 734.209 61.2091 736 59 736 56.7909 736 55 734.209 55 732Z" fill="#DEDEDE" fill-rule="evenodd"/><path d="M69 732C69 729.791 70.567 728 72.5 728 74.433 728 76 729.791 76 732 76 734.209 74.433 736 72.5 736 70.567 736 69 734.209 69 732Z" fill="#DEDEDE" fill-rule="evenodd"/><path d="M82 731.5C82 729.567 83.567 728 85.5 728 87.433 728 89 729.567 89 731.5 89 733.433 87.433 735 85.5 735 83.567 735 82 733.433 82 731.5Z" fill="#DEDEDE" fill-rule="evenodd"/><path d="M29 743.5C29 741.567 30.7909 740 33 740 35.2091 740 37 741.567 37 743.5 37 745.433 35.2091 747 33 747 30.7909 747 29 745.433 29 743.5Z" fill="#DEDEDE" fill-rule="evenodd"/><path d="M42 743.5C42 741.567 43.7909 740 46 740 48.2091 740 50 741.567 50 743.5 50 745.433 48.2091 747 46 747 43.7909 747 42 745.433 42 743.5Z" fill="#DEDEDE" fill-rule="evenodd"/><path d="M55 743.5C55 741.567 56.7909 740 59 740 61.2091 740 63 741.567 63 743.5 63 745.433 61.2091 747 59 747 56.7909 747 55 745.433 55 743.5Z" fill="#DEDEDE" fill-rule="evenodd"/><path d="M69 743.5C69 741.567 70.567 740 72.5 740 74.433 740 76 741.567 76 743.5 76 745.433 74.433 747 72.5 747 70.567 747 69 745.433 69 743.5Z" fill="#DEDEDE" fill-rule="evenodd"/><path d="M82 743C82 740.791 83.567 739 85.5 739 87.433 739 89 740.791 89 743 89 745.209 87.433 747 85.5 747 83.567 747 82 745.209 82 743Z" fill="#DEDEDE" fill-rule="evenodd"/><path d="M29 755C29 752.791 30.7909 751 33 751 35.2091 751 37 752.791 37 755 37 757.209 35.2091 759 33 759 30.7909 759 29 757.209 29 755Z" fill="#DEDEDE" fill-rule="evenodd"/><path d="M42 755C42 752.791 43.7909 751 46 751 48.2091 751 50 752.791 50 755 50 757.209 48.2091 759 46 759 43.7909 759 42 757.209 42 755Z" fill="#DEDEDE" fill-rule="evenodd"/><path d="M55 755C55 752.791 56.7909 751 59 751 61.2091 751 63 752.791 63 755 63 757.209 61.2091 759 59 759 56.7909 759 55 757.209 55 755Z" fill="#DEDEDE" fill-rule="evenodd"/><path d="M69 755C69 752.791 70.567 751 72.5 751 74.433 751 76 752.791 76 755 76 757.209 74.433 759 72.5 759 70.567 759 69 757.209 69 755Z" fill="#DEDEDE" fill-rule="evenodd"/><path d="M82 754.5C82 752.567 83.567 751 85.5 751 87.433 751 89 752.567 89 754.5 89 756.433 87.433 758 85.5 758 83.567 758 82 756.433 82 754.5Z" fill="#DEDEDE" fill-rule="evenodd"/><path d="M29 766.5C29 764.567 30.7909 763 33 763 35.2091 763 37 764.567 37 766.5 37 768.433 35.2091 770 33 770 30.7909 770 29 768.433 29 766.5Z" fill="#DEDEDE" fill-rule="evenodd"/><path d="M42 766.5C42 764.567 43.7909 763 46 763 48.2091 763 50 764.567 50 766.5 50 768.433 48.2091 770 46 770 43.7909 770 42 768.433 42 766.5Z" fill="#DEDEDE" fill-rule="evenodd"/><path d="M55 766.5C55 764.567 56.7909 763 59 763 61.2091 763 63 764.567 63 766.5 63 768.433 61.2091 770 59 770 56.7909 770 55 768.433 55 766.5Z" fill="#DEDEDE" fill-rule="evenodd"/><path d="M69 766.5C69 764.567 70.567 763 72.5 763 74.433 763 76 764.567 76 766.5 76 768.433 74.433 770 72.5 770 70.567 770 69 768.433 69 766.5Z" fill="#DEDEDE" fill-rule="evenodd"/><path d="M82 766C82 763.791 83.567 762 85.5 762 87.433 762 89 763.791 89 766 89 768.209 87.433 770 85.5 770 83.567 770 82 768.209 82 766Z" fill="#DEDEDE" fill-rule="evenodd"/></g></svg>