<svg width="112" height="158" xmlns="http://www.w3.org/2000/svg" xmlns:xlink="http://www.w3.org/1999/xlink" overflow="hidden"><defs><clipPath id="clip0"><rect x="1169" y="956" width="112" height="158"/></clipPath></defs><g clip-path="url(#clip0)" transform="translate(-1169 -956)"><rect x="1219" y="956" width="61" height="157" fill="#E57022"/><path d="M1169 988.5C1169 986.567 1170.79 985 1173 985 1175.21 985 1177 986.567 1177 988.5 1177 990.433 1175.21 992 1173 992 1170.79 992 1169 990.433 1169 988.5Z" fill="#DEDEDE" fill-rule="evenodd"/><path d="M1183 988.5C1183 986.567 1184.57 985 1186.5 985 1188.43 985 1190 986.567 1190 988.5 1190 990.433 1188.43 992 1186.5 992 1184.57 992 1183 990.433 1183 988.5Z" fill="#DEDEDE" fill-rule="evenodd"/><path d="M1196 988.5C1196 986.567 1197.57 985 1199.5 985 1201.43 985 1203 986.567 1203 988.5 1203 990.433 1201.43 992 1199.5 992 1197.57 992 1196 990.433 1196 988.5Z" fill="#DEDEDE" fill-rule="evenodd"/><path d="M1209 988.5C1209 986.567 1210.79 985 1213 985 1215.21 985 1217 986.567 1217 988.5 1217 990.433 1215.21 992 1213 992 1210.79 992 1209 990.433 1209 988.5Z" fill="#DEDEDE" fill-rule="evenodd"/><path d="M1222 988C1222 985.791 1223.79 984 1226 984 1228.21 984 1230 985.791 1230 988 1230 990.209 1228.21 992 1226 992 1223.79 992 1222 990.209 1222 988Z" fill="#DEDEDE" fill-rule="evenodd"/><path d="M1169 1000C1169 997.791 1170.79 996 1173 996 1175.21 996 1177 997.791 1177 1000 1177 1002.21 1175.21 1004 1173 1004 1170.79 1004 1169 1002.21 1169 1000Z" fill="#DEDEDE" fill-rule="evenodd"/><path d="M1183 999.5C1183 997.567 1184.57 996 1186.5 996 1188.43 996 1190 997.567 1190 999.5 1190 1001.43 1188.43 1003 1186.5 1003 1184.57 1003 1183 1001.43 1183 999.5Z" fill="#DEDEDE" fill-rule="evenodd"/><path d="M1196 999.5C1196 997.567 1197.57 996 1199.5 996 1201.43 996 1203 997.567 1203 999.5 1203 1001.43 1201.43 1003 1199.5 1003 1197.57 1003 1196 1001.43 1196 999.5Z" fill="#DEDEDE" fill-rule="evenodd"/><path d="M1209 999.5C1209 997.567 1210.79 996 1213 996 1215.21 996 1217 997.567 1217 999.5 1217 1001.43 1215.21 1003 1213 1003 1210.79 1003 1209 1001.43 1209 999.5Z" fill="#DEDEDE" fill-rule="evenodd"/><path d="M1222 999.5C1222 997.567 1223.79 996 1226 996 1228.21 996 1230 997.567 1230 999.5 1230 1001.43 1228.21 1003 1226 1003 1223.79 1003 1222 1001.43 1222 999.5Z" fill="#DEDEDE" fill-rule="evenodd"/><path d="M1169 1011.5C1169 1009.57 1170.79 1008 1173 1008 1175.21 1008 1177 1009.57 1177 1011.5 1177 1013.43 1175.21 1015 1173 1015 1170.79 1015 1169 1013.43 1169 1011.5Z" fill="#DEDEDE" fill-rule="evenodd"/><path d="M1183 1011C1183 1008.79 1184.57 1007 1186.5 1007 1188.43 1007 1190 1008.79 1190 1011 1190 1013.21 1188.43 1015 1186.5 1015 1184.57 1015 1183 1013.21 1183 1011Z" fill="#DEDEDE" fill-rule="evenodd"/><path d="M1196 1011C1196 1008.79 1197.57 1007 1199.5 1007 1201.43 1007 1203 1008.79 1203 1011 1203 1013.21 1201.43 1015 1199.5 1015 1197.57 1015 1196 1013.21 1196 1011Z" fill="#DEDEDE" fill-rule="evenodd"/><path d="M1209 1011C1209 1008.79 1210.79 1007 1213 1007 1215.21 1007 1217 1008.79 1217 1011 1217 1013.21 1215.21 1015 1213 1015 1210.79 1015 1209 1013.21 1209 1011Z" fill="#DEDEDE" fill-rule="evenodd"/><path d="M1222 1011C1222 1008.79 1223.79 1007 1226 1007 1228.21 1007 1230 1008.79 1230 1011 1230 1013.21 1228.21 1015 1226 1015 1223.79 1015 1222 1013.21 1222 1011Z" fill="#DEDEDE" fill-rule="evenodd"/><path d="M1169 1023C1169 1020.79 1170.79 1019 1173 1019 1175.21 1019 1177 1020.79 1177 1023 1177 1025.21 1175.21 1027 1173 1027 1170.79 1027 1169 1025.21 1169 1023Z" fill="#DEDEDE" fill-rule="evenodd"/><path d="M1183 1022.5C1183 1020.57 1184.57 1019 1186.5 1019 1188.43 1019 1190 1020.57 1190 1022.5 1190 1024.43 1188.43 1026 1186.5 1026 1184.57 1026 1183 1024.43 1183 1022.5Z" fill="#DEDEDE" fill-rule="evenodd"/><path d="M1196 1022.5C1196 1020.57 1197.57 1019 1199.5 1019 1201.43 1019 1203 1020.57 1203 1022.5 1203 1024.43 1201.43 1026 1199.5 1026 1197.57 1026 1196 1024.43 1196 1022.5Z" fill="#DEDEDE" fill-rule="evenodd"/><path d="M1209 1022.5C1209 1020.57 1210.79 1019 1213 1019 1215.21 1019 1217 1020.57 1217 1022.5 1217 1024.43 1215.21 1026 1213 1026 1210.79 1026 1209 1024.43 1209 1022.5Z" fill="#DEDEDE" fill-rule="evenodd"/><path d="M1222 1022.5C1222 1020.57 1223.79 1019 1226 1019 1228.21 1019 1230 1020.57 1230 1022.5 1230 1024.43 1228.21 1026 1226 1026 1223.79 1026 1222 1024.43 1222 1022.5Z" fill="#DEDEDE" fill-rule="evenodd"/><path d="M1169 1034.5C1169 1032.57 1170.79 1031 1173 1031 1175.21 1031 1177 1032.57 1177 1034.5 1177 1036.43 1175.21 1038 1173 1038 1170.79 1038 1169 1036.43 1169 1034.5Z" fill="#DEDEDE" fill-rule="evenodd"/><path d="M1183 1034C1183 1031.79 1184.57 1030 1186.5 1030 1188.43 1030 1190 1031.79 1190 1034 1190 1036.21 1188.43 1038 1186.5 1038 1184.57 1038 1183 1036.21 1183 1034Z" fill="#DEDEDE" fill-rule="evenodd"/><path d="M1196 1034C1196 1031.79 1197.57 1030 1199.5 1030 1201.43 1030 1203 1031.79 1203 1034 1203 1036.21 1201.43 1038 1199.5 1038 1197.57 1038 1196 1036.21 1196 1034Z" fill="#DEDEDE" fill-rule="evenodd"/><path d="M1209 1034C1209 1031.79 1210.79 1030 1213 1030 1215.21 1030 1217 1031.79 1217 1034 1217 1036.21 1215.21 1038 1213 1038 1210.79 1038 1209 1036.21 1209 1034Z" fill="#DEDEDE" fill-rule="evenodd"/><path d="M1222 1034C1222 1031.79 1223.79 1030 1226 1030 1228.21 1030 1230 1031.79 1230 1034 1230 1036.21 1228.21 1038 1226 1038 1223.79 1038 1222 1036.21 1222 1034Z" fill="#DEDEDE" fill-rule="evenodd"/></g></svg>